<?xml version="1.0" encoding="utf-8"?>
<!-- Generator: Adobe Illustrator 19.0.1, SVG Export Plug-In . SVG Version: 6.00 Build 0)  -->
<svg version="1.1" id="Слой_1" xmlns="http://www.w3.org/2000/svg" xmlns:xlink="http://www.w3.org/1999/xlink" x="0px" y="0px"
	 viewBox="0 0 327 234" style="enable-background:new 0 0 327 234;" xml:space="preserve">
<style type="text/css">
	.st0{clip-path:url(#SVGID_2_);fill:#616C90;}
</style>
<g>
	<defs>
		<rect id="SVGID_1_" x="4" y="0" width="320.9" height="234"/>
	</defs>
	<clipPath id="SVGID_2_">
		<use xlink:href="#SVGID_1_"  style="overflow:visible;"/>
	</clipPath>
	<path class="st0" d="M50,169.9l-2,3.9c0,0-4.6,2.4-7.4,6.1c0,0,1.1-19.6,15.5-33.8C70.5,132,78.4,134.9,89,134.4l-2.8,3.5
		c0,0-17.9-5.7-29.4,9.4c-13.3,17.3-12.2,25.9-12.2,25.9L50,169.9z"/>
	<path class="st0" d="M194.5,20.7c-7.2-8.1-19.4-15.9-29.4-15.3c-10,0.7-29.8,6.8-34.2,12.6c-4.4,5.9-9.2,17.9-7.2,36.6l-3.7,2
		c0.2-20.5,2-36.6,20.5-46.6C159,0,171,2.2,176,3.5c5,1.3,18.7,9.6,21.8,13.9L194.5,20.7z"/>
	<path class="st0" d="M125.2,55.6c-3.7-2-4.7-1.8-7.6,0.7c-3.9,3.3-2.8,12.6-1.7,14.4c1.1,1.7,2.6,3.5,2.6,3.5l1.7-6.8
		c-2.2-1.7-2.4-4.6-1.3-5.2c1.1-0.7,3.9,1.5,3.9,1.5L125.2,55.6z"/>
	<path class="st0" d="M116.7,70.2l-1.1,9.4c0,0-4.1,12.9-5.4,13.9c0,0-1.1-6.8-3.1-7.6c-0.9-0.4,0.9-4.6,2.8-4.4
		c2.8,0.3,4.6,3.8,4.6,3.8l1.3-3.8c0,0-5-4.1-8.3-2.8c-3.3,1.3-7.6,5.7-5.9,7.2c1.7,1.5,3.5,5.7,4.8,8.5c1.3,2.8,2.5,6.6,1.8,12.3
		l3.9-5.3l-0.3-4.4c0,0,1.7-7.5,4.3-13.2c2.6-5.7,4.1-9.7,2.6-14.2C117.2,64.9,116.7,70.2,116.7,70.2"/>
	<path class="st0" d="M118.6,68.7c1.9-2.7,4.3-7.6,4.9-9.9c0.7-2.3,2-7.3,2.8-9.5c0.9-2.2,1.5-4.1,4.2-9.3c2.7-5.1,3.2-6.4,4-9.5
		c0.5-1.9,2.2-3.9,3.7-5.4c0.9-0.9,1.8-1.6,2.5-2c1.7-1.2,5.6,0,5.9,4.4c2.4-4.5,6.1-9.4,8.1-10.3c2-1,5.1-1,5.8,3.1
		c0.7,4,0.3,5.8-1.2,8.3c-1.5,2.5-4.5,8.1-4.9,10c0,0,1.5-1.4,3.6-5c2.1-3.6,4.8-7,6.1-7.8c1.3-0.9,4.8-1.9,5.8-1.1
		c1,0.8,2.4,4.9-0.3,9.9c-2.7,5-4,9.1-5.9,11.3c-1.9,2.2-3.9,4.8-3.9,4.8s-0.8,8.2-2.8,11.2c0,0,2.3-2.4,4.6-4.6
		c2.3-2.2,3.5-3.1,8-6c4.5-2.9,8.4-5.4,9.5-6.5c1.1-1.1,7.3-1.9,4.6,4.1c-2.7,6-5.1,7.4-6.4,8.7c-1.3,1.3-1.1,2.5-4.1,4.9
		c-3.1,2.4-4.3,6.8-7.5,9.7c0,0-0.2,7.5-2.2,13.1c-2,5.6-8.4,19.2-11.3,24.6c-2.9,5.4-7.1,10.2-13.2,12.4
		c-10.2,13.2-16.6,37.3-21,50.8c-4.4,13.5-13.9,41.3-16.7,49.4c-2.8,8.1-3.6,9.7-6.5,11.5c0,0,15.8-44.6,21.5-61.7
		s13.2-38.3,16.3-43.1c3.1-4.8,5.2-6.8,10.6-10.2c5.4-3.3,6.1-6,9-11.9c2.9-6,8.8-19.2,9.3-23c0.6-4.4-0.5-7.1,0.9-8.9
		c2.3-2.9,5.8-7.7,5.8-9.3c0-1.6,1.9-2.9,3.2-3.5c1.3-0.6,3.3-1.5,3.8-3.1c0.4-1.6,1.9-3.6,3.3-4.4c1.5-0.7,2.9-2.2,3.1-4.8
		c0.1-2.6-0.1-2.5-1.5-1.9s-2.3,1.9-3.6,1c-1.3-0.9-3.5-0.1-3.6,0.6c-0.1,0.7,2.3,0.3,2.3,1c0,0.7-1.7,3.1-2.6,2.9
		c-0.9-0.1,0.1-2-1-2.2c-1.2-0.1-6.5,3.5-7.6,4.5c-1,1,0.7,0.7,0.7,0.7s2-0.6,2.3,0c0.3,0.6-2,4.2-3.2,3.6c-1.2-0.6,0.7-2.6,0-3.1
		c-0.7-0.4-1.3-0.7-2.6,1.2s-8.9,11-10.7,12.1c-1.9,1-1.6,3.6-2.3,4.2s-2.2,2.9-2.2,1c0-1.9,2.2-4.2,2.2-4.2s2.5-2.2,4.5-4.4
		c2-2.2,3.2-4.5,3.5-7.3c0.3-2.8,1.2-8,1.2-8s4.1-4.2,5.1-6c1-1.7,1.6-3.2,3.2-6.1c1.6-2.9,3.8-10.6,2.6-11.5
		c-1.2-0.9-1.5,1.3-2.5,1c-1-0.3,1.2-2.6,0-2.9c-1.2-0.3-4.2,1.7-3.6,2.8c0.6,1,2.5,0,2.8,0.6c0.3,0.6-0.1,2-3.5,1.5
		c-3.3-0.6-1.3,1.6-0.6,1.9c0.7,0.3,2.2-0.6,1.6,0.3c-0.6,0.9-1.5,1.5-3.9,2.2c-2.5,0.7-2.6,3.6-3.5,4.5s-2,2.6-3.2,3.6
		c-1.2,1-2.6,2.3-2.9,3.9c-0.3,1.6-0.3,1.7,0.9,0.6c1.2-1.2,3.2-3.1,3.9-2.2c0.7,0.9-2.6,4.1-2.3,3.9c1-0.5-3.2,0.9-3.3-1.3
		c-0.1-1.6-0.7,1.5-1.3,3.8c-0.6,2.3-4.8,11-7.3,12.3c0,0,0.3-1.7,2.9-6.2c2.6-4.5,1.6-6.5,3.3-8.7c1.7-2.2,3.1-4.1,5.2-7.1
		c2.2-3.1,0-3.6,2.8-7.1c2.8-3.5,3.9-6.1,4.4-8.1c0.4-2,0.4-6.1-0.3-6.5c-0.7-0.4-1.5,0.6-1.9,0.3c-0.4-0.3,1.3-1.7,0-2.2
		c-1.3-0.4-4.9,1.9-3.5,2.3c1.5,0.4,2.6-0.3,2.9,0.6c0.3,0.9-0.1,1.5-1.5,1.9c-1.3,0.4-2.5-1.6-3.5-0.1c-1,1.5-2.3,3.5-1.7,3.8
		c0.6,0.3,3.2-0.4,3.2,0.3c0,0.7-1.7,2.3-2.6,2.5c-0.9,0.1-1.9-0.7-2.8,0.3c-0.9,1-1.7,3.3-3.1,5.1c-1.3,1.7-3.1,3.1-3.2,4.1
		c-0.1,1,3.3-0.4,3.6,0.3c0.3,0.7-2,3.3-3.1,3.9c-1,0.6-2.5-0.4-2.9,0.6c-0.4,1-0.3,3.5-1.2,5.2c-0.9,1.7-5.2,11.6-7.4,14.1
		s-2.2,6.4-2.2,7.3s-3.3,2.9-3.3,2.9s-0.6-3.6,0.6-4.8c1.2-1.2,2-3.2,4.4-6.2c2.3-3.1,5.7-12.1,6.5-15.5c0.9-3.5,4.4-9.1,6.7-11.9
		c2.3-2.8,3.2-6.4,2.5-8.1c-0.6-1.3-0.7-1.6-2,0.3c-1.3,1.9-0.7,0.4-0.9-0.9c-0.3-1.7-1.5-1.9-2.5-0.7c-1,1.2-1,2.5,1.5,2.2
		c2.5-0.3,0.9,1.2-0.4,2c-1.3,0.9-2.6-0.6-3.5,0.6c-0.9,1.2-2.3,2.8-1.3,3.2c1,0.4,4.2-0.6,4.2,0.1s-1,1.6-2.9,1.7
		c-1.9,0.1-2.2-1.6-3.2,1.6c-1,3.2-1.3,4.9-2.3,5.8c-1,0.9-0.9,1.3,0.4,1s2-2,2.5-1c0.4,1-1,3.2-2,3.2c-1,0-1.7,0.1-2.8,1.6
		c-1,1.5,0.6-0.6-0.7,2.8c-0.4,1.1-0.3,2.5-1.5,4.9c-1.2,2.5-7.8,13.8-8,16.6C118.5,75.4,118.6,68.7,118.6,68.7"/>
	<path class="st0" d="M138.1,67.8c-1.4-0.7-2.9,2.2-3.2,3.2c-0.3,1-1,2.9-0.4,2.9s1.2-1.6,2-2c0.9-0.4,0.4-1.9,0.9-2.6
		C137.8,68.6,138.6,68.1,138.1,67.8"/>
	<path class="st0" d="M125.3,74.8c-1.3,0.7-3.2,1.9-3.5,3.2c-0.3,1.3-3.2,12.6-5.5,15.5c-2.3,2.9-1,1.9,0.3,1
		c1.3-0.9,4.1-5.1,4.9-7.7C122.4,84.2,125.3,74.8,125.3,74.8"/>
	<path class="st0" d="M114.8,97.8c0.5-2.1-9,13.5-12.8,19c-3.8,5.5-33.3,43.7-50.4,54.5c-2,0.4-3.6,0.4-3.6,0.4l-1.7,1.9L49,174
		c0,0-23.8,21.2-41,50.3c0,0,2.2-14.8,12.1-24.4C30,190.3,32,188.1,32,188.1l2.5-0.4l1.6-2.2l0.1-1.3l7.8-7.3l-0.4-0.9
		c0,0-10.5,10.6-17.1,16.4c-6.7,5.8-20.9,19-22.5,39.9c7-6.7,7.9-15.2,22.4-32.7c9.2-11,22.1-24.5,27-28.3
		c4.9-3.8,31.5-30.5,34.7-34.4C91.3,133.1,113.2,105,114.8,97.8"/>
	<path class="st0" d="M138.7,122.3c12.4,6.6,22.3,12.3,30.1,13c7.8,0.7,19.3,0.3,21.8-1.9s1.9-6.4,3.3-11.2
		c1.5-4.8,4.8-13.8,5.8-17.1c1-3.3,0.1-7.3,2.5-14.1c2.3-6.8,2-11.5,1.9-17c-0.1-5.5-0.1-10.3,2-11.2c2.2-0.9,2.2-1,1.5,1.6
		c-0.7,2.6-0.7,3.3-0.7,9.3c0,6,0,12.8-1.2,16c-1.2,3.2-3.2,8-3.1,10.9c0.1,2.9-0.6,4.5-2.9,10.9c-2.3,6.4-3.1,6.5-3.6,11.3
		c-0.6,4.8-2.2,9.4-4.2,11.2c-2,1.7-10.3,5.4-17.3,5.1c-7-0.3-21.1-3.3-38.9-13.7L138.7,122.3z"/>
	<path class="st0" d="M245.8,131.3c-2.8,0.7-8.6-0.7-13.1-2.8c-4.5-2-14.1-3.6-28.2,9c7.7-4.1,16.1-7.8,19.8-7.8
		c3.6,0,12.3,7,24.4,4.8L245.8,131.3z"/>
	<path class="st0" d="M189.5,135.4l0.9,2.9l9.2-6l3.1,1.2l-5.2,3.8c2.3-0.4,7.4-4.2,9.7-5.1c2.3-0.9,6.4,0,6.4,0l3.2-1.7
		c0,0-2.9-3.3-7.3-1.2c-7.6,3.8-5.5-2.6-9.2,0.3c-2.6,2.1-7.8,5.5-7.8,5.5l0.3-2.8L189.5,135.4z"/>
	<path class="st0" d="M237.4,143.2c0,0,5.8-7,8.6-8.9c2.8-1.9,1.3,0.6,1.3,0.6l-8.9,8.1L237.4,143.2z"/>
	<path class="st0" d="M233.6,173.7c2.3-5.2,7-23.7,11.9-28.3c4.9-4.6,9.2-6.2,9.2-6.2l1,1.3c0,0-7,2.8-9.3,6c-2.3,3.2-7,15-7.4,19.5
		C238.6,170.4,233.6,173.7,233.6,173.7"/>
	<path class="st0" d="M259.2,146.1c0,0-7.1,4.5-10.2,9.2c4.6-1.7,3.9-4.1,7.1-5.8c3.2-1.7,5.1-2.9,5.1-2.9L259.2,146.1z"/>
	<path class="st0" d="M252.5,185.6l-3.1,3.1c0,0-1.3,4.5,0,8l3.1-2C252.5,194.6,249.8,192.2,252.5,185.6"/>
	<path class="st0" d="M242.8,204.7c0.4,0,3.6-3.6,3.6-3.6s30.1,8.9,34.9,10.9c4.8,2,2.9-1.9,2.3-5.1c-0.6-3.2-1-19.9,7.1-28.2l0.6,1
		c0,0-5.2,9-4.9,18.7c0.3,9.7,0.3,11,3.3,11.8c3.1,0.7,37.5,11.3,43.9,12.1c6.4,0.7,11.9,1.6,14.2-0.3c0,0-1.2,3.9-7.3,3.9
		c-6.1,0-45.2-8.3-52.9-13.4c0,0-1.9,4.8-5.8,3.5C277.9,214.7,242.8,204.7,242.8,204.7"/>
	<path class="st0" d="M278.5,180c-2.8,3-10.3,18.7-3.9,30.1l5.7,3.6l2.6-4.2c0,0-4.5-7.6-0.6-19.5c-2.3,1-6.1,12.1-2.9,20.9
		c0,0-0.7-3.6-2.8-2.8C277.1,195.2,271.1,203.2,278.5,180"/>
	<path class="st0" d="M332.7,194.6c0,0-3.1,2.2-3.1,2.3v0.1c0,0-21.6-9.6-27.7-15.8l2.9-2.9C304.8,178.4,314.4,188.7,332.7,194.6"/>
	<path class="st0" d="M238.4,113.3c0.7-2,3.3-3.2,4.8-3.5c1.5-0.3,3.9-0.9,4.9-2.3c0.9-1.5,0.4,1.5-2.1,3.1
		C243.5,112.1,238.4,113.3,238.4,113.3"/>
	<path class="st0" d="M323.4,139.4c-5.4-4.1-49.1-26.4-57.2-31.8c-8.1-5.4-15.7-13.5-21.4-20.6c-5.7-7.1-8.6-16.1-10-20.3
		c-1.5-4.2-6.1-9.6-9.2-15c-3.1-5.4-6.4-14.4-9-16.8c-2.6-2.5-12.3-14.1-13.8-15.7c-1.5-1.6-3.8-4.1-7.3-1.2s-2.2,5.1-2.2,5.1
		c-4.6,4.1-3.3,9.6,0.3,11.9c0,0-5.1,3.8-5.1,6c0,2.2,2.3,6.2,5.8,8.4c3.5,2.2,5.1,7.6,8.1,11.2c3.1,3.6,6.8,7.6,6.8,7.6l0.9,6
		l-4.6-3.6l0.4,7.4h3.1l0.4,1l-3.8,2.2l0.4,1.6l2.8-2.3l2.5,3.1l-3.2,5.5c-0.7-1-2.6-4.5-2.6-4.5s-2.8,6.5-1,7.1
		c1.7,0.6,1,8.3,2,11.8c1,3.5,7.9,12.2,12.1,15c6.7,4.4,5.8-0.3,14.5,4.5c4.7,2.6,19.7,16.9,27.6,26.9c9,11.3,25.5,23.6,31.5,34.9
		c7.4,13.8,8,19.8,25,28.8l3.1-3.1c-10.3-0.6-22.4-21.8-24.5-27.3c-2.2-5.5-3.9-7.3-7.4-10.6c-3.5-3.3-44.4-46.6-47.8-49.4
		c-3.3-2.8-5.5-3.6-5.5-3.6l5.1-1.9l14.1,13.9l2.3-2.5l-13.7-13.2l2-2.6c-2.7,3-7.3,3.9-10.2,3.8c-2.9-0.1-1.5-1.5-2.3-1.5
		c-0.9,0-1.6,1.9-5.1,1.6c-3.5-0.3-7-3.5-11-7c-4.1-3.5-7.1-9.2-7.3-11.2c-0.1-2-0.6-5.1,0.9-6.7c1.5-1.6,1.2-0.9,1.2-3.1
		s0.3-3.2,1-4.8c0.7-1.6,0.9-1.3,1.2-3.1c0.3-1.7,1-1.7,2-2c1-0.3,0.3,1.9,0.1,2.8c-0.1,0.9-1,0.7-1.2,1.3c-0.1,0.6,0.7,2.8,1.3,3.1
		c0.6,0.3,1.2,1.5,0.7,5.2c-0.4,3.8,4.1,8.4,4.4,11.8c0.3,3.3,2.3,7.3,2.3,7.3l2.5-3.1c0,0-1.6-2.5-1.2-3.3c0.4-0.9,5.5,1.2,1.2-1.3
		c-4.4-2.5-6.7-13.9-7-15.5c-0.3-1.6,1.6-0.7,1.5-1.6c-0.1-0.9-1-2.6-2.2-3.8c-1.2-1.2,0.3-3.2,0.3-3.2l5.1,1l2.5-3.2
		c0,0-4.9,0.6-8.3-0.7c-3.3-1.3-3.9-6.8-3.9-8.1s3.1-2.2,3.1-2.2s-0.7-0.6-3.3-0.4c-2.6,0.1-3.2-2.9-4.1-4.2c-0.9-1.3,2-1.3,1.6-2
		c-0.4-0.7-0.9,0.7-2.8,0.1c-4.4-1.2-6-7.6-6.5-8.9c-0.6-1.3,1.3-1,0.9-1.6c-0.4-0.6-1.2,0.4-2.9-0.4c-1.7-0.9-7.3-6.1-7.4-7.3
		c-0.1-1.2,3.8,0.1,5.8,0.3c2,0.1,16.7,16.6,20.2,21.2c3.5,4.6,9.3,6.7,10.7,8.1c1.5,1.5-0.1,2.9,0.6,3.2c0.4,0.2,1.4-1,2.3-2
		c1.6,2.8,2.9,5.3,4,7.5l-1,1.3c6.1,12.9,20.9,23.7,26.7,28c5.8,4.4,48.2,27.6,60.1,34.6c11.9,7,24,25.6,24,25.6l3.2-3.3
		C343.5,156.3,328.8,143.5,323.4,139.4 M196.7,19.5c0.7-0.4,5.1,4.2,5.9,5.2c0.8,1,4.6,5.5,0,1.2c-4.6-4.4-6.6-3.9-6.6-3.9
		C195.2,20.7,196.1,19.9,196.7,19.5 M211.4,48.2c-0.7-1.3,1-1.6,1-2.5c0-0.9-1.3,1.2-2.6,0.4c-1.3-0.7-8-8.9-7.8-10
		c0.1-1.2,2.3-3.2,0.4-1.7c-1.9,1.5-5.2-1.5-7.3-4.1c-2-2.6-5.1-5.1-0.7-5.7c7.8,6.2,16.4,14.7,24.1,22.8c2.1,4.9,5.5,11.1,9,17
		C222,62.1,212.1,49.4,211.4,48.2"/>
</g>
</svg>
