<?xml version="1.0" encoding="utf-8"?>
<!-- Generator: Adobe Illustrator 19.0.1, SVG Export Plug-In . SVG Version: 6.00 Build 0)  -->
<svg version="1.1" id="Слой_1" xmlns="http://www.w3.org/2000/svg" xmlns:xlink="http://www.w3.org/1999/xlink" x="0px" y="0px"
	 viewBox="0 0 266 297" style="enable-background:new 0 0 266 297;" xml:space="preserve">
<style type="text/css">
	.st0{clip-path:url(#SVGID_2_);fill:#616C90;}
</style>
<g>
	<defs>
		<rect id="SVGID_1_" x="0" y="0" width="264.7" height="297"/>
	</defs>
	<clipPath id="SVGID_2_">
		<use xlink:href="#SVGID_1_"  style="overflow:visible;"/>
	</clipPath>
	<path class="st0" d="M107.3,68.3c-9.7-5.9-12.5-1.2-17.4,3.8c-4.8,5.1-6.3,15.8-2.8,21.6c3.4,5.9,9.5,19.8,21.8,14.5
		c0,0-1,9.3-2.2,15.3c-1.2,6.1-1,20.8-0.2,22c0.8,1.2,11.9,9.3,19.8,12.7c7.9,3.4,22.4,8.9,26.3,8.3c3.8-0.6,11.7-6.7,12.3-17.2
		c0.5-9.5-1.9-8.6-1.4-11.1c0.6-2.8,0.7-0.8,2.8-2.4c3.2-2.4,0.8-8.9,0.8-8.9s3,0.4,3.2-3.4c0.1-2.4-0.6-4.6,0.4-5.5
		c1-0.8,4.6-0.7,6.9-2.4c3.4-2.6,3-6.5,2-9.1c-1-2.6-11.3-21-10.9-23.6c0.4-2.6,4.3-4.1,4.6-7.5c0.8-7.9-3.6-9.5-3.2-13.7
		c0.4-4.2,0-16-3.2-22.8c-3.2-6.9-25.1-39-72.1-37.6C56,2.7,50.1,34.6,46.3,44.7c-5.5,14.5-1.4,42.2,4.2,57.4c3.7,10,4.2,23,1,42
		c-3.2,18.7-0.1,5.8,0.6,2.4c1.2-5.7,5.1-31.9,2.6-39c-7.3-21-11.9-44.8-8.1-58.4C56.8,13.4,80.7,6.7,94.4,6.9
		c13.7,0.2,53.4,10.3,67.9,33.3c9.3,14.7,5.2,22.2,6.7,25.2c1.4,3,3.9,9.3,0.4,11.5c-4.4,2.8-2.4,10.9-1,14.3
		c1.4,3.4,9.5,17.2,8.9,18.6c-0.6,1.4-5.4,3.7-7.3,4c-3.8,0.6,0.2,7.1-1.4,7.7c-1.6,0.6-2.6,2.2-2.6,5.3c0,3,0,5.7-2.6,5.7
		c-2.6,0-2.8,5.7-2.6,7.3c0.2,1.6,3.4,10.1,2.2,12.1c-1.2,2-5.3,9.1-9.7,8.9c-4.4-0.2-44.8-14.5-45.6-20.8c-0.8-6.3,6.3-36.8,5.9-41
		c0,0-4,5.7-7.9,5.2c-3.8-0.4-19-11.5-18.6-19.8s7.5-14.1,10.5-13.7c3,0.4,6.5,1.8,8.1,3.4L107.3,68.3z"/>
	<path class="st0" d="M147.8,131.1l-0.7-0.3c-17.4-7.9-26.4-18.7-27-55.9l0-0.3l9-14.2l-5.6-14.1l0.8-0.4c20.8-8.9,34.6-5,42-2.9
		l-0.5,1.7c-7.1-2-20.2-5.8-40,2.4l5.3,13.3L122,75c0.6,35.8,8.7,46,25.3,53.7l8.1-10.9l14.4-0.4l0.1,1.8l-13.5,0.4L147.8,131.1z"/>
	<path class="st0" d="M5.9,296.7c-2.4-11.7-4.8-42.2-1.6-66.2c3.2-24,11.5-49.6,21.2-60.6c11.5-13.1,2.8-11.3,7.9-20.2
		c5-8.9,11.1-15.6,11.1-15.6c10.7,14.9,30.3,19.8,41.6,23.4c11.3,3.6,18.8,6.7,25.6,10.1c0,0,9.3-7.9,9.5-13.5l1.8,0.2
		c0,0-2.2,7.7-4.2,11.1c0,0,23.4,17.4,39,49.1c15.5,31.7,18.6,47.7,21.4,76.7l7.3,5.5l-14.9,0.2c0,0-5.5-12.1-27.1-28.7
		c-21.6-16.6-47.1-38.6-47.1-38.6l0.6-6.9l51.5,44l-9.3-13.7c0,0,11.9,8.3,13.7,11.1c1.8,2.8,5.7,11.7,8.5,14.3s13.9,15.8,13.9,15.8
		c1.2-30.5-11.1-59.4-20.8-77.2c-9.7-17.8-26.1-35.7-29.9-38.6c-3.8-2.8-11.7-3.8-16.2-5.7c-4.4-1.8-26.3-10.1-33.1-11.9
		c-6.9-1.8-29.5-12.5-33.1-18.8c0,0-7.3,7.7-8.7,12.3c-1.4,4.6-1.8,12.5-6.9,17.2c-9.1,8.3-21.9,49.7-22.4,58.6
		c-1.4,25.6-0.2,58.4,4.8,66.6L5.9,296.7z"/>
	
		<rect x="126.2" y="178.2" transform="matrix(0.999 4.370962e-002 -4.370962e-002 0.999 8.1087 -5.3816)" class="st0" width="1.8" height="9.1"/>
	<path class="st0" d="M149.4,255.4c-1.2-14.5-4.2-32.4-23.1-60.4l1.5-1c19.2,28.3,22.1,46.5,23.4,61.2L149.4,255.4z"/>
	<path class="st0" d="M144.9,259.1c-5-4-25.5-27.2-30.8-33.9l1.4-1.1c5.9,7.4,25.9,29.9,30.6,33.6L144.9,259.1z"/>
	<path class="st0" d="M156.9,275.1c-1-7.3-7.9-20.2-13.5-30.6c-2.3-4.4-4.4-8.2-5.6-10.9c-1.6-3.4-2.9-4.9-4.4-6.5
		c-2.4-2.6-5.1-5.6-9.2-17.6l1.7-0.6c3.9,11.7,6.4,14.4,8.8,17c1.5,1.7,3,3.3,4.7,7c1.2,2.7,3.3,6.5,5.6,10.8
		c5.6,10.5,12.7,23.7,13.7,31.2L156.9,275.1z"/>
	<path class="st0" d="M55.4,286.9c-9.1-7.5-20.1-25.1-20.6-25.9l1.5-1c0.1,0.2,11.3,18.1,20.2,25.4L55.4,286.9z"/>
	<path class="st0" d="M62.4,296.9c-0.3-0.2-27.5-15.8-34.3-19.4l0.8-1.6c6.8,3.6,34.1,19.2,34.4,19.4L62.4,296.9z"/>
	<path class="st0" d="M39.5,241.2l-1,6.9c0,0,12.7,29.3,15.4,36.2c2.6,6.9,5.9,12.3,5.9,12.3h9.1c0,0-9.7-5.7-16-22.4
		C44.4,251.6,39.5,241.2,39.5,241.2"/>
	<path class="st0" d="M163.9,229.9c11.5,14.7,22.4,30.1,33.1,34.9c10.7,4.8,67.7,31.9,67.7,31.9h-14.9c-20-10.1-53.9-24.2-60.8-31.3
		c-6.9-7.1-19-19-19-19L163.9,229.9z"/>
</g>
</svg>
