<?xml version="1.0" encoding="utf-8"?>
<!-- Generator: Adobe Illustrator 19.0.1, SVG Export Plug-In . SVG Version: 6.00 Build 0)  -->
<svg version="1.1" id="Слой_1" xmlns="http://www.w3.org/2000/svg" xmlns:xlink="http://www.w3.org/1999/xlink" x="0px" y="0px"
	 viewBox="0 0 157 275" style="enable-background:new 0 0 157 275;" xml:space="preserve">
<style type="text/css">
	.st0{clip-path:url(#SVGID_2_);fill:#616C90;}
</style>
<g>
	<defs>
		<rect id="SVGID_1_" x="-15" y="23" width="157" height="227.5"/>
	</defs>
	<clipPath id="SVGID_2_">
		<use xlink:href="#SVGID_1_"  style="overflow:visible;"/>
	</clipPath>
	<path class="st0" d="M126.1,36c-1.4-3.3-3.7-9.6-1.6-11.1c2.1-1.5,4.8,0.4,5.5,1.8c0.7,1.4,5.7,14.8,5.9,16.7
		c0.1,1.8-0.4,13.7-0.4,13.7l-2.2-6.7c0,0,1.2-4.4,0.7-8.1c-0.5-3.7-5-15.6-5.9-15.9c-1-0.3-2.2,1.5-2.2,2.7c0,2.5,2,8.2,2,8.2
		L126.1,36z"/>
	<path class="st0" d="M117.6,74.9c0,0,0.3-3.7-0.1-5c-0.5-1.3-1.7-2.9-2.7-3.3c-1-0.4-1.6-0.3-2.5-0.3c-0.9,0.1-1.6-0.5-2.2-0.4
		c-0.5,0.1-1.3,0.2-2.2,0.6c-1,0.4-3,0.2-3.6,0.5c-0.6,0.3-1.6,1.3-2.7,1.4c-1.1,0.1-3.3,0.2-2-0.8c1.3-1,9.6-6.5,11.3-6.5
		s10.8,1.2,11.5,1.2c0.7,0-0.1-0.2-0.8-1.2c-0.7-1-2.9-5.5-3.8-6.5c-0.9-1-3.1-2.7-3.1-2.7s-3.7,0.1-4.3-0.1
		c-0.6-0.2-2.9-1.5-2.9-1.5s-1.7,1.4-2.9,1.7c-1.2,0.3-3.9,0.6-4.4-0.9c0,0,7-2.9,8-3.5c1-0.7,11.2-0.4,11.9-0.2
		c0.7,0.2,9,10.5,9.6,10.6c0.6,0.1-9.6-12.3-10.7-12.6c-1.1-0.3-11.4-0.4-12.2-0.2c-0.7,0.2-7.5,3.5-8.3,3.4
		c-0.8-0.1,2.2,5.4,3.8,5.7c1.6,0.3,5.2-0.2,7.4-1.5c1.8,0.6,4.6,1.5,6,1.2c1.8,1,3.4,4.7,2.2,5.5c-1.4,1-4.7,0.3-5.7-0.1
		c-1-0.5-1.5-1.2-4.7,0.3c-3.2,1.5-10.2,5.5-10.2,6.2c0,0.7,1.9,4.4,3.7,4.8c1.8,0.3,4.4-0.8,5.2-1.8c1.9,0.7,4.6-0.1,5.4-0.8
		c1.4,0.3,3.2,0.8,4,0.5c-0.2,1.6-0.1,3.7,0.3,4.4C116.3,73.6,117.6,74.9,117.6,74.9"/>
	<path class="st0" d="M111.5,59.7c-0.2-1.9,0.1-4.5,1.4-4.8c1.4-0.3,4.4,0,5.7,2.3c1.2,2.3,0.2,2.6-0.2,1.3c-0.4-1.3-2.9-2-3.5-1.8
		c-0.6,0.1-1.5,2.8-0.6,3.6L111.5,59.7z"/>
	<path class="st0" d="M127.2,63.6l1.8,1.9l-0.8,3.6l-1.6-1.7C126.5,67.4,127.5,65.3,127.2,63.6"/>
	<path class="st0" d="M112.9,67.6c-0.2,1.9-0.7,6.5-0.1,9c0.6,2.5,2,4.8,2.5,6.7c0.5,1.8,2,6.5,6,10.4c0,0,0.1,11.2,0.2,11.3
		c0.1,0.1,1.9,1.8,1.9,1.8s-0.2-11.4-0.5-12.6c-0.3-1.2-2.9-2.7-4-4.6c-1.1-1.9-3.9-9.7-4.2-11.2c-0.2-1.5,0.1-10.4,0.1-10.4
		L112.9,67.6z"/>
	<path class="st0" d="M130.7,90c6.4,4.8,1.2,8.5,5,11.1c0,0-0.2,6-0.1,6C128.7,104.8,136.3,100.3,130.7,90"/>
	<path class="st0" d="M118.8,90.7c-3.2,15.6-8.8,43.5-15.3,48.8l1.2,2.8c10-9.2,14.8-46.3,16-49.5L118.8,90.7z"/>
	<path class="st0" d="M113.4,30.8c-1,1-1,2.5,0.7,3.9c1.7,1.4,2.6,1,3.5,1.8c0.9,0.8,1.4,2.2,3.1,3.3c1.7,1.2,4.6,3.9,4.7,4.7
		c0.1,0.8-0.1,7.6,0.7,8.9l-2.5-2.7c0,0-0.5-6-0.1-7.6c-2.3-1.2-5.2-5-5.2-5s-3.2-1.8-4.8-2.9c-1.6-1.1-4.4-5.3-2.6-6.6
		c1.8-1.3,4,0.1,5.7,0.9c1.6,0.8,3.6,1.1,4.7,2.3c1.1,1.2,4.9,3.7,5.6,4.2c0.7,0.5,5.2,4.3,5.6,5.9c0.4,1.6,0.6,6.3,1.4,8
		c0.7,1.8,2.7,6.1,2.8,8.6c0.1,2.5,0.3,8.4,0.3,13.7c-0.1,5.3,0.7,16.2,0.7,19.8c0,3.5-1.8,27.8-0.8,31.7l-2.4,0.5
		c0,0,0.3-18.3,0.7-24.5c0.4-6.3-0.3-16.8-0.3-24.1c-0.1-7.4,0.1-19-1.1-21.6c-1.2-2.6-2.7-8-2.8-10.4c-0.1-2.3-0.3-4.4-3.7-6.6
		c-3.4-2.2-5.4-4.6-7.4-4.6c-2-0.1-1.4-1.2-3.7-1.6C113.7,30.4,113.4,30.8,113.4,30.8"/>
	<path class="st0" d="M73.1,122.3c4.4,2.2,10.3,4.8,11.2,5.4c0.9,0.6-1.4,2.2-2.6,0.5C80.5,126.6,73.1,125.1,73.1,122.3"/>
	<path class="st0" d="M72,137.4l2.1,2.2c4.4-6.5,5.3-7.8,7.6-9c2.2-1.2,4.1-1.5,4.8-1c0.7,0.5,0.2,2.6,0.2,2.7
		c0,0.1,2.2,1.8,2.2,1.8s0.5-3.6-1.8-5.4C84.8,127,78.9,124.6,72,137.4"/>
	<path class="st0" d="M53,158.2c2.2,1.5,7.4,4,8.6,4.3l0.8,1.4C62.4,163.9,53.5,162.2,53,158.2"/>
	<path class="st0" d="M98.9,139.9l-13.7-9.3c-8.8,7.5-10.9,12.1-12.3,16.5c-1.4,4.4-2.9,15.3-2,18.7c0.9,3.5,2.8,7.2,4.4,6.9
		c0,0,1.6-0.1,1.3-2.1l5.5,3.7l1-0.7c0,0-7.5-5.4-8.3-5.6c-0.8-0.2-1,0.5-1,0.5s1.5,1.6,1,1.8c-0.5,0.1-1.2,1.3-1.9-2.4
		c-0.7-3.7-0.5-13.3,2.7-19.8c3.3-6.4,6.7-12.1,10.8-14.8l12.3,7.2L98.9,139.9z"/>
	<path class="st0" d="M58.8,142.8c-1.4,6.2-0.4,13.9,0.9,16.9c1.3,3,3.8,6.5,9.3,9.6l-1.2-1.8c0,0-5.2-2.9-6.5-8.1
		c-1.2-5.2-1.8-11-0.2-14.1L58.8,142.8z"/>
	<path class="st0" d="M61.9,155.4c0,0,2,16.7,13.8,17.4l-0.1-1.5c0,0-4.5,1.1-7.9-3.9c-1.8-2.7-3.2-7.4-3.3-9.3L61.9,155.4z"/>
	<path class="st0" d="M90.8,167.2c-0.6-5.2,0.7-7.8,2.6-10.3c1.9-2.5,2.2-4.1,2.7-9.2c0.5-5.1,1.2-7.9,2.2-9c1-1.1,2.7-3,5.7,1
		c2.9,4,1.3,5.6,1.1,7c-0.2,1.4-0.1,2.2,1,1.4c1.2-0.8,3.8-3.3,6.1-4.4c2.2-1.1,4.1-2.8,8.3-7.7c4.2-4.9,11.5-13.9,14.7-13.1
		c3.2,0.7,4.5,2.5,4.2,4.5c-0.3,2-10.1,14.6-12.1,16.3c-1.9,1.7-0.1,1.6,1.6-0.1c1.8-1.6,4.6-4.3,5.4-6.2c0.9-1.9,2.6-3.5,3.9-3.5
		c1.3,0.1,3.6,1.6,3.4,4.8c-0.2,3.1-2.4,11.6-12.6,18.1l-1.8-1.8c0,0,8.4-7.1,8.9-7.8c0.5-0.7,0-0.3,0-0.3l-1.4-2.5l2.2,1.3l2.7-5.2
		L138,138l1.8,1c0,0,0.6-2.1-0.4-2.7c-1-0.6-2.8,1-3.2,2.7c-0.4,1.8-1.3,1.2-2.9,4.5c-1.6,3.3-2.7,1.4-5,4c-2.3,2.6-6.2,1.1-5.9-0.6
		c0.3-1.7,4.2-5.9,5.4-6.9c1.2-1-2.7-1.8-2-3.2c0.7-1.4,1.5-0.5,1.7,0.6c0.2,1.1,0.5,1.7,1.2,1c0.8-0.7,5.5-6.9,5.4-7.4
		c-0.1-0.5-1.9-1.7-1.9-1.7s0.3-1,0.7-0.5c0.4,0.4,1.1,1.6,2,1c0.9-0.5,3.2-3.5,2.5-4.6c-0.8-1-3.7,0.7-5.7,2.9
		c-1.9,2.2-5.4,5.9-6.9,7.4c-1.4,1.6-5.7,7.3-7.4,8.6c-1.7,1.4-2.9,1.4-5.1,2.9c-2.2,1.5-3.7,3.5-5.2,3.5s-3.5-1.2-3.9-2.2
		c-0.9-2.5,1.3-6.5,0.5-7.5c-0.8-1-1.8-1.9-2.9-0.3c-1.1,1.6-1.5,4-0.6,4.6c0.9,0.7,0.3,0.3-0.8,1.2c-1.2,0.9-2.2,6.7-2.1,9.1
		c0.1,2.4-4.8,6.2-3.7,9.9L90.8,167.2z"/>
	<path class="st0" d="M119.3,150.8l1.4,2.1c0,0-1.7,2.7-2.7,2.5c-1-0.2-2-1.8-2-1.8S119.5,153.5,119.3,150.8"/>
	<path class="st0" d="M124.5,157.5c0,0,1.2,1.4,1.1,2.1c-0.1,0.7-1.2,1.4-2.1,1.3c-0.9-0.1-1.6-1.6-1.6-1.6S124.5,160,124.5,157.5"
		/>
	<path class="st0" d="M128.1,162.7c0,0,6.8-4.8,7.4-6.9c0.6-2.1,3-5.8,0.7-5.9l2.3-3.5c0,0,1.4,4.7,0.1,8.7c-1.3,4-9.2,9.5-9.2,9.5
		L128.1,162.7z"/>
	<path class="st0" d="M125.2,171.9c0-0.1-1,5.7-3.1,6.9s-6,2.8-8.4,1.4l-5.4,2.9c0,0,3.5,1.1,6.1,0.7c2.6-0.4,4-1.2,6.6-1.6
		c2.6-0.3,4-1.6,4.7-3.5c0.7-2,4-9.3,4-9.3L125.2,171.9z"/>
	<path class="st0" d="M27.4,195.2c6.9-1.5,21-4.6,28.7-6.3c7.8-1.7,11.7-3.7,18.5-9.6c6.8-5.9,18.1-15.7,18.1-15.7l2.4,2.6
		c0,0-10.5,9-16.3,13.7c-5.8,4.7-12.9,9.7-16.4,10.4c-3.5,0.7-32.9,7.4-32.9,7.4L27.4,195.2z"/>
	<polygon class="st0" points="29.8,218.3 31.6,219.8 60.5,197.4 58.8,195.7 	"/>
	<path class="st0" d="M16.4,242.6c-2.9-4,5.2,5.2,13.1,1.6c7.9-3.7,22.3-12.5,28.9-17.3c6.6-4.8,10.5-7.2,14.6-12.1
		c4.2-4.9,11.5-13.3,16-17.6c4.5-4.3,12.7-12.5,15.9-14.2c3.1-1.8,6.9-3.1,10.4-5.9c3.5-2.7,7.2-5.7,10.1-7.3c2.9-1.6,9.7-6.1,8-9.1
		l2.3-2.5c0,0,0.7,4.8-0.1,6.6c-2,4.4-5.3,4.4-8.5,7.2c-14.2,12.1-16.1,8.7-25.8,18.1c-6.3,6.1-3.7,2.9-8.9,8.1
		c-5.1,5.2-19.4,21.5-24.9,25.7c-5.5,4.2-28.5,18.9-33.2,21.5C29.6,248,22,250.3,16.4,242.6"/>
</g>
</svg>
