<?xml version="1.0" encoding="utf-8"?>
<!-- Generator: Adobe Illustrator 19.0.1, SVG Export Plug-In . SVG Version: 6.00 Build 0)  -->
<svg version="1.1" id="Слой_1" xmlns="http://www.w3.org/2000/svg" xmlns:xlink="http://www.w3.org/1999/xlink" x="0px" y="0px"
	 viewBox="0 0 265 297" style="enable-background:new 0 0 265 297;" xml:space="preserve">
<style type="text/css">
	.st0{clip-path:url(#SVGID_2_);fill:#616C90;}
</style>
<g>
	<defs>
		<rect id="SVGID_1_" x="0" y="-3" width="263.5" height="297"/>
	</defs>
	<clipPath id="SVGID_2_">
		<use xlink:href="#SVGID_1_"  style="overflow:visible;"/>
	</clipPath>
	<path class="st0" d="M177.3,163.1l-0.3-0.2c-34.8-19.4-27.3-45.1-15.8-71.8l0.1-0.2l12.5-11.7l-1.8-22.1l0.6,0
		c21.8,1.8,37.8,14.4,40.9,17.6l-0.8,0.7c-3-3.2-18.4-15.3-39.6-17.2l1.7,21.4l-12.8,12c-11.3,26.2-18.6,51.2,15,70.2l10.4-9.4h12.1
		v1.1H188L177.3,163.1z"/>
	<path class="st0" d="M218.6,168.1c-1.7,0.4-2.6,0.5-0.3-0.7c2.4-1.2,5.6-3.9,6.5-5.6c0.8-1.7,2.8-1.8,0.7,0.8
		C223.3,165.3,220.2,167.7,218.6,168.1"/>
	<path class="st0" d="M208,172.4c-1.7,0.5-2.6,0.5-0.3-0.7c2.4-1.2,5.6-3.9,6.5-5.6c0.8-1.7,2.8-1.8,0.7,0.8
		C212.8,169.5,209.7,171.9,208,172.4"/>
	<path class="st0" d="M9.9,319.8c0,0,12.1,1.9,19-5c-4.5,6.7-16.8,8.6-22,8.2L9.9,319.8z"/>
	<path class="st0" d="M28.9,322.6l-2.6,2.4c-10.6,1.5-13.6-1.7-16-2.4l2.4-3.2C12.7,319.4,18.8,324.6,28.9,322.6"/>
	<path class="st0" d="M3.5,323.5c11.2,10.1,9,24.9,12.7,28.9c3.2,3.4,8.2,1.1,18.5,4.1c5.8,1.7,23.7,8.6,28,8.6l-3.2,3.7
		c0,0-22.2-6.7-25.4-8c-3.2-1.3-16.7-3-20-4.3c-5.4-2.2-2.4-22.4-14-29.8L3.5,323.5z"/>
	<path class="st0" d="M20.9,356.7c2.6,3.2,12.1,12.9,39.2,19.6l3.9-3.2c0,0-29.3-8.6-34.7-15.1L20.9,356.7z"/>
	<path class="st0" d="M100.3,403.3c-4.7-2.6-13.8-10.1-19.8-14.4c-6-4.3-20-11.4-24.8-15.1l-15.5-7.5l-3.7,2.4
		c28.2,14.7,48.9,30.6,60.4,37.9L100.3,403.3z"/>
	<path class="st0" d="M89.7,269.4c-2.8,10.8-12.1,43.8-20.3,48.9c-8.2,5.2-11,8.2-11,8.2l-1.7,2.2c0,0,17-9.1,24.1-25.4
		c7.1-16.4,10.3-31.9,10.3-31.9L89.7,269.4z"/>
	<path class="st0" d="M117.9,309.7l-3.7,2.6c0.2,15.3,0.2,34.9-7.8,44C119.7,346.4,116.4,317,117.9,309.7"/>
	<path class="st0" d="M127.4,360c0-14.9-0.9-32.1-2.6-36.9c9.3-2.2,14.2,0.9,13.6,32.6l-3.7,4.3c1.5-22.6-1.7-32.6-6.5-34.3
		c0,0,2.6,25,2.2,31.7L127.4,360z"/>
	<path class="st0" d="M86.2,253.7c0,0,4.7,11.6,7.8,16.6c3,5,36.4,53.5,36.4,53.5l-4.7,1.5c0,0-17-25-23.1-33.6
		c-6-8.6-14-18.5-20.5-35.8L86.2,253.7z"/>
	<path class="st0" d="M86.2,198.2c11,25.4,0.9,51.7-0.6,57.1h-2.4c0,0,11.4-32.3-0.6-53.5L86.2,198.2z"/>
	<path class="st0" d="M5.8,153.4l12.3-11.2c0,0,83,44.6,91.4,67.5l-5.2,9.9c0,0-4.1,47.2-7.8,57.1l-1.9-3.2c3.7-16,6.9-41,6.7-50.5
		l5.2-10.1c-7.8-17.7-69-55.4-91.6-66.4L5.8,153.4z"/>
	<path class="st0" d="M186.7,206.7c-7.3,7.3-10.8,13.4-10.8,17.2c0,3.9,2.2,7.3,1.7,10.1c-0.4,2.8-31.9,75.9-31.9,75.9l3-1.9
		c0,0,27-63.6,28.7-67.7c1.7-4.1,4.7-9.7,2.8-12.3c3.7,1.3,3.9-5.2,3.9-6.9c-4.3,2.4-1.1,5.2-4.1,5.8
		C178.9,225.4,177.4,216.4,186.7,206.7"/>
	<path class="st0" d="M200.7,209.7c-6.9,6.9-6.2,15.1-4.5,20.9l3.2-2.6C199.4,228,194.9,222.8,200.7,209.7"/>
	<path class="st0" d="M250.7,170c0,8.4-0.4,16.2,0.4,18.5c0.9,2.4,0.5,5.6-2.2,10.8c-4.7,9.1-29.8,27.6-33.4,38.4
		c-3.1,9.1-4.2,19-5.4,26.5c-2.6,15.7-1.7,41.8-1.9,59.5l-3,3c0,0,0-30.8-0.2-36.2c-0.2-5.4,1.7-19.8,2.6-26.9
		c0.9-7.1,3.1-19,4.7-23.3c3-8,16-20.9,22-26.3c5.9-5.3,14.9-12.1,14-18.5c-0.9-6.5-1.1-22.9-1.1-22.9L250.7,170z"/>
	<path class="st0" d="M184.6,217.6c1.7-15.1,4.3-24.1,12.3-32.8c8-8.6,18.3-14.7,23.1-15.5c4.7-0.9,10.1-4.1,16-8.8
		c5.8-4.7,15.3-9.9,21.1-7.8c5.8,2.2,6.5,6.1,1.5,11.9c-6,6.9-22,15.1-29.8,25.4c1.3-3.2,5.2-8.8,12.1-13.6
		c4.6-3.2,14.4-8.4,17.2-14.7c2.1-4.8-3.6-6-7.8-6c-6.3,0-18.1,7.1-22,11.4c-3.9,4.3-9.9,4.7-14.4,6.3c-4.5,1.5-17.9,11-20.3,17.2
		c-2.4,6.3-5.6,23.7-5.6,23.7L184.6,217.6z"/>
	<path class="st0" d="M240.4,202.1c3-6,6-3,8.6-5.6C246.2,202.3,243.4,199.7,240.4,202.1"/>
	<polygon class="st0" points="230.5,187.2 230.9,192 233.9,188.5 233.9,183.4 	"/>
	<path class="st0" d="M234.6,182.5c0,0,4.7,1.7,5.2,2.8l2.4-1.9l-4.5-3L234.6,182.5z"/>
	<path class="st0" d="M241.5,163.3l0.6,2.6l2.8-2.8c0,0,2.2,3,2.2,5l-4.7,3.9c0,0-1.7-1.7-3-5.8L241.5,163.3z"/>
	<path class="st0" d="M253.3,154.9c2.2-0.1-4.7,2.6-4.5,3.5c0.2,0.9,3.4,6,4.5,6.3c1.1,0.2,2.8-0.2,2.8-0.2s-2.6,2.2-3.7,2.6
		c-2.4,0.9-4.3-2.8-6.5-5.6C244.5,159.4,249.5,155.1,253.3,154.9"/>
	<path class="st0" d="M242.3,156.4c-2.6-3-9.6-14.6-17.5,0.1c-6.5-6.6-10.9-6.1-14-1c-5.8-4.5-7.9,0-7.9,0s-4.1,7.3-2.4,10.8
		c1.7,3.4,4.7,11.2,4.7,11.2l5.2-3.2c0,0-8-12.1-7.5-14.7c0.4-2.6,1.1-3.3,3.6-1.3c3,2.4,5.2,11.4,10.4,12.5l4.3-0.6
		c0,0-1.5-1.7-4.5-5c-3-3.2-5.5-9.6-3.9-10.3c2.5-1.1,9.7,4.4,14.5,12.3l5-3.7c0,0-6-8-3.4-10.6c2.6-2.6,7.8,3.5,9.8,6.3
		L242.3,156.4z"/>
	<path class="st0" d="M203.5,170.3c-1.3,0.8-2.6,0.8-3.7,1.4c-1.1,0.6-1.7,1.5-2.9,2.1l-1.3,0.6c0,0-1.2,1.9,0.7,0.9
		c1.9-1,3.8-1.1,4.4-1.5c0.6-0.4,1.6-2.2,2.5-2.6C204.1,170.8,203.5,170.3,203.5,170.3"/>
	<path class="st0" d="M124.1,175.5c-3.1,2.8-3.1,3.7-5.3,5.6c-2.1,1.8-7.3,2.7-10.7,5.6c-3.4,2.9-8.1,7.9-9.5,10.2
		c-1.4,2.3,0.4,4,1.4,1.1c1-2.9,2.5-5.6,4.7-7.5c2.2-1.9,6.9-3.5,9.9-5.1c2.9-1.6,8.4-7.5,9.9-9.5
		C125.8,173.8,124.1,175.5,124.1,175.5"/>
	<path class="st0" d="M137.1,84.7c-0.4-6.7-9.7-20.1-24.9-5.9c-12,11.3-6.4,22.3-6.5,27.7c-0.1,7.4,2,9,8.2,20
		c4.3,7.4,12.1,2.9,13.6,1.7c-4.4,8.6-3.3,11.8-7.6,18.2c-4.3,6.4-11.6,16.2-7.6,21.6c4,5.3,22.1,15,27,18.4
		c4.9,3.3,25.7,17.2,29.9,16.5c4.3-0.7,12.9-5.7,15.2-16.5c2.3-10.8,0.8-11.2,3.3-12.1c2.5-0.9,4.7-0.5,5.3,0.5
		c0.7,1.1,0.4,8.5,3.1,11.2l3.5-3.3c-1.7-3.7-2.8-7.8-2.5-10.2c2.8-1.2,4.1-5.9,4-6.9c-0.1-1.1,0.5-5.7,1.3-7.2
		c0.8-1.5,1.7-3.1,1.7-3.1l-1.3-2.7c0,0,2,0.3,3.5-0.7c1.5-0.9,6.1-4.8,6-8.4c-0.1-3.6-3.9-18.6-4.8-23c-0.9-4.4-1.9-8.1-1.2-8.9
		c0.7-0.8,5.3-2.5,8.5-7.3c0.7-7.3,0.3-23,1.1-31.9c0.8-8.5-6.8-23.7-10.2-28.9c-7.4-11-23.3-22.3-39.9-29.3
		C149.4,7.4,116.2-3,91.2,23.9c-8.6,9.2-24.6,35.5-23.3,55.2c0.7,10.1-3.5,16-7.1,21.7c-3.3,5.3-10.5,22.1-17.4,29.3
		c-2.2,2.3-3.7,6.2-8.4,9c-4.9,3.1-10.9,5.4-13.3,6.1l1.3,1.7c3.8-2.2,7.3-3.1,10.2-5.2c3.8-2.7,6.9-6.7,10.8-11
		c8-8.8,13.4-20.4,15.8-25.1c2.4-4.8,11.8-18.9,11.4-22.3c-2.9-31.8,16.8-55.3,20.4-58.8c25.9-25.8,63.1-10,71.7-6
		c21.5,9.9,37.4,17.1,47.4,46.8c3.6,10.8,0.8,14.8,0.8,24.2c0,7.6-0.3,17.3-0.3,17.3c-5.1,3.2-8.7,7.6-8.6,8.5
		c0.4,8.1,7.2,28.6,6.7,31c-0.5,2.4,0.3,3.2-5.6,2.7c2.7-2.3,0.9-1.3,0.9-1.3s-5.2-1.6-7.8-1.1l-2.8,2.9l3.9,0.4l-1.9,1.3l1.2,0.4
		c0,0-0.3,2.1,0.8,3.2c1.1,1.1,2.9,3.1,2.4,5.2c0,0-2.4,0.7-3.5,1.7l-2.3-0.1l-3.2,3.5c0,0,7.4-0.9,5.5,6.4c-4-1.5-7.3-0.8-10.1,2
		c-4.8,4.8-3.9,7-4.9,12.1c-1.2,5.9-2.1,14.4-11.6,13.4c-2.3-0.2-15.2-8.2-28.5-16.5c-12.8-7.9-25.8-15-26.9-19.7
		c-1.7-7.6,8-15,16.5-39.9c-2.4,2.5-4.8,4.2-8.5,4.1c-6.4-0.1-5.3-4.8-10-10.9c-5.3-7-3.3-11.4-4.7-16.6
		c-3.1-11.8,1.6-17.9,6.4-21.7c4.1-3.2,18.6-3.2,18.8,10.5L137.1,84.7z"/>
	<path class="st0" d="M191.9,143.3l-3.1,3.3c0,0-0.4,3.3,3.1,3.3l2.8-3.2C192,146.3,192.7,145.3,191.9,143.3"/>
	<path class="st0" d="M193.7,142.3l2-2.3c0,0,5.2,1.5,10.1,0.1l-2.3,2.7C203.6,142.8,199.2,144,193.7,142.3"/>
</g>
</svg>
