<?xml version="1.0" encoding="utf-8"?>
<!-- Generator: Adobe Illustrator 19.0.1, SVG Export Plug-In . SVG Version: 6.00 Build 0)  -->
<svg version="1.1" id="Слой_1" xmlns="http://www.w3.org/2000/svg" xmlns:xlink="http://www.w3.org/1999/xlink" x="0px" y="0px"
	 viewBox="0 0 263 242" style="enable-background:new 0 0 263 242;" xml:space="preserve">
<style type="text/css">
	.st0{clip-path:url(#SVGID_2_);fill:#616C90;}
</style>
<g>
	<defs>
		<rect id="SVGID_1_" x="1" y="0" width="262.1" height="240.1"/>
	</defs>
	<clipPath id="SVGID_2_">
		<use xlink:href="#SVGID_1_"  style="overflow:visible;"/>
	</clipPath>
	<path class="st0" d="M11.6,88.2C7.2,78.9,26.1,64.1,35,56.8c1.1-0.9,2.2-1.5,2.9-2.1l0.7,0.5c-0.7,0.6-1.7,1.5-2.9,2.4
		c-11.6,8.4-26.6,21.2-21,31.2L11.6,88.2z"/>
	<path class="st0" d="M118.1,90c-9.3-2.7-4.9-20.5-5.6-27l2.1,0.3c-0.1,0.9-4.3,21.6,4.1,25.4L118.1,90z"/>
	<path class="st0" d="M88.6,94.6l-0.8-0.4c-0.2-0.1-24.9-10.5-44.9-3.2l-0.5-1.4c18.4-6.7,40.6,1.1,45.2,2.9l5.8-26.4l0.5,5.5
		L88.6,94.6z"/>
	<polygon class="st0" points="77,5.5 76.3,5.1 78.6,2.1 79.8,3 	"/>
	<polygon class="st0" points="72,12.3 71.3,12 73.6,8.9 74.8,9.8 	"/>
	<polygon class="st0" points="83.1,17.9 82.5,17.6 85.6,12.6 88.3,13.5 	"/>
	<polygon class="st0" points="88.4,8.5 87.4,7.7 92.4,3.6 93.3,4.8 	"/>
	<path class="st0" d="M40.2,87.9c-3.3-3-13.1-7.1-20.4-7.7l2.8-2.3c5.9,1,15.7,4.3,19.7,7.8L40.2,87.9z"/>
	<path class="st0" d="M40.2,100.4C33.3,89.7,13.8,90.2,7.9,90.2l2.4-2.9c11,0,25.6,1,31.5,9.5L40.2,100.4z"/>
	<path class="st0" d="M100.4,88.4c-7.5-4.3-8-23.4-7.7-27.6l3.1,0.9c-0.7,7.5-0.2,16.4,7.1,24.5L100.4,88.4z"/>
	<polygon class="st0" points="13.4,92.2 6.1,92.5 8.8,89.4 15.1,90.2 	"/>
	<path class="st0" d="M39.2,104.7c-0.5-1.9-6.6-6.7-9.6-8.2l2.3-1.9c1.4,0.7,7.9,3.3,9,7.2L39.2,104.7z"/>
	<path class="st0" d="M39.5,108l-2.3,2.7c1.1-7.9-8.2-11.6-15.5-11.9l2.1-2.1C28.1,96.5,40.4,100.3,39.5,108"/>
	<path class="st0" d="M98.4,134.3c-32.9-20.8-52.4-17.5-68-14.8c-1.8,0.3-4.9,0.8-6.6,1l2.9-3.2c1.7-0.2,1.4-0.5,3.2-0.8
		c16.2-2.7,38-6.2,71.9,15.2L98.4,134.3z"/>
	<path class="st0" d="M104.7,109.4c-7.3-6.7-10.9-12.4-4.5-20.1l0.1,1.6c-1.8,8.3,0.5,9.7,7.1,15.8L104.7,109.4z"/>
	<path class="st0" d="M13.8,95.5l-7.5,0.1c0,0-2.5-0.2-4.4,3.4L1,98.2c1-3.1,4-4.3,4-4.3l0.8-2.2l10.7,1.1L13.8,95.5z"/>
	
		<rect x="119.9" y="30.1" transform="matrix(0.6931 0.7208 -0.7208 0.6931 61.7605 -81.6973)" class="st0" width="13.8" height="3.1"/>
	<polygon class="st0" points="116.1,23.9 112.9,15.6 116.2,16.1 118.5,20.7 	"/>
	<polygon class="st0" points="110.2,29.9 105.4,29.7 107.3,27 112.4,27.9 	"/>
	<path class="st0" d="M239.3,121.2l-0.8-0.5c2.5-2.4,3.9-6.1,3.8-8.8c-0.2-7.5-10.8-15.2-17.9-22.4c-4.1-4.2-8.3-7.1-10.1-9.9
		l2.6-1.6c1.5,2.4,5.8,5.3,9.5,9.2c7.4,7.9,18.2,15.6,18.5,24.5C245,115.3,242.4,118.2,239.3,121.2"/>
	<path class="st0" d="M133.8,144.1c-15.4-26-39.9-17.3-39.9-15.7l-1.5-0.9c4.6-6,33.5-8.7,43.8,13.9L133.8,144.1z"/>
	<path class="st0" d="M150.4,167.1c-6-23.8-16.5-35.1-22.4-38.6c-4.4-2.6-8.6-2.8-10.5-2.3l-5.1-1.6c3.9-3.7,11.7-2,17.2,1.3
		c6.3,3.8,17.8,12.2,24.1,37.1L150.4,167.1z"/>
	<path class="st0" d="M159.6,131.5c-12-17.4-25.1-10-32.7-6.4c-0.7,0.3-4.1-0.4-3.4-0.7c7.8-3.7,26.2-13.5,38.7,4.1L159.6,131.5z"/>
	<path class="st0" d="M174.7,147.7c-6-14.7-13.4-24-18.2-26.4c-4.9-2.5-7.8-1.6-8.9-1.3l-4.2-0.9c2.9-4.5,11.2-2.6,15.2-0.6
		c5.3,2.7,10.9,10.5,18.4,26.1L174.7,147.7z"/>
	<path class="st0" d="M179,143c-11.1-17.6-19.7-26.1-25-24.3l-2.5-1.5c5.7-6.6,16.9,3.1,29.4,22.9L179,143z"/>
	<path class="st0" d="M202.6,170.9l-2.9,3.2c7.8-40.9-26.9-57.8-37.2-61.4l2.1-2.7C172.9,111.5,210,130.6,202.6,170.9"/>
	<path class="st0" d="M196.7,153.7c0.1,4.2,0.6,7.4,0.5,11.6c-0.1,2.8-0.2,5.9-1.8,8.3c-0.2,0.4,1.2,0.5,1.5,0.2
		c1.4-2.2,1.6-4.9,1.8-7.4c0.3-4.5,0.5-9.8,0.5-14.3C199.1,151.6,196.7,153.7,196.7,153.7"/>
	<path class="st0" d="M191.1,183l-1.2-1c3.4-3.9,1.9-21,1.8-22.1l2.1-1.6C193.9,159.4,194.9,178.7,191.1,183"/>
	<path class="st0" d="M150.2,204l-0.4-1c4.3-3.1,5.1-20,5.1-20l2.5-1.4C157.3,181.7,155.1,200.4,150.2,204"/>
	<path class="st0" d="M124.6,240.1l-0.5-1c7.1-5.2,14.7-23.8,16-30.1c0.5-2.3,0.5-20.3,5.4-22.9l0.7,0.4c-3,4.8-1.8,15.1-4,22.6
		C140.3,215.3,132.2,234.4,124.6,240.1"/>
	<path class="st0" d="M169.6,114.1c6.2-5.5,21.1-5.3,30.9-3.5c1,0.2,7.3-5.5,6.2-5c-5.4,2.5-24.3-2.1-39.3,7
		C165.5,113.7,169.6,114.1,169.6,114.1"/>
	<path class="st0" d="M122.1,63.4c-1.3,2.4-3.2,4.3-3.4,7.1c-0.1,2.1,0.6,4.5,1.1,6.5c0.8,2.9-0.2,5.6-1,8.3
		c-0.9,2.8-1.3,5.8-1.7,8.7c-0.7,6-0.2,14-2.4,19.9c-1.6,4.2-13.6,0.7-18.3-1.2c-0.6-0.2-1.9,3-0.8,3.4c5.2,2,10.7,3.4,16.1,1.8
		c3.6-1.1,6.6-6.4,7-11.4c0.7-8.3,0.6-16.2,3.4-24.2c0.9-2.7,1.1-5.1,0.1-7.8c-2.1-5.3-0.8-6.7,1.7-11.3c0.3-0.6-1.9-0.7-2.2-0.1
		L122.1,63.4z"/>
	<path class="st0" d="M93.8,128.1l-2.3-0.4c0.1-0.8,0.3-1.6,0.5-2.5c1.3-7,2.5-13.9,6.2-15.8l-0.1,1.6c-1.8,1.7-3.1,10.1-3.9,14.6
		C94.1,126.4,93.9,127.3,93.8,128.1"/>
	<path class="st0" d="M100.4,88.4l1.1-3c1.3-0.8,2-1.7,0.1-3.5l2.7-2.7C105.5,81.5,106.2,85.7,100.4,88.4"/>
	<path class="st0" d="M33.7,117.8l-0.5-1.2c8.4-8.6,7.6-29.6,7.2-41.9l-1.3-7c-0.7,1.1-4.8-4.6-1.2-6c0,0-3.3-11.1-0.5-23.2
		C41.3,22.1,58.7,11.9,65.1,8l-0.3,1.5C55.9,14.1,42.4,23.3,39.7,39c-1.6,9.3-0.3,15.5,1.1,22.1C41.6,65,43,75.3,43,75.3
		C43.5,87.9,44.5,106.8,33.7,117.8"/>
	<path class="st0" d="M140,212.8l0.4-1.3c18.7-16.3,19.5-12.4,22.9-14c1-0.5,4.2-3,5.5-4.2c1.6-1.3,11.5-6.2,13.2-7
		c7.2-3.3,18-8.4,19.3-17.9l0.1-0.6l0.6-0.3c0.1-0.1,15-5.6,31.3-19.5c19.6-16.7,27.1-30.4,24.4-38.8c-3.1-9.4-7.8-12.1-16-17.8
		c0,0-7.6-5.8-11.3-8.7c-10-7.5-24-17.5-30.9-19.7c-9.7-3.1-29.9-11.8-36.1-15.6c-1.1-0.7-11.5-7.9-16.4-8.7
		c-4.8-0.9-11.5-4.9-22.8-15.7c-9.8-9.5-11.3-6.2-13-7.4c-0.9-0.7-1.3,1.4-2.8,1.2c-4.7-0.6-15.6-11.2-19.3-11.5
		c-2.3-0.2-4.6-0.4-6.6-0.7c-3.6-0.5-8.7-1.1-9.8-0.2c-1,0.7-1.3,2-1.3,3.7h-2.3c0-2.4,0.7-4.2,2.1-5.4c2.7-2.4,7.3-1.9,11.5-1.3
		c2,0.3,4.3,0.5,6.6,0.8c3.9,0.4,8.2,0.6,10.2,1.2c1.4,0.5,1.9,1.4,2.9,2c1.3,0.9,3.7,1.2,5.8,1.5c4.7,2.7,19.3,13.9,22.1,16.5
		c7.4,7,13,11.9,17.3,12.2c7.8,0.5,15.2,8.7,25.7,13c7.7,3.2,17.8,8.3,27.4,11.3c7.2,2.3,21.4,12.4,32.1,20.4
		c3.8,2.8,11.2,8.7,11.2,8.7c8.3,5.7,13.5,8.8,16.5,19c2.7,9-5.8,23.1-26.5,40.7c-14.8,12.6-27.6,19.4-30.5,20.8
		c-1.6,6.3-13.3,15.3-21.3,18.9c-1.7,0.8-10.9,5.4-13.7,6.9c-1.8,1-5.7,4.8-7.1,5.4C159.7,201.2,154.8,198.7,140,212.8"/>
	<path class="st0" d="M101.5,45.8c-2.1-1.3-2.7-6.2-3.4-7.2c-2.3-1.3-4.6-4.4-7.2-8c-3.9-1.2-7.7-5.5-10-8.2
		c-3.7-0.8-3.8-0.3-8.6-3.5c-4.2-1.1-9.2-2.1-10.1-5.7c-0.3-1.3,1-3.1,1.9-4.2c2-2.6,8.1-1.4,18.7,0.7c9.2,1.9,18.2,8.9,19.6,9.6
		l-2.8,2.2c-1.4-0.8-11.7-7.7-18.7-9.3c-7.7-1.7-11.4-2.6-12.6-1.8c-4.8,3.3,2.7,5,6,5.4c3,2.7,6.5,3.7,9.2,3.9
		c2.3,4.3,7,6,10.2,8.3c2.9,4.6,7.5,7.3,7.5,7.3s-0.6,4.5,4.4,7.2L101.5,45.8z"/>
	<path class="st0" d="M185.6,108.2c-0.3-0.4-6.8-9.3-9.3-15.1c-1.6-3.7-15.4-11.6-19.8-15.5c-2.2-2-16.8-13.9-26.6-16.3
		c-4.4,3.8-7.1,3.8-10.6,3.6c-1.8-0.1-4.1-0.5-6.2-0.5c-4.6,0.1-9.2,1-11.2-0.2c-2.3-1.5-8.7-1.9-13.5-1.8c-7.3,0.2-14-0.4-16.4-4.1
		c-1-1.6,0.1-3.8,4.2-7.2c3.6-3,11.2-4.7,14-3.3c2,1,7.2,1.4,9.2,0.4c0.7-0.3,0.3-0.9-0.2-3.4c-0.2-1.3-0.6-5-0.6-6.5l2.6,1.5
		c0.1,1.4,0.6,3,0.9,4.2c0.5,2.8,0.6,5.1-1.7,6.3c-2.6,1.3-7.3,2.4-9.9,1.1c-2-1-11-1.8-13.9,0.6c-2.9,2.4-1.6,4.2-1.2,4.9
		c0.7,0.8,5.8,2.9,13.1,2.7c8.3-0.2,13-0.2,15.2,1.2c1.4,0.9,5.8,1,9.7,1c2.2,0,4.8,0.1,6.5,0.3c7.8,0.9,8.3-2.1,12.1-3.8
		c7.7,0.5,24.6,14.8,26.9,16.4c2.6,1.9,18.5,12.3,20.4,16.7c2.4,5.6,10.6,16.2,10.6,16.3L185.6,108.2z"/>
	<path class="st0" d="M82.4,59.9L80,59.7c1.6-4.9-0.4-6.3-4.4-7l1.9-2.5C82.2,51.2,84.7,52.8,82.4,59.9"/>
	<path class="st0" d="M89,59.1l-0.5-3.3c0.8-0.8,2.1-3,2.1-5.9h2.3C92.9,53,92.6,57.7,89,59.1"/>
	<polygon class="st0" points="104.7,62.2 108.2,57.4 108.6,58.8 107.8,63.3 	"/>
	<path class="st0" d="M99.8,68l2-6.3c0,0,1.9,0.9,2.1,1C102.4,66.5,99.8,68,99.8,68"/>
	<path class="st0" d="M44.2,26.1c-3.7-3.3-0.1-8.9,2.9-12c2-2.1,5-4.3,8.6-2.9c0.5-1.5,1-3,4.4-5.6C64.3,2.3,66.8,0,69.2,1
		c2.4,1,2.8,5.4,2.8,7.3l-4.1-0.7c0.7-3.3-0.7-3.8-0.9-3.9c-1.2-0.6-4.3,1.1-6.5,2.9c-4.8,3.6-3.9,5.2-3.1,7l-3.4,2.7
		c-0.3-4-3.9-3.1-5.3-2c-5.5,4.6-2.6,8-2.2,8.9L44.2,26.1z"/>
	<path class="st0" d="M44.6,21c0,0,1.9,0,2.6-0.8c0.7-0.8,1.5-1.3,2.4-0.5l-3.7,4.2L44.6,21z"/>
	<polygon class="st0" points="65.2,3.2 62.7,6.2 62,5 	"/>
	<polygon class="st0" points="158,116.5 164.6,109.9 165.5,111 158.8,116.7 	"/>
</g>
</svg>
