<?xml version="1.0" encoding="utf-8"?>
<!-- Generator: Adobe Illustrator 19.0.1, SVG Export Plug-In . SVG Version: 6.00 Build 0)  -->
<svg version="1.1" id="Слой_1" xmlns="http://www.w3.org/2000/svg" xmlns:xlink="http://www.w3.org/1999/xlink" x="0px" y="0px"
	 viewBox="0 0 270 224" style="enable-background:new 0 0 270 224;" xml:space="preserve">
<style type="text/css">
	.st0{clip-path:url(#SVGID_2_);fill:#616C90;}
</style>
<g>
	<defs>
		<rect id="SVGID_1_" y="1" width="270" height="223.3"/>
	</defs>
	<clipPath id="SVGID_2_">
		<use xlink:href="#SVGID_1_"  style="overflow:visible;"/>
	</clipPath>
	<path class="st0" d="M270,178.9l-4.2-4c-7.3-2.2-14.6-8.6-21-33.4c-6.4-24.8-10.6-36.5-7.5-48.3c3.1-11.7,3.8-19.5,3.5-27.7
		c-0.2-8.2-1.1-28.1-20.4-46.5C204.3,3.6,195.6,1,177.2,1.2c-18.4,0.2-56,8.4-69.8,31l3.3,3.1c11.1-15.9,41.9-31.2,66-30.6
		c26.8,0.7,33.4,5.1,42.5,15.1c12.9,14.1,17.3,24.4,17.9,45.4c0.4,11.7-3.3,22.4-4.4,25.9c-1.1,3.5,0.9,26.8,8.9,49.4
		C249.6,163.1,254.7,174,270,178.9"/>
	<path class="st0" d="M118.9,94.9c-0.9,4.2-2.9,15.1-12.6,15.5l3.5,3.5c0,0,8,0.7,13.3-14L118.9,94.9z"/>
	<path class="st0" d="M101.2,125.3c5.1-2.7,8.2-7.1,8.4-13.7l4.2,1.1c0,0-0.4,12.4-7.8,15.9L101.2,125.3z"/>
	<path class="st0" d="M74.9,117.5l-3.5-3.3c-2.4,5.3,2,20.4,2,20.4l3.1,2.7C76.4,137.2,70.4,126.1,74.9,117.5"/>
	<path class="st0" d="M62,145.2l4.4,3.8c0.9,8.9-0.9,17.3-4.2,21.7l-3.5-2.4C58.7,168.2,67.6,161.8,62,145.2"/>
	<path class="st0" d="M141.5,130.6l3.5,2.2c0,0,4.6,16.2,3.1,22.6c-1.5,6.4-8,12.2-15.3,15.9l-3.1-2.9c0,0,15.1-7.8,15.5-13.7
		C145.7,148.7,143.3,133.9,141.5,130.6"/>
	<path class="st0" d="M139.3,92c-2.7-13.3-14.1-22.3-19.3-17.5c-2.9,2.7-2.4,8-2.4,8l4.4,2.4c0,0-0.4-6.2,1.1-6.9
		c1.6-0.7,11.1-0.9,13.3,14.2L139.3,92z"/>
	<path class="st0" d="M162.8,220.3l4.7,4c0,0-6-31-15.7-43C151.7,181.3,162.8,211.6,162.8,220.3"/>
	<path class="st0" d="M107.9,171.8c0,0-0.2,9.7,2,11.5c2.2,1.8,32.1-2.2,39.6-7.5l3.8,3.8c0,0-27.2,9.7-40.1,8.2
		c-9.3-1.1-8.4-13.7-8.4-13.7L107.9,171.8z"/>
	<polygon class="st0" points="110.7,117.9 118.5,117.7 116.7,121.3 108.8,121 	"/>
	<polygon class="st0" points="126.5,108.6 123.2,105.3 118.3,104.9 117.2,107.3 122.9,110.9 	"/>
	<polygon class="st0" points="114.3,47.3 119.4,51.1 116.7,51.9 112.1,49.7 	"/>
	<polygon class="st0" points="98.8,67 104.5,72.5 100.8,72.3 97,69.4 	"/>
	<path class="st0" d="M86.4,67l4.2,2.4c0,0-1.3,2.2-6.4,0.9L86.4,67z"/>
	<path class="st0" d="M144.9,119.1c0,0-4.9-4.2-8-4c0,0,3.5,6,5.3,6.6C144,122.4,144.9,119.1,144.9,119.1"/>
	<path class="st0" d="M151.7,93.4c-5.3,0.7-12.2,10.4-1.3,9.5l-0.9,2.4c0,0-12.8-2.7-5.8-14.6L151.7,93.4z"/>
	<path class="st0" d="M130.5,100l-3.5-2.2c0,0-0.9-7.5-4.9-11.1c-4-3.5-3.8-4.2-5.8-3.8c-2,0.4-28.6,21.9-28.6,21.9l-3.8-3.8
		c0,0,19.1-17.6,29.5-21c3.3-1.1,7.3,3.8,10.4,6.2C126.9,88.7,131.8,96,130.5,100"/>
	<path class="st0" d="M120.3,88.5c-0.9-0.4-6.9-5.5-6.9-5.5l1.8-1.1L120.3,88.5z"/>
	<path class="st0" d="M113,123.5l3.5,3.5c0,0,2.4-6.6,6-7.5c0,0,3.3-7.1,6-7.1c0,0,2.2-10.4,6-14c3.8-3.5,9.7-7.3,12.4-6
		c2.7,1.3,6,0,4.7,2.9c-1.3,2.9-6,11.3-7.1,21.3c-8.2,6.9-14.4,17.7-15.3,21.5c0,0-5.5,8.6-8.6,10.4l1.6,2c0,0-3.8,6.9-7.3,11.1
		c-3.5,4.2-7.8,7.7-13.3,10.4c-6.6,3.3-21.3,20.2-35.4,44.5l3.5,4.4c0,0,10.7-17.7,19-28.8c14.8-19.7,25.9-21,30.1-26.6
		c4.2-5.5,7.3-11.1,8.6-17.1c0,0,2.7-2.2,4.4-4.9c1.8-2.7,1.9-5.9,4-9.1c4.4-6.9,9.5-10.2,11.3-13.1c1.8-2.9,1.6-8.4,3.3-12.4
		c1.8-4,5.3-10.6,5.3-13.3c0-2.7-4.7-8.9-7.3-9.1c-2.7-0.2-11.5,1.6-15.1,6c-3.5,4.4-8,9.5-8.6,17.3
		C124.7,110,115.2,116.6,113,123.5"/>
	<path class="st0" d="M91.7,56.4C87.3,56.2,73.3,69,73.3,69s-4.7,14.2-6.2,20.2c-1.6,6-2.1,10.3-4.7,12.4c-3.5,2.9-2,27.2-2.2,34.8
		c-0.2,7.5-0.2,12.2-4.9,17.5c-4.7,5.3-13.3,14.2-17.1,19c-3.8,4.9-31.7,35.4-38.3,38.3l3.8,5.1c0,0,17.3-16.4,21.3-20.4
		c4-4,18.6-22.4,23.7-27c5.1-4.7,13.7-14.2,14.6-17.7c0.9-3.5,0.9-32.6,0.9-32.6l2.2,2c0,0-0.7-11.3,0-12.8c0.7-1.6,3.5-4.4,3.5-4.4
		l-1.8-2.9c0,0,6.6-26.1,8.4-27.9c1.8-1.8,10.6-7.1,10.6-7.1L91.7,56.4z"/>
	<path class="st0" d="M109,83c1.1-4,4.2-10.2,7.3-14c3.1-3.8,5.8-9.5,6-13.3c0,0,7.3-6.9,8.6-14c1.3-7.1-2-7.8-4.4-7.1
		c-2.4,0.7-50.1,64.2-50.1,64.2L72.7,96c0,0,44.7-57.6,46.7-60.5c2-2.9,4.9-7.8,9.3-3.5c4.4,4.2,8.4,9.7,5.5,15.9
		c-2.9,6.2-7.8,10-7.8,10s-1.8,8.2-5.5,13.5c-3.8,5.3-7.1,10.4-7.1,10.4L109,83z"/>
	<path class="st0" d="M119.8,38.2c0,0,6.6,1.8,7.8-2.2c0,0,3.3,0.2,2.7,2c-0.7,1.8-3.3,5.5-12,4L119.8,38.2z"/>
	<path class="st0" d="M117.2,40.9c-1.1-4.7-4-7.5-6.2-8.2c-2.2-0.7-4-3.5-8,3.8c-4,7.3-33.2,50.7-33.2,50.7L66.9,104
		c0,0,27-47.2,38.1-60.2c0,0,6,0,7.8-4.4l-2-4c0,0,1.6-0.2,2.7,0.9c1.1,1.1,1.3,7.1,0,9.7C112.1,48.6,117.2,40.9,117.2,40.9"/>
	<path class="st0" d="M166.4,158.2l0.9-0.9c13.7-12.5,40.4-17.7,75.1-14.8l0.2-1.8c-34.4-2.9-61.1,2.3-75.5,14.5l-18.8-44l-1.7,0.7
		L166.4,158.2z"/>
	<polygon class="st0" points="146,114.6 140.9,111.5 145.5,117.7 	"/>
</g>
</svg>
