<?xml version="1.0" encoding="utf-8"?>
<!-- Generator: Adobe Illustrator 19.0.1, SVG Export Plug-In . SVG Version: 6.00 Build 0)  -->
<svg version="1.1" id="Слой_1" xmlns="http://www.w3.org/2000/svg" xmlns:xlink="http://www.w3.org/1999/xlink" x="0px" y="0px"
	 viewBox="0 0 268 232" style="enable-background:new 0 0 268 232;" xml:space="preserve">
<style type="text/css">
	.st0{clip-path:url(#SVGID_2_);fill:#616C90;}
</style>
<g>
	<defs>
		<rect id="SVGID_1_" x="1" y="1" width="268" height="229.6"/>
	</defs>
	<clipPath id="SVGID_2_">
		<use xlink:href="#SVGID_1_"  style="overflow:visible;"/>
	</clipPath>
	<path class="st0" d="M4.9,1.3L1,4.6c12.7,20.8,15.5,20.4,23.4,27.9c6.2,5.9,26.4,27.6,29.4,31c4,4.5,4.6,9,6.6,12.1
		c2.3,3.7,3.8,4,5.4,5.5c1,5.2,0.3,15.8,0.3,26.1s0.9,16.7,3,19.8c2.1,3,1.3,8.2,7,11.5c0,0-0.9,9.4,0.3,11.8c1.2,2.4,2.7,7.6,4,9.4
		c1.2,1.8,5.2,5.2,8.2,5.2c3,0,3.1-6.4,0.6-5.2c-2.7,1.3-2-0.4-3.2-0.8c-1.2-0.3-2.1-2.4-0.5-2.9c1.6-0.5,1.7-0.5-1.7-2.1
		c-3.5-1.6,2.4-3.1-1-4.3c-3.5-1.2-4-4.5-4-7.8c0-3.3,1.9-6.2,1.2-7.4c0,0,5.4,1.4,6.6-2.6c1.2-4-2.9,0.9-5-0.5
		c-2.1-1.4-3.6-2.8-4.1-4.7c-0.5-1.9-2.2-3.6-4.8-4.3c-2.6-0.7-1.7-3.3-2.4-7.3c-0.7-4-1.9-22.9-0.3-25c2.4-3.5-0.9-8.8-1.9-13.8
		c-3-2.5-5.7-2.9-6.6-7.4c-1.7-8.6-7.6-13.1-16.8-23.5C40.3,40.7,28,29.5,22.3,24.3S4.9,1.3,4.9,1.3"/>
	<path class="st0" d="M77.1,95.8l-2.8,3.1c0,0,4.7,12.6,4.5,16.4l2.9-2.2C81.8,113.1,80.6,102.9,77.1,95.8"/>
	<path class="st0" d="M108.9,124.7l6.6-7.3l3.5,0.3l-2.6,2.2l-1.7-0.2C114.6,119.8,109.7,125.4,108.9,124.7"/>
	<path class="st0" d="M257.3,170.3c-3.1,0-6,5.2-10.4,8.1c-3.6,0.5-22.6,7.3-26.8,7.3s-16.2-4.3-38.3-14.3
		c-22.1-10-26.8-18.7-30.6-25.4c-3.8-6.7-10.5-23.5-10.5-23.5l3.3,0.3l2.4-3.3c-6,0.3-9.7-6.9-10.2-8.8c-0.5-1.9,0.9-2.8,2.4-5.7
		c1.6-2.9,0.9-4.8,0.9-4.8l-3.1,2.6l0.3-4.1l-4.3,4.3c0,0,0.2,10.5-2.2,18.5c-2.4,7.9-4.5,21.4-4.3,31.3c0.2,9.8-0.7,25.9-3.5,35.6
		c-2.8,9.7-3.1,8.6-7.3,9.2s-4.5-5.2-3.5-5.9c1-0.7,5-0.7,5.4,1.4c0.3,2.1,1.6,1.7,2.4,0.2c0.9-1.6-0.5-4.5-3.5-4.8
		c-2.9-0.3-4.7,1.2-4.7,1.2l1.2-5.7h3.6c0,0,2.2-1.9,2.2-2.6c0-0.7-2.6-0.3-3.8,0.3c-1.2,0.7-2.2,2.1-1.4-0.3
		c0.9-2.4-1.2-14.5,0.2-15.4c1.4-0.9,3.5,0.7,4.1,0c0.7-0.7,2.2-1.2,3.1-1.2c0.9,0,2.6-1,2.4-2.4c-0.2-1.4-5-1.4-7.1-1
		c-2.1,0.3-3.1,2.1-3.1,2.1c0-2.8-0.5-24-0.5-24l6.2-0.5c0,0,6.2-5.2,6.7-5.9c0.5-0.7,0.2-1.6,0.2-1.6s-3.3,3.8-6.2,4.3
		c-2.9,0.5-7.3-1.9-7.3-1.9l-4,4l2.6,1c-7.6,5.9-5.5,23.3-6.9,32c-1.4,8.6-2.2,9.3-2.9,15c-0.7,5.7,0.7,7.4-2.1,9.8
		c-2.8,2.4-6.7,0.7-6.4-0.5c0.3-1.2,2.6-1.2,4,0c1.4,1.2,2.1-0.9,1.6-2.4c-0.5-1.6-6-1.7-6-1.7l-0.7-3.1c0,0,3.5-0.7,3.3-2.1
		c-0.2-1.4-3.3-2.4-3.3-2.4v-13.1c0,0-0.2-1,1.4-0.9c1.6,0.2,3.3,1.7,4.7,0.3c1.4-1.4,2.9-4.3,2.2-4.8c-0.7-0.5-2.6-1.2-4.1,0.7
		c-1.6,1.9-3.6,0.9-3.6,0.9c0.2-2.9,0.2-9.3,0.9-12.3c0.7-2.9,0-14.2,0-14.2l3.3,1.7l3.8-4c-6.6-0.7-6.6-7.3-6.6-7.3l-4.5,6.2
		c0,0-0.2,27.1,0,42.8c0.2,15.7-2.4,13.1-2.8,30.2s14.5,18.5,21.6,19c7.1,0.5,91,1.9,99.3,1.9c8.3,0,10-1.6,13.6-3.8
		c3.6-2.2,15.9-8.8,18.8-11.1c2.9-2.2,4.1-7.4,4.1-9.3c0-1.9,2.1-3.8,3.5-5c1.4-1.2,4.3-0.5,6.6-2.1c2.2-1.6,7.8-4.7,11.7-14.9
		C269,174.2,260.4,170.3,257.3,170.3 M255.7,174.1c2.4,0.2,4.8,1.2,5.2,3.8c-3.6-0.2-5.4-0.2-6.4,1.2c-1.7,0.2-5.2-0.3-5.2-0.3
		C252.1,176,253.3,173.9,255.7,174.1 M252.2,187.7c0.3,2.6-0.3,7.3-6.9,7.1c0,0,0.3-5-1.4-5.5c-1.7-0.5-4,0.2-6.6,1
		c-2.6,0.9-3.5,0.2-7.6,1.6c2.7-2.7,5.9-4.3,9.5-5.4c3.6-1,5.4-3.5,7.6-3.5S251.9,185.1,252.2,187.7 M242.6,197.2
		c-0.3,2.6-0.7,4.3-2.1,5c-1.4,0.7-8.3,1-11.7,0.7c-3.5-0.3-3.6-2.1-5.5-2.4c-1.9-0.3-6.2-0.5-6.2-0.5c1.4-2.2,6.7-4.3,9.3-5
		c2.6-0.7,5.4-1.2,7.4-0.9c3.3,0.5,3.1-2.4,5.2-2.4C241,191.7,242.9,194.6,242.6,197.2 M249.8,198.3c-1.6,0-2.6,1-4.3,2.8
		c-1.7,1.7-5.9,5.5-5.9,6.7c0,1.2,0.8,2.4-0.9,5.7c-1.9,3.8-15.5,11.4-21.4,13c-5.9,1.6-53.4-0.3-62.9-0.5c-9.5-0.2-47.7,0.2-53-2.2
		c-5.4-2.4-13.5-6-12.1-25.6c2.2,1.9,5.9,3.3,9.7-1.2c3.8-4.5,3.6-3.5,4.3-7.6c0.7-4.1,0.3-7.6,1.7-11.6c1.4-4,2.1-8.5,1.7-12.8
		c-0.3-4.3,0-15,1.9-16.4c2.1,7.9,1.2,11.6,1.4,19.9c0.2,8.3,0.3,15.7-1,20.7c-1.4,5-2.6,9.8,0.3,11.2c2.9,1.4,6.7,1.4,9.5-1.6
		c2.8-2.9,10-11.4,10.2-35.1c0.2-23.7,2.2-43.2,5.4-47.3c4.1,15,12.1,33.5,19.9,41.6c7.8,8.1,27.6,16.8,35.1,21.1
		c7.4,4.3,16.2,6.2,20.7,7.6c4.5,1.4,5.5,3.5,12.6,1.2c7.1-2.2,17.3-6.2,19.5-6.6c2.2-0.3,0.5,1.7-1.9,2.6
		c-2.4,0.9-10.7,4.7-13.8,9.2c-9.5,2.9-11.7,6.4-13,7.9c-4.3,1.7-8.5,1.9-9.2,5.7c5.4-1.9,13.8-6.4,17.3-0.5
		c7.6-0.5,7.4-0.3,8.1,1.4c0.7,1.7-0.3,8.1-4.7,9c-4.3,0.9-5.9-2.9-5.9-2.9s-4.3,2.4-6.9,0.5l-3.6,2.9c0,0,1.4,2.2,7.1,1
		c0,0-0.2,1.6,4,1.2c4.1-0.3,13-2.4,13.8-13.3c0,0,3.1,0.2,5.5-1c2.4-1.2,6.7-5.7,6.7-7.9c0,0,2.6,0,3.5-1.2h5.9
		C255.2,195.8,251.4,198.3,249.8,198.3 M253.8,192.4c1-2.6,2.6-6.7,0.3-11.4c4,0.4,6.4,2.6,6.7,4.8
		C261.2,188.1,261.6,193.6,253.8,192.4"/>
	<path class="st0" d="M135,188.8c0,0,2.8,7.1,7.8,6.6l-2.8,3.5c0,0-5.5-1.2-7.6-6.2L135,188.8z"/>
	<path class="st0" d="M122.4,217.8l2.4-2.9c0,0,24.4,0.7,35.4-0.2c11.1-0.9,29.4-2.2,36.8-6.4c0,0-5,7.3-29.7,8.8
		S122.4,217.8,122.4,217.8"/>
	<polygon class="st0" points="204.1,190.8 207,188.1 216.7,191.9 213.2,194.8 	"/>
	<polygon class="st0" points="217,202.1 211.8,207.2 218.2,201.9 	"/>
	<polygon class="st0" points="225.8,194.1 223.6,198.4 228.6,193.1 	"/>
	<polygon class="st0" points="233.9,182.7 231.5,188.4 235.3,182.5 	"/>
	<polygon class="st0" points="172.4,87.4 169.5,90.5 170,103.8 173,101.9 	"/>
	<path class="st0" d="M173.5,104.6c0,0-9,9.3-9.5,11.4c-0.5,2.1,2.6-0.9,4-2.8C169.3,111.4,173.5,105.7,173.5,104.6"/>
	<path class="st0" d="M185.9,109.8l3.5-2.8c0,0,6.4,6.9,6.9,9.2l-4.1,4C192.1,120.2,192,112.4,185.9,109.8"/>
	<path class="st0" d="M153.3,133.8l-2.6,2.9c4.5,5.9,13.8,9,19.3,17.1l3.1-2.4C165.7,142.6,158.1,141.4,153.3,133.8"/>
	<path class="st0" d="M167.4,133.7c0,0,1.4,14.3,10.2,19l0.3,5.5c0,0-12.1-8.1-13.1-22.1L167.4,133.7z"/>
	<path class="st0" d="M177.5,134l-4,3.5c0.2,6.7,2.2,7.9,2.8,14.2c0.5,6.2,0.3,17.3,1.7,19c1.4,1.7,12.4,7.3,12.4,7.3
		s-4.4-4.5-7.8-9.2c-2.6-3.6-2.3-7.8-2.1-13.3C180.9,147.5,176.2,141.8,177.5,134"/>
	<polygon class="st0" points="179,156.1 183.3,152.3 179.4,157 	"/>
	<path class="st0" d="M196.6,139.9l-1.2,3.5l2.9-1.4l-3.3,4c-0.3,2.6,0.9,5.9,0.9,8.3c0,2.4-1,2.2-1.4,4.8c-0.3,2.6-1,6.4,0,7.8
		c1,1.4,1,3.8,1,5.7c0,1.9-2.6,4.7-2.8,5.4c-0.2,0.7-4.1-0.7-3.1-1.6c1-0.9,2.8-3.6,2.2-6.2c-0.5-2.6,0.2-8.1,0.2-11.4
		c0,0-2.1-2.4-3.3-2.2c-1.2,0.2,0.5-2.9,3.1-2.4c0,0-1-3.8-0.2-6.2C192.7,145.4,195.2,140.6,196.6,139.9"/>
	<path class="st0" d="M192.8,163.4c0,0-4.3,0.2-5.5,2.1c-1.2,1.9-1.4,8.1,4.3,9.5c5.7,1.4,1.9-3.8,1.9-3.8s-3.1,2.1-3.8-1.4
		c-0.7-3.5,3.1-3.1,3.1-3.1V163.4z"/>
	<path class="st0" d="M142.6,129.5c0,0,2.6,0.7,3.8,0.2c1.2-0.5,0.3-2.1,2.9-4.3c2.6-2.2,4.8-5.4,4.8-6.7l-3.8,2.9
		c0,0,2.6-3.3,4.1-4.3c0,0,0.5-0.9-1-3.1c-1.6-2.2-5.7-9.3-7.6-11.7c-1.9-2.4-0.5-4.5-3.3-7.9c-2.8-3.5-8.5-11.6-11.9-16.6
		c-3.5-5-12.1-14.5-19.5-17.6c-7.4-3.1-3.6-2.9-6-6.4c-2.4-3.5-13-19.9-18.5-24C81.1,25.7,73,11.5,70.9,5l3.3-3.8
		c0,0,7.3,16.8,14.7,23.3c7.4,6.6,19.7,26.6,21.8,30.6c0,0,15.2,8.1,26.3,23.1c11.1,15,10.7,16.6,11.1,18.5c0.3,1.9,6.6,9,8.5,12.1
		c1.9,3.1,1.4,7.8,1,9.5c-0.3,1.7-6.6,7.1-7.4,7.9c-0.9,0.9-1.2,10.5-2.4,12.4c-1.2,1.9-2.9-2.4-2.9-2.4l2.4-3.6h-3.6L142.6,129.5z"
		/>
	<path class="st0" d="M150.9,148.5c1.9,0.2,4.1,0.7,7.1,2.1c2.9,1.4,4.8,2.4,9.3,3.6c4.5,1.2,8.1,7.6,8.3,10.7l-3.5,2.8
		c0,0,1.2-3.5-3.5-8.5c-4.7-5-15.2-6-15.2-6L150.9,148.5z"/>
	<path class="st0" d="M145.8,1l-4.1,4c0,0-2.2,31.3-3.1,40.4c-0.9,9.2-3.1,34.7-3.1,34.7l3.8,5.5l1.9-33c0,0,6.9,18,7.9,23.5
		c1,5.5,0,13.6,2.4,18c2.4,4.3,4.5,10.2,4,15c-0.5,4.8,0.5,8.6,1.6,5.7c1-2.9,3.1-4.1,3.1-4.1l4-0.9l3.1-4.1l-3.6,1.2
		c0,0-2.1,0.5-3.3,1.6l-0.5-1.7l5-3.5l3.1-3.5l-1.2-0.7l-3.6,3.8l-3.3,2.6c0,0-1.9-8.8-3.8-13.1c-1.9-4.3-1.6-12.6-2.6-17.1
		c-1-4.5-9.5-26.8-10.4-32.1C142.2,37.8,145.8,1,145.8,1"/>
	<path class="st0" d="M199.7,1.2l-3.3,3.5c0,0,2.9,8.5,2.6,17.8s-5.7,31.1-5.7,41.1c0,10,3.5,16.6,3.6,21.9
		c0.2,5.4-1.9,15.7-2.6,19.9c-0.5,2.8-2.8,3.5-2.9,5c-0.2,1.6,1,5.4,2.6,7.1c1.6,1.7,1.6,4.1,1.6,7.3c0,3.1,1.4,4.5,2.9,9.5
		c1.6,5,1.7,10.5,1,14.9c-0.7,4.3-1.2,10.9-1.6,15.7c-0.3,4.8-2.4,6.9-3.8,6.9c-1.4,0-1.9,2.2,0.2,2.4c2.1,0.2,2.2,3.8,2.1,5.2
		c-0.2,1.4,3.6,2.9,3.6,2.9s-2.3-7-0.9-11.7c1.4-4.5,2.4-12.8,2.4-16.9s1.5-9,1.4-13.3c-0.2-10.9-2.1-8.7-3.5-15
		c-0.9-4.3-0.9-9.3-1.2-10.2c-2.8-6.6,2.4-22.5,1.7-30.9c-0.5-6.2-3.7-19.5-3.6-23.5c0.2-5.7,6.3-34.2,6.4-38.3
		C203,11,199.7,1.2,199.7,1.2"/>
</g>
</svg>
