<?xml version="1.0" encoding="utf-8"?>
<!-- Generator: Adobe Illustrator 19.0.1, SVG Export Plug-In . SVG Version: 6.00 Build 0)  -->
<svg version="1.1" id="Слой_1" xmlns="http://www.w3.org/2000/svg" xmlns:xlink="http://www.w3.org/1999/xlink" x="0px" y="0px"
	 viewBox="0 0 276 248" style="enable-background:new 0 0 276 248;" xml:space="preserve">
<style type="text/css">
	.st0{clip-path:url(#SVGID_2_);fill:#616C90;}
</style>
<g>
	<defs>
		<rect id="SVGID_1_" x="0" y="2.9" width="276" height="244.1"/>
	</defs>
	<clipPath id="SVGID_2_">
		<use xlink:href="#SVGID_1_"  style="overflow:visible;"/>
	</clipPath>
	<path class="st0" d="M276,190.7l-11.8-11.4c0,0-55.7,11.4-101.3,40.7c-6.8-13.6-14.8-21.6-16-27.6c-0.9-4.3-1.9-12.9-1.9-12.9
		l-3.5-2.9c0,0,1.2,15.3,4.6,20c3.5,4.6,13,15.9,15,26.6c-12.7,4.1-26.3,14.5-30.7,17.9l3.5,3.2c0,0,15.9-14.4,36.9-21.4
		c20-6.7,30.2-4.8,43.3,0.5c-6.7-8.6-19.7-8.4-39.9-5.2c18.2-11.6,76.1-35.3,92.3-35L276,190.7z"/>
	<path class="st0" d="M177.1,169.5l2.6,2c0,0,3,29,5.3,36.9l-1.7,1.7C183.3,210,176.9,184.6,177.1,169.5"/>
	<path class="st0" d="M186.9,84.7c0,0,4.4-5,8.7-6.3c4.4-1.4,11,0.6,14.9,5.3c3.9,4.7,6.3,9.6,6.3,15.2c0,5.6-1.7,16.8-10.7,24.5
		c-9,7.7-16.5,13.1-21.8,13.2c-5.3,0.1-7.5-1.9-8.9-2.9c0.3,4.4-1.1,11.1,0.5,17.4c1.5,6.3,2.5,14,0.2,17
		c-4.5,5.7-11.3,4.4-33.7,7.7c-9.7,1.4-29.6,6-33.5,5.1c-3.9-0.9-11.7-3-12.8-13.2c-1-9.3,3.8-17.6,2.9-18.8c-0.9-1.2-7.2-2.6-7.7-8
		c-0.5-5.4,6.2-7.5,6.2-7.5s-8.7-4.7-8.9-9.2c-0.2-4.5,2.7-4.3,3-6.6c0.3-2.3,0.6-5-0.3-5.6c-0.9-0.6-6.8-4.8-6.9-7.1
		c-0.2-2.3,6.6-13.8,9.5-16.7c2.9-2.9,14.1-9.8,14.3-10.8c0.1-1.1-3.2-10.1-2.9-13.5c0.6-5.7,8.6-17.2,11.1-23.9
		c2.6-6.8,11.7-18.4,26.3-26.8C157.2,4.8,170,3.2,182.8,3c12.8-0.2,40,3,52.3,11c12.3,8,26.6,25.4,28.6,41.8
		c2.3,19,1.2,36.4-0.8,44.2c-3.3,13.2-11.7,12.9-14.9,35.5c-2.1,14.7,2.1,37.2,7.5,46.8l-1.2,0.6c-7.5-11.6-11.7-35.4-9.6-48
		c3.8-23,12.6-30.1,14.1-32.8c3.2-5.7,3.8-36.7,2.3-46.6c-1.4-9.6-10.5-33.4-26.6-39.9c-16.1-6.5-40-9.6-51.6-9.5
		c-36.7,0.5-58.7,24.8-62.3,33.5c-3.6,8.7-11.1,19.4-11.4,24.4c-0.3,5,2.9,11.6,2,14c-2.4,6.3-15.9,12.2-17.7,15.2
		c-1.8,3-6.2,9.8-5.7,10.7c0.5,0.9,2.9,0.5,4.8,1.8c2,1.4,5.9,6.2,7.7,6.2c1.8,0,4.5-1.2,3.6-2.6c-0.9-1.4-9.8-5-8.7-6.8
		c1.1-1.8,0.9,1.1,4.4,2.6c3.5,1.5,7.4,5.3,7.4,6c0,0.8-2.3,5-5,4.5c-2.7-0.5-9.8-9-12.6-9.5c-2.9-0.5-2.3,0.3-0.6,1.5
		c1.7,1.2,6.3,4.7,6,5.7c-0.3,1.1,0.3,5.9-1.2,8c-1.5,2.1-2.9,4.3-1.4,6.2c2,2.4,8.3,7.1,9.3,8.7c-3.2,0.5-6.9,2.7-7.7,5
		c-0.6,1.7,1.1,4.2,4.7,5.4c3.6,1.2,3.6,3.8,3,5.1c-0.6,1.4-2.9,13.7-2.7,17.1c0.1,3.2-1.1,8.3,8.3,8.3c9.3,0,29.8-4.4,35.8-5.1
		c6-0.8,24.8-1.1,29.9-7.4c5.3-6.5-0.9-13.1-0.6-20.3c0.3-7.2-1-19.9,1.5-21.5l3.2,2.9c0,0-2.1,4.1-2,5c2,2.6,5,3.6,8.9,2.9
		c3.9-0.8,18.8-11,23.2-17.4c4.4-6.5,9.8-23.8,4.2-29.8c-5.6-6-13.2-7.1-21.1,1.2C190.2,87.1,186.9,84.7,186.9,84.7"/>
	<path class="st0" d="M88.5,23.5c-0.9-2.5-3.2-6.3-6.2-9.6c-3.6-3.9-8.1-6.9-12.2-5.5c-7.5,2.6-2.6,9.3-1.8,13.8
		c0.8,4.5,1.7,11.6,0.9,14.4c-0.8,2.9,0.8,3,1.4,4.7c0.6,1.7-0.2,8.8-2,12.9c-1.8,4.2-5.4,5.4-5.3,6c0.1,0.6,6.3,2.6,6.3,2.6
		s3.6-9.5,3.6-14.3c0-4.8,1.4-8.6,0.3-9.3c-1.1-0.8-1.7-0.5-1.5-5.6c0.1-5.1-0.6-6.5-1.4-8.7c-0.8-2.3,0-3,0-3s0.3,2,2.7,2.6
		c2.4,0.6,7.2-1.8,7.4-4.5c0.1-2.7-1.2-5.6-2.7-6.5c1.5,5.1,0.5,6.3-1.2,7.1c-1.7,0.8-4.2,3-5.9-0.1c-1.7-3.2-1.5-7.5,0.5-8.6
		c2-1.1,6.2-1.4,9.2,1.5c3,2.9,5.7,5.7,5.9,11.7c0.1,6-0.3,14.4,1.1,20.6c1.4,6.2,6.7,13.7,6.8,17c0.5,20.2-5.7,35.2-14.1,45l3,2.6
		c0,0,11.7-15.2,12.8-27.8c1.1-12.6,1.2-17.6-3.3-29.2c-4.5-11.6-2.9-14.6-3-21.2C89.5,25.5,88.5,23.5,88.5,23.5"/>
	<path class="st0" d="M88.2,24.9c4.5-2.6,11.6-5.1,16.7,1.1c3.6,4.4-0.4,10.4-4.1,11.3c-7.7,1.8-8.1,4.2-12.3,5.3
		c-3,0.8-0.8-4.5-0.8-4.5l4.4-1.8c0,0,2-2.4-0.3-6.6c3.6,0.8,2.7,4.1,2.7,5.6c3.5-0.2,11.1-5.3,8.7-9c-2.4-3.8-11.4,0.3-14.6,2.7
		L88.2,24.9z"/>
	<path class="st0" d="M71.3,32.7l5.7-0.2l2.7,2.7l2.3-2l2.1,2.4c0,0-4.1,3.8-7.2,4.1l-2.7-2.6l3.5-1.1
		C77.7,36.1,71.6,35.5,71.3,32.7"/>
	<polygon class="st0" points="95.3,70 92.3,67.4 84.3,70.1 86.7,72.7 	"/>
	<path class="st0" d="M72.1,90.4l3.2,2.6c-5.4,13.1-15.2,8.7-22.4,27.2l-2.6-2.3C56,100.5,69.8,102.6,72.1,90.4"/>
	<path class="st0" d="M115.1,46.4c-3.2-2.3-7.2-2.7-11.3-2.6c-4.1,0.1-11,1.2-14.7,0.3c0,0,0.6,3.8,0.6,3.9c0,0.1-5.6,0,0,0.1
		c5.6,0.1,6.7-1.2,12.2-1.7c5.4-0.5,8.1,0.2,11.3,1.5c2.5,1.1,2.1-2.3,2.1-2.3"/>
	<path class="st0" d="M101.1,48.2l2.1,2.4l-0.6,6.8c0,0,6.2-0.5,7.5-1.2c1.4-0.8,0.5,3.5-2,4.4c-2.4,0.9-13.5,1.4-13.5,1.4L93,57
		l7.2,0.3L101.1,48.2z"/>
	<path class="st0" d="M107.3,66.1c0,0-5.6,6.5-11.9,6.8v3.8c0,0,11.1-2.3,12.5-5.4C109.3,68,107.3,66.1,107.3,66.1"/>
	<path class="st0" d="M109,74.2c0,0-6,4.2-13.4,3.9l-0.5,2.7c0,0,9.8-1.2,12.9-2C111.2,78.1,109,74.2,109,74.2"/>
	<path class="st0" d="M87.9,108.2c0,0-0.6,13.5-14.7,20.2l1.1-3l-1.7-2.3l-2.7,2.9l1.2-5.3l-3.2-2.9c-12.6,34.9-37,89.8-37,89.8
		s8-46.9,10.7-56.4l-2.4-2.9c0,0-14.9,75.7-14.7,96.3L27,247c0,0-0.5-15.9,3-26.5c3.5-10.5,34.6-83,34.6-83c4.5-0.5,3.9-2.4,5.4-3.9
		c9.9-0.6,19.9-13.7,21.1-22.7L87.9,108.2z"/>
	<path class="st0" d="M70.2,33.9c-5.6,7.5-7.4,11.4-12.2,14.9c-4.8,3.5-3,6-5,13.2c-2,7.2-5.4,18.3-8.1,24.2
		c-2.7,5.9-1.5,8.3-3.5,11.7c-2,3.5-17.7,23.6-22,28.6c-4.2,5-14,17-19.7,23.2c-5.7,6.2-21.8,22.4-28.3,30.1
		c-6.5,7.7-34.4,45.6-41.2,63.6l2.7,3.6c14.4-31.4,31-50.2,42.6-64.8c7.8-9.9,24.2-23.9,40.2-43.8c7.5-9.3,14.7-18.5,22.4-29
		c2.2-3.1,4.6-5.4,6.3-9.9c3.9-10.5,7.3-19.9,8.6-23.9c4.9-15.1,2.7-19.7,6.3-22.6c3.6-2.9,10.8-9.5,11.6-13.7L70.2,33.9z"/>
	<path class="st0" d="M116.6,137.7l0.6-0.1c41.3-6.8,51-52.3,52.5-61.4l0-0.2l-5.9-18.9l15.8-22.9l-1-0.5c-17-8.3-37.9-7.2-52.5-4.7
		l0.3,2c14-2.3,33.9-3.5,50.2,4.1l-15,21.7l6,19.4c-1.6,9.3-11.1,52.6-50.2,59.4L106.8,123l-14-6l-0.8,1.8l13.5,5.9L116.6,137.7z"/>
</g>
</svg>
