<?xml version="1.0" encoding="utf-8"?>
<!-- Generator: Adobe Illustrator 19.0.1, SVG Export Plug-In . SVG Version: 6.00 Build 0)  -->
<svg version="1.1" id="Слой_1" xmlns="http://www.w3.org/2000/svg" xmlns:xlink="http://www.w3.org/1999/xlink" x="0px" y="0px"
	 viewBox="0 0 322 241" style="enable-background:new 0 0 322 241;" xml:space="preserve">
<style type="text/css">
	.st0{clip-path:url(#SVGID_2_);fill:#616C90;}
</style>
<g>
	<defs>
		<rect id="SVGID_1_" x="0" y="0" width="319.9" height="239.6"/>
	</defs>
	<clipPath id="SVGID_2_">
		<use xlink:href="#SVGID_1_"  style="overflow:visible;"/>
	</clipPath>
	<path class="st0" d="M15,162.6c6,5.4,2.6,10.8,14,17.1l-0.6,7.8c0,0-3.3,3.5-6.1,5.5c-2.7,2-19.3,6.8-20.3,8.5c0,0-1-2.1,3.4-4.2
		c5.7-2.8,16.1-4.1,19.6-7.8l0.3-6.5c-12.6-9.7-6.2-11.1-13.5-17L15,162.6z"/>
	<path class="st0" d="M28.2,179.9c1.3-3.8,5.7-9.2,8.2-10.9c2.4-1.7,4.9-0.4,6.9-1.3c2-0.9,5.6-2.8,9.3-2.7c3.7,0.1,9.4,6,9.1,12.2
		c-0.3,6.2-8.2,13.5-15.7,12.7l2.9-3.5c0,0,6,0.2,8.2-2c2.1-2.2,3-9.1-0.7-12.5c-3.8-3.4-6.8-5.4-10.1-3.9c-3.2,1.5-4.2,4.1-5.6,3.9
		c-1.4-0.2-3.1-2.6-6,0.5c-2.9,3.1-5.8,8.4-5.8,8.4L28.2,179.9z"/>
	<path class="st0" d="M47.5,170.3c0.2,0.1,4.1,9.4,7.4,10.8c-1.6,3-4.7,3.5-6.6,2.8c-1.9-0.7-6.3-6.1-5.1-8.3
		c1.2-2.2,1.8-2.1,1.8-2.1c1.1,4,2.3,8.1,4.4,6.7C48.1,178.1,44,172,47.5,170.3"/>
	<path class="st0" d="M40.2,137.8c5.4,5.4,11.8,12.2,14.2,15.9c2.5,3.7,3.7,5.3,3.3,15.5c0,0-2.8,3-2.7-1.7c0.1-4.8,0-7.4-4.2-12.1
		c-4.2-4.6-13.7-14.6-13.8-14.6C36.9,140.9,40.2,137.8,40.2,137.8"/>
	<path class="st0" d="M34.8,202.4c8.6,1.7,14.2,4.1,18.6,7.8l2.7-2.6c0,0-10.2-7.6-19.1-7.7L34.8,202.4z"/>
	<path class="st0" d="M93.8,135.4c0,0,3.1,2.9,4,3.1c-0.1,0.2-2.1,2.2-2.1,2.2l-4.6-2.5L93.8,135.4z"/>
	<path class="st0" d="M56.4,160.9c1.5-3.9,7.2-8.7,11-10.8c3.9-2.1,8.3-5.8,11.6-8.6c3.3-2.8,17.7-16.7,23.5-19.2
		c2.9-1.3,7.4-0.5,5.8,5.3c-1.7,5.8-12.2,14.7-14.6,17.5c-2.5,2.7-5.3,5.5,1.2,10.4c6.5,4.9,14.7,7.9,28.5,7.7
		c13.8-0.2,20.8-1.6,23-0.3c2.3,1.3,4.1,3.6,2.5,5.9c-1.7,2.3-6.3,8-27,9.2c2.5,2.1,4.1,2,7.3,1.7c0.1,0.2-3.3,2.7-3.3,2.7
		s-5.4,0-8-2l4.9-5.4c0,0,19.8-1.5,22.5-4.3c2.7-2.9,0.4-4.4-2.4-4.8c-2.8-0.4-8.2,0.3-8.2,0.3s0.2,2.2-0.3,3
		c-0.5,0.8-2,3.1-2.3,2.2c-0.3-0.9,1.3-3.7,1.1-4.6c0,0-19.7-0.3-19.9-0.3c-0.2,0,0.7,3.6-1.4,4.6c0,0-2-1.9-1.8-5
		c0,0-13.4-1.5-18.3-6.8c-4.5-5-5-7.9-0.5-12.6c4.5-4.6,16.5-15.1,13.7-20.1c-2.8-4.9-14.2,6-19.6,10.8c-5.4,4.8-13.6,12-17.3,14.2
		c-3.7,2.3-7.2,2.5-11.2,10.7C55.3,165.7,56.4,160.9,56.4,160.9"/>
	<path class="st0" d="M73.1,147.2c0,0,6.9,0.1,12.3,3.1l-2.3,2.5c0,0-6.9-3.3-10.9-3.1L73.1,147.2z"/>
	<path class="st0" d="M81.7,174c0.5-4,11-4.6,17.1-10.8c2.5-2.6,2.7-1.8,1.2-0.2c-1.5,1.6-6.6,5.8-9,7C88.6,171.2,81.7,174,81.7,174
		"/>
	<path class="st0" d="M128.1,204.1l-4.3,1.9c5.2,5.4-3.5,5.2-8.4,5.4c-4.9,0.2-13.6-1.4-19.3-1.5c-5.6-0.1-15.3,1.8-18.5,2.9
		c-3.2,1.1-28-0.8-30.3-0.6c-2.3,0.2-6.3,4.4-9,6.4c-2.7,1.9-10.8,4.5-16,7.7c-5.2,3.2-20.8,12.6-21.1,15.1c0,0,12.2-8,20.5-13.2
		c8.4-5.2,10.7-3.6,15.1-7.3c4.4-3.7,6.8-4.4,9.8-5.6c3-1.3,17.6,0.4,22.6,0.6c5,0.2,7.5,2.3,12.2,2.1c4.6-0.1,16.6-4.9,20.7-4.8
		c4.1,0.1,8.5,1.5,12.8,1.7c4.3,0.1,8.8-2,11.5-4.1C129.2,208.8,128.1,204.1,128.1,204.1 M80,214.9c2.3-2,4.8-1.2,8.7-1.3
		C86.9,216.1,79.1,215.7,80,214.9"/>
	<path class="st0" d="M81.7,198c2.1-2.9,4.3-4.6,12-4.4c7.7,0.3,11.9,2.3,11.9,2.3l-3.9,2.4c0,0-4.6-1.7-8.4-1.7
		C89.5,196.5,85.9,196,81.7,198"/>
	<path class="st0" d="M97.9,194.5c1.7-3.3,6.6-5.8,11.4-5.4c1.9-2.5,5.1-1.8,6.9-1.8c0,0,4.1-4.3,7.9-4.1c3-3.3,9.8-7.8,12.4-8.3
		s9.1-1.3,8.4,5.3c0,0-2.9,6.5-3.1,3.3c-0.1-3.2-0.3-5.5-4-5.7c-3.7-0.2-4.4-1.1-14.4,7.2c-4.4,1.3-10,3.3-10.4,7.1
		c-0.5,3.9-2.8,1.9-2.8,1.9s1.2-1.3-0.4-1.9c-1.6-0.6-6.6-1.7-10.8,2.7L97.9,194.5z"/>
	<polygon class="st0" points="126.4,184.1 127.5,184.9 125,187 123.3,185.7 	"/>
	<path class="st0" d="M100.2,201.4c0.3-2.6,2.9-5.5,5.2-6.4c2.3-0.9,7.7-4,15.5-4.4c0,0,6.6-5.1,10.8-5.6c4.2-0.5,9-0.1,10.8,1.7
		c1.7,1.7,1.9,4.6,0,6.2c-1.9,1.7-31.7,18.9-33.5,18.9c-1.8,0.1-5-0.5-5-0.5s10-3.8,19.4-8.7c9.4-4.9,17.5-9,17.3-11
		c-0.1-2.1-2-3.6-6.3-3.6s-11.3,0.9-15,7.2c-2.1-2.1-3.9-2.3-9.3,0.2C104.7,197.8,105.2,197.1,100.2,201.4"/>
	<path class="st0" d="M138.5,185.9c0.9-2.6,8.4-8.2,11.6-5.8c3.3,2.4,3.8,6.9,3,8.6c-0.8,1.7-11.7,8.6-16.6,11.4
		c-4.9,2.8-18.9,9.3-24.5,9.9l9-5.1c0,0,7.7-1.3,14.7-5.6c7-4.3,13.7-7.9,14.3-9.4c0.5-1.5-1-3.6-3-4.3c-2-0.7-6.2-0.9-7.3,0.5
		C138.7,187.5,138.5,185.9,138.5,185.9"/>
	<path class="st0" d="M146.1,193.9c0.2,1.5-0.7,3.5-2.4,4.6c-1.7,1.2-2.7,3.4-11.6,3.3l4.8-2.5c0,0,2.8,0.8,4.8-0.7
		c2-1.5,0.9-3,0.9-3L146.1,193.9z"/>
	<path class="st0" d="M60.7,178.8c0,0,7.8,8.8,9.7,9.4c1.9,0.7,6.4,0.9,6.4,0.9l-2.9,3.5c0,0-5.3-0.6-6.6-1.4
		c-1.3-0.8-8.5-8.2-8.5-8.2L60.7,178.8z"/>
	<path class="st0" d="M67.2,197.8c-0.5-4.1,0.5-5.7,2.7-6.9C72.1,191.4,70.2,197.4,67.2,197.8"/>
	<path class="st0" d="M61.5,181.5c2.3-0.7,14.1-0.7,21.7,2.8c8-0.9,9.9-0.7,12.4-0.1c3.5-3.5,6.7-4.6,8.8-5.2c1.9-2.7,6-4.9,7.6-5.5
		c1.4-2.3,8.1-8.8,12.2-8.1c4.1,0.7,4.7,4.2,3.1,5.5c-1.6,1.3-5.4,5.8-6.6,7c-1.2,1.2-8.5,7.6-8.2,9.9c0.3,2.3-2.9,1.9-2.9,1.9
		s4.7-6.8,8.9-10.8c4.2-4.1,8.2-8.2,5.4-9.6c-2.9-1.4-6.6-1.4-10.5,3.9c0,0,1.7,1.8,1.5,1.9c-0.2,0.1-2.3,2.5-2.3,2.5l-1.3-2.4
		c0,0-4.6,2.6-5.3,3.7c0,0-0.6,1.7,0.3,2.1l-1.9,2.3c0,0,0.5-2.1-0.9-1.9c-1.4,0.2-5,1.9-6,3.5c0,0-0.6,2.3,0.5,2.7l-2.4,2.1L94,187
		c0,0-3-0.3-5.3-0.3c-2.3,0.1-6.2-0.6-8.6,3.5c0,0-0.9,0.6-0.2-0.8c0.7-1.4,1.4-2.3,0.5-2.6c-0.9-0.3-11.4-4.2-15.3-1.3
		C61.1,188.4,61.5,181.5,61.5,181.5"/>
	<path class="st0" d="M64.1,176.3l-1.7,2.5c0,0,14.2,0.3,17.9,0c3.7-0.3,11-2.1,11-2.1l2-2.1c0,0-10.9,2.1-14.5,2.2
		C75.2,176.8,64.1,176.3,64.1,176.3"/>
	<path class="st0" d="M100.2,166.2c-1.8,1.1-6,7.2-8.2,9.4c-2.2,2.2-9,8.5-9.2,9.6c-0.2,1.1-0.2,1.3,0.9-0.3s7.8-7.5,9.2-9.2
		C94.3,174.1,100.3,167.3,100.2,166.2"/>
	<path class="st0" d="M93.5,184.7c0-1.8,1.5-3.3,3.5-4.7c1.9-1.5,4.9-3.5,5.3-3.2c0.4,0.3-2,2.5-3.1,3.2c-1.1,0.7-4.2,1.9-4.9,4.3
		L93.5,184.7z"/>
	<path class="st0" d="M205.5,131.1c0,0,3.4,10.5,7,12.9c0,0-1.6,4.3-2.4,3.5c-3.8-4.2-6.6-10.2-7.8-13.1L205.5,131.1z"/>
	<path class="st0" d="M217.9,140.4c-0.2-4.9,2.1-11.5,3.9-13.9c-0.2-4,0.9-6.4,3.2-8.4c2.3-2,4.6-3.1,8.6,0.7
		c4,3.7,4.3,8.2,4.3,10.4c0,2.2-1.3,7.5-2.7,8.8c-1.4,1.3-2.4,5.5-1.8,6.6c0.6,1.1,9.8,12.4,10.8,12.9c1,0.5,14.2,3.5,17.3,3.1
		c3.1-0.5,16.2-2.9,23.5-3.1c7.3-0.2,11.5-1.3,15.7-1.3c4.3,0.1,11.2,0.7,11.1,4.8c-0.1,4.1-3.2,6.4-8.6,6.3c-5.4-0.1-6.1-0.1-9,1.1
		c-2.9,1.2-4.6,3.4-5.5,3.3c-0.9-0.1-12.9,2.1-11.1,2.7c2.7,1,4.7,2.2,8.9,1.8c4.2-0.4,6.4,1.6,12.3,1.6s12.4-0.5,14.6,0.1
		c2.3,0.6,6.2,4.4,6.2,6.2c-0.1,1.9-1.7,5.5-7.8,5.9c-6.1,0.4-19.7,1.1-22.8,1.3c-3.1,0.1-8.2,0.9-11.4,0.8
		c-3.3-0.1-11-0.9-15.1-0.9c-4.1,0-13.7,1.7-17.9,0.5c0,0,2.5-2.5,2.3-2.3c-0.2,0.1,13.2-0.8,15.8-0.8c2.6,0,12.4,1.4,15.3,1.3
		c3-0.1,19.1-1.6,23.2-1.7c4.1-0.1,12.9,0.7,14.7-1c1.8-1.7-0.5-5-4.8-6.1c-4.3-1.1-13.3-0.4-16.3-0.5c-3-0.1-4.6-1.5-8.2-1.3
		c-3.6,0.1-8.5-2.3-12.1-2.1c-3.6,0.3-11.4-0.4-14.2,1.6c0,0-0.9-2.2,2.3-3.1c3.1-0.9,14.9-3,19.4-4.5c4.4-1.5,7.3-1.9,8.5-1.9
		c0,0,3.1-2.8,5-3.1c1.9-0.3,11.2,0,12.8-1.1c1.6-1.1-0.1-4.9-3.4-5.7c-3.3-0.8-14.9,0.2-22.2,0.9c-7.2,0.7-17.2,0.9-20.9,2.3
		c-3.7,1.4-14.5-0.5-22.8-2.8l0.2-1.8c0,0-8.8-9.4-8.8-12.6c-0.1-3.2,2.2-5,3.3-7.6c1.1-2.5,1.3-11.2-1.3-13.9
		c-2.6-2.8-5.7-5.8-7.3-4.4c-1.6,1.3-1.2,6.3-1.7,7.9c-0.5,1.6-3.7,3.3-3,10L217.9,140.4z"/>
	<path class="st0" d="M225,119.2c1.1,3.3,2.7,7.4,4.8,8.6c0,0-0.9,3.6-3.5,5.2c0,0-3.9-1.4-4.1-4.2c-0.1-2.9,0.7-3.3,0.7-3.3
		s2.1,4.1,3.4,4.4c1.3,0.3,2.1-0.3,1.1-1.2c-1.1-0.9-3.6-2.7-3.8-5C223.4,121.4,225,119.2,225,119.2"/>
	<path class="st0" d="M231.5,115.3c0.7,9,14.8,19.7,15.6,24l-2.7,3.2l4.6,3.1l2.7-3.3c0,0,0.1-3.6-2.7-7.4s-15.7-16.5-14.9-21.5
		L231.5,115.3z"/>
	<path class="st0" d="M245.9,152.6c0.1-3.8,2.3-7.8,4.6-9.8c2.3-2,12.5-9.4,15.2-10.5c2.7-1.1,9-3.9,10.8-5.6
		c1.8-1.7,14.3-13.7,16.7-14.1c2.5-0.4,8.6-0.4,7.9,5.6c-0.4,3.5-5.2,7.7-8.8,10.9c-2.7,2.5-10.5,7.8-11.2,8.7
		c-0.7,0.9-0.8,5.2-0.1,6.2c0.7,1,5.5,6.6,6.4,6.6c0.9,0,3.9-2.4,5.9-4.1c2-1.7,5.4-3.5,8-1.7c4.3,3.1,0.1,10.1-2.3,12
		c-2.4,1.9-2.5,1.1-1.6,0.1s3.2-4.8,3.1-6c-0.1-1.2-1.7-3.8-4.1-3.8c-2.4,0-11.1,7.1-12.2,6.2c-1.1-0.9-6-5.2-6.2-6.7
		c-0.2-1.5-0.4-5.6,0.3-6.9c0.7-1.3,10.2-9.8,12.8-11.4c2.6-1.6,10.3-8.4,5.4-11.8c-4.9-3.3-9.9,0.9-13,4c-3.1,3.1-7.4,8-11,9.8
		c-3.6,1.8-12.8,6.1-15.9,8.6s-9.4,7.2-8,11.6L245.9,152.6z"/>
	<path class="st0" d="M281.5,124.8c0.2-0.1,2.5-2.3,2.5-2.3l3.7,4.5l-2.3,2.5L281.5,124.8z"/>
	<path class="st0" d="M263.9,135.7l2-2.5c0,0,6.5,2.9,7.8,4.8l-2,2.8C271.8,140.8,268,136.6,263.9,135.7"/>
	<path class="st0" d="M278.8,152.8c-3.5,3.9-9.2,9.8-17.1,7l1.4-2.3C263.1,157.5,270.1,159.1,278.8,152.8"/>
	<path class="st0" d="M284.8,152.6c0,0-3.4,3.9-3.2,3.9c0.2,0,4.3-4,4.3-4L284.8,152.6z"/>
	<path class="st0" d="M285.5,157.6l0.3-1.5c0,0,1.6-2.3,2.3-2.9v4.7L285.5,157.6z"/>
	<path class="st0" d="M244.2,179.1c-0.1-0.1-2.4,3-2.4,3s5.6,0.9,7.8,0.1c2.2-0.8,6.2-2.8,7.2-5
		C253.5,178.9,247.8,182.3,244.2,179.1"/>
	<polygon class="st0" points="281.5,172.4 283.2,172 282.7,177 281.1,176.6 	"/>
	<path class="st0" d="M287.8,172.6l-1.7,1.8l-0.1,2.9l1.9-0.1C287.9,177.2,288.8,173.8,287.8,172.6"/>
	<path class="st0" d="M291.2,177.3c0,0,0.2-4.3,0.9-5.2c0.7-0.9,2.7-2.3,2.7-2.3s-0.2,4.4-0.7,4.9c-0.5,0.5-1.9-0.1-1.6,2.3
		C292.6,179.5,291.2,177.3,291.2,177.3"/>
	<path class="st0" d="M299.9,166.9c3.7,1.6,6.3,3.8,6.2,5.2c-0.1,1.4-1.3,4.7-7.4,6.2l4.5,0.1c0,0,5.8-5,5.6-7
		c-0.2-2.1-0.5-4.4-1.8-4.9C305.8,165.9,299.9,166.9,299.9,166.9"/>
	<path class="st0" d="M290.2,190.4l1.8,1.1l-3.4,4.5l5.6-4.1c0,0,4.1,1.7,6.6,3.5c2.5,1.9,4.9,6.4,3.7,7.4c-1.2,1-5.1,1.9-10.4-2.3
		c-5.2-4.1-6.1-2.3-8.4-4.6c-2.3-2.3-3.8-3.6-3.2-4.8c0.6-1.2-9.6-0.2-9.6-0.2s2.8,3.3,3.7,3.8c0.9,0.5,2.7-0.5,3.6,0.9
		c0.9,1.4,4.1,3.8,6,4.5c1.9,0.7,4.6,3,6.7,4.2c2.1,1.3,10.1,1.7,12-0.8s3.7-6.6,0.7-9.4c-3.1-2.9-5.2-2.1-5.4-3.9
		C300,188.6,290.2,190.4,290.2,190.4"/>
	<path class="st0" d="M306.2,196.5c2.2,1.5,5.2,5.5,2.2,9c-3.1,3.5-6.5,2.5-10.6,2.3c-4.1-0.2-12.4-1.5-16-1.5
		c-3.7,0-7.7,0.1-14.2-2.3c-6.5-2.4-16.1-7.2-26.2-7.2c-10.1,0-12.9-3.5-12.9-3.5l1.4-3.3c0,0,8.3,3.6,14.3,3.9
		c6,0.3,12.5,2.1,19.9,5.1c7.3,3,8.5,4.5,18.2,4.8c9.7,0.3,22.5,2.7,24.3,1.2c1.8-1.5,0.5-3.3-0.5-4.7L306.2,196.5z"/>
	<path class="st0" d="M283.3,205.8c1.3,1.6,5.2,4.8,3.9,5.8c-1.4,1-4.5,0.1-4.5,0.1l1.7,3.1c0,0,3.7-0.8,4.7-2.6
		c1.1-1.8,0.7-5.9-0.5-6.6C287.3,205,283.3,205.8,283.3,205.8"/>
	<path class="st0" d="M281.5,205.2c-0.3,0.1,2.5,6.7,3.5,8c1,1.3,3.7,5.4,2.7,7.8c-1,2.4-4.5,6.6-7.2,5.6
		c-2.7-1.1-10.5-11.8-12.1-15c-1.6-3.2-3.9-6.3-3.5-10l4.2,1.6c0,0-1.1,0.9,0.3,3.4c1.4,2.5,8.2,14.5,10.6,15.7
		c2.4,1.2,4,1.9,4.9,1.1c0.9-0.9-3.6-10.8-6-14.1c0,0-1.7,1.5-2.7,1.3c-1.1-0.1-2.2,0.9-2.5,1.3c-0.3,0.4-0.7-0.3,0.6-1.6
		c1.3-1.3,2.8-1.9,3.9-1.9l-0.9-3.1L281.5,205.2z"/>
	<path class="st0" d="M163.5,212c1.2-2,2.2-3.1,4.2-3.5c2-0.4,4.8-1.7,8.7-3.9c12.2-6.8,24.2-6,28-8.2c3.8-2.2,12-6.9,15.7-6.8
		c3.7,0.1,14.1,2.9,21.4,5.6c7.4,2.7,23.5,13.2,26.4,13l2.5,3.7c0,0-5.3,0.9-6.6-0.3c-1.3-1.2-18.5-12.2-26.5-14.1
		c-8-1.9-15.4-4.9-17.9-5c-2.5-0.1-9.8,1.6-11.2,2.9c-1.3,1.3-5,3.5-8.3,4.3c-3.3,0.8-12.7,2.8-16.1,3.9
		C180.4,204.8,166,212.6,163.5,212"/>
	<path class="st0" d="M171.3,172.8l3-3.6c0,0,9.2-0.2,12.1-1.2c2.9-1,10.6-4.2,12.2-6.2c1.7-2.1,1.9-5.2,3.7-7
		c1.8-1.8,7.2-7,8.4-8.8c1.2-1.8,4.3-7.5,8-8.5l0.2,1.1c-4.6,1.6-5.6,5.7-7.3,8c-2.3,3.1-4,3.3-6.5,6.8c-2.5,3.5-4.4,8-6.1,9.6
		C197.3,164.4,187,172.7,171.3,172.8"/>
	<path class="st0" d="M4.5,111.6c7.9,1.9,7.7,5.2,10.3,5.4c2.6,0.2,5.6,4.9,5.6,4.9s-4.5,0.2-7.1-1.5
		C10.7,118.7,4.5,111.6,4.5,111.6"/>
	<path class="st0" d="M16.7,153.6c-2.2-3.7-4.9-4.1-8.2-4.1c-3.4,0-8.4,3.9-3,5.1c5.4,1.1,4.7-0.4,5.8-1.1c0,0-4.7,0.8-4.3-0.8
		C7.3,151.1,10.9,151.7,16.7,153.6"/>
	<path class="st0" d="M137.7,125.3c3.9-2.6-8.1,3.9-11.2,6.7c-3.2,2.8-4.1,5.6-4.1,8.4C127.7,136.5,132.6,128.7,137.7,125.3"/>
	<path class="st0" d="M133.2,153.9c3-6.9,10.3-12.6,12.7-10.5c2.4,2.1-10.7,14.2-15.7,15.4c0,0,13.1-11.4,12.5-12
		C142.2,146.3,133.2,153.9,133.2,153.9"/>
	<path class="st0" d="M101.1,153.4c-1.1-8.8,5.4-18,9.2-17c3.7,0.9,1.7,13.9-5.1,20.4c-4.7,4.5-14.5,28.1-13.9,23.6
		c0.2-1.3,5.1-13.3,8.4-18.4c3.4-5.1,10.9-20.8,9.2-21.7C107.3,139.3,101.9,159.6,101.1,153.4"/>
	<path class="st0" d="M88.6,166.7c2.4-6.6,0.4-38.2-3-38c-3.4,0.2-4.1,29.6-0.7,42.3c0,0-1.3-31.8,0.4-32.2
		C87.8,138.2,86,174,88.6,166.7"/>
	<path class="st0" d="M48.5,160.3c-5.4-1.7-10.1-5.1-9.4-6.2c0.7-1.1,3.9,0,7.3,2.8c3.4,2.8,9.2,7.7,12,7.7
		c-1.9-7.9-19.9-17.2-21.9-14.4C34.5,153,36.3,160.1,48.5,160.3"/>
	<path class="st0" d="M54.9,168.8c-6.2-4.8-17.8-4.3-17.6,0.4c0.2,4.7,5.6,5.2,5.6,5.2s-4.5,3.4-2.1,7.5c2.4,4.1,9.6,0.9,14.6-4.7
		c5.1-5.6,11.2-3,13.7-1.7c2.4,1.3,3.4,3.7,8.8,3.7c0,0-3.9-5.6-7.1-6.9c-3.2-1.3-9-0.9-12.2,0.8c-3.2,1.7-13.5,9.4-14.8,6.9
		c-1.3-2.4,2.3-6.4,6.2-6.4c0,0-10.3-1.5-10.1-3.4C40.1,168.4,45.9,167.1,54.9,168.8"/>
	<path class="st0" d="M65.4,198.5c-6.4-3.4-16.7,3.9-14.8,6.6c1.9,2.6,8.8,0.2,11.4-1.9c0,0-6.7,2.1-7.3,0.9
		C53.4,201.6,59.8,202.1,65.4,198.5"/>
	<path class="st0" d="M64.6,3c-1.7,10.3-1.7,55.6-0.7,66.1c0.9,10.5-2.2,89.2-2.4,97.8c-0.2,8.6,4.3-72.3,4.5-81.9
		c0.2-9.6,0.9-48.7,0.4-55.4C65.7,22.8,64.6,3,64.6,3"/>
	<path class="st0" d="M68.9,49.8c-0.9,6-1.7,22.3-1.3,28.5c0.4,6.2-1.9,16.1-1.1,20.2c0.7,4.1,1.1,15.9,1.1,28.8
		c0,12.9,0.6,35.2,0.4,39.7c-0.2,4.5,2.1-17.6,1.3-26.8c-0.7-9.2,1.5-32.4,0.9-39.3c-0.6-6.9,0.2-28.1-0.4-31.7
		C69.3,65.7,68.9,49.8,68.9,49.8"/>
	<path class="st0" d="M73.4,38c-0.2,11.4-0.6,25.5,0.2,27.5c0.8,2.1-0.6,13.5,0.2,15.7c0.7,2.2,2.4,24.9,2.2,29.6
		c-0.2,4.7,0.9,38.6,0.7,45.3c-0.2,6.7,1.1-22.1,0.9-30.2c-0.2-8.1,1.5-13.7,0.9-16.7c-0.6-3-1.3-9.7-1.3-14.2
		c0-4.5-0.6-28.8-0.8-32.4C76.4,59.2,73.4,38,73.4,38"/>
	<path class="st0" d="M69.7,2.8c1.6,14.3,4.7,24.2,5.2,27.5c0.6,3.4,3.4,11,3.9,16.1c0.6,5.1,5.4,34.1,5.1,47
		c-0.4,12.9,0.6-21.4-0.4-32.2c-0.9-10.9-6.7-41.6-8.8-45.1C72.7,12.5,69.5,1.1,69.7,2.8"/>
	<path class="st0" d="M84.1,3c-1.3,3.5,0.4,55.4,0.6,64.8c0.2,9.4,10.3,101.9,11,112.4c0.7,10.5-3.2-47.6-4.1-56.8
		C90.7,114.2,85.2,0,84.1,3"/>
</g>
</svg>
