<?xml version="1.0" encoding="utf-8"?>
<!-- Generator: Adobe Illustrator 19.0.1, SVG Export Plug-In . SVG Version: 6.00 Build 0)  -->
<svg version="1.1" id="Слой_1" xmlns="http://www.w3.org/2000/svg" xmlns:xlink="http://www.w3.org/1999/xlink" x="0px" y="0px"
	 viewBox="0 0 266 358" style="enable-background:new 0 0 266 358;" xml:space="preserve">
<style type="text/css">
	.st0{fill:#616C90;}
</style>
<path class="st0" d="M26.6,31.3c-1.1-3.9,1.1-5.9,5-6c3-0.1,5.5,2.9,7.1,5c2.7,3.7,5,10.6,2.1,14.5c-0.5-1-1.1-1.9-1.6-2.9
	c4.5,2.1,12.4,4.7,15.4,8.8c2.8,3.8,4.5,8.3,4.9,13.1c0.4,5.5-2.8,11.3-4.7,16.2c-2.1,5.8-9,3.1-12.1-0.1c-1.9-1.9-2.3-3.8-5.5-2.8
	c-0.7,0.2-1.1,0.4-1.9,0.5c-0.6,0.1-1.7-1.3-1.8-1.2c-2,0.4-3.5-0.2-4.6-1.9c-0.5-0.7-1-1.4-1.4-2.2c-1.5-2.6,0.6,0.6-0.4,0.8
	c-1.7,0.4-2.7,3-4.8,1.8c-1-0.5-1.4-1.5-1.9-2.4c-2-3.9-3-8.5-4.4-12.7c0.6,0.9,1.1,1.8,1.7,2.7c-1.1,0.2-3,1.2-3.9,0.2
	c-1.6-1.7-2.8-3.7-4.5-5.2c-3-2.6-5-6.1-6.8-9.6C-2.7,37.5,1,25.4,7.2,16.3c7-10.2,18.4-13.1,30-9.2c3.2,1.1,6,2.9,8.6,5.1
	c1.5,1.3,2.6,3.4,4.4,4.4c4.2,2.3,7.7,4.8,12.5,5.2c0.8,0.1,1.3,2.9,1.7,2.9c-5.1-0.4-11.4-3.2-14.8-7.2c-7.8-9-21.8-12.1-32.4-6.5
	c-9.4,5-14.6,17.7-15.5,27.8c-0.5,5.6,1.4,11.3,5.4,15.4c0.5,0.5,1.2,0.9,1.7,1.6c2.4,3.4,3.1,4.6,7,3.8c0.5-0.1,1.5,2.3,1.7,2.7
	c0.9,2.5,1.8,5.1,2.6,7.6c0.5,1.3,0.9,2.7,1.4,4c0.3,0.8-2.8-2.2-0.2-1.8c1,0.2,0.8,0.1,1.6-0.4c1.9-1.3,3-2.6,4.4-0.3
	c0.3,0.5,0.7,1.1,0.9,1.7c-0.9-2.6-0.8-0.1,1.9,0.4c0.6,0.1,1.2,0,1.8-0.1c0.1,0,0.3,0.3,0.4,0.4c1.2,1.7,3.5,0.3,5-0.2
	c1.8-0.6,4.4,4.1,4.7,4.5c3.6,3.6,9.5,3.3,11.3-1.6c2.3-6.2,5.1-11.8,4-18.6c-1.2-7.1-10.7-10.3-16.6-13c-0.4-0.2-1.9-2.6-1.6-2.9
	c2.6-3.6,0.9-10.1-2.5-12.5c-3.9-2.7-9.7-0.5-8.2,4.7C28.2,33.5,26.9,32.2,26.6,31.3"/>
<path class="st0" d="M24.1,71.9c0-1.3,1-2.3,2-3c0.2-0.1,0.5,0,0.4,0.3c-0.2,0.9-1.2,1.5-2,1.8c-0.3,0.1-0.5-0.4-0.2-0.5
	c0.6-0.2,1.5-0.7,1.6-1.4c0.1,0.1,0.3,0.2,0.4,0.3c-0.8,0.5-1.8,1.4-1.7,2.4C24.6,72.2,24.1,72.3,24.1,71.9"/>
<path class="st0" d="M57.9,61.8c3.1,0.6,5.5,0.2,8.4-0.7c3.2-0.9,7.1-2.3,10.4-1.6c0.9,0.2,1.2,2.8,1.7,2.9
	c-3.2-0.6-6.9,0.7-9.9,1.5c-3.1,0.9-5.6,1.5-8.8,0.8C58.7,64.6,58.4,61.9,57.9,61.8"/>
<path class="st0" d="M73.1,29.7c-8.1,9,3.3,26.6,9,32.2c0.7,0.7,1.1,2.5,1.6,2.9c-6.2-5.9-10.6-13.2-13.2-21.3
	c-1.7-5.2-3.1-12.1,0.9-16.7C71.3,26.8,73.4,29.2,73.1,29.7"/>
<path class="st0" d="M74.7,23.9c-4.6,9.6-1.4,22.3,3.8,30.8c0.6,0.9,1.4,3,0.2,0.9c-6-9.9-11.1-23.4-5.7-34.7
	C72.8,21.3,75,23.2,74.7,23.9"/>
<path class="st0" d="M70.7,21.3c0,1.4,0.1,2.9,0.1,4.3c0,1.1,0.1,2.2,0.2,3.4c0,0.5,0.1,0.9,0.1,1.4c0.1,1.1,0.8,1.8-0.6-0.4
	c0.6,0.9,1.4,3,0.2,0.9c-2.2-3.6-1.7-8.3-1.7-12.4C69,19,70.7,20.4,70.7,21.3"/>
<path class="st0" d="M83.4,56.1c1.7,2,4,3.6,6.2,5c6.2,3.8,13.3,5.9,20.4,6.9c0.4,0.1,0.3,0.6-0.1,0.6c-7.2-1-14.3-3.1-20.6-7
	c-2.3-1.4-4.7-3.1-6.5-5.1C82.7,56.2,83.2,55.9,83.4,56.1"/>
<path class="st0" d="M115,12.3c6.6,4.9,13.6,11.5,16.3,19.6c0.1,0.3-1.4-1.8-1.6-2.5c-1.9-5.7-8.4-10.7-13.1-14.2
	C115.8,14.6,115.4,12.6,115,12.3"/>
<path class="st0" d="M117,18.5c4.2,4,8.7,8.4,13.8,11.1c1.2,0.6,2.7,2.3,3.4,3.6c0.4,0.7,1.9,1.9,0.7,1.1c0.8,0.5,1.6,1,2.4,1.5
	c7.8,5,14.3,9.1,20.4,16.1c7.7,9,14.6,19.1,18.5,30.3c6.5,18.3,11.2,37.8,11.1,57.3c0,0,0,0.1,0,0.1c-7.3,0.8-14.6,1.5-21.9,2.3
	c-0.5,0.1-1.5-2.3-1.7-2.7c-3.2-8.7-6.8-17.3-10.8-25.6c-2.1-4.4-4.7-8.5-7.2-12.6c-4-6.6-9.8-15-16.3-19.4
	c-3.1-2.1-6.1-4.2-9.2-6.3c-1.9-1.3-4.9-1.4-6.6-2.9c-7.8-6.7-16.1-13.6-25.5-18c-0.8-0.4-1.2-2.7-1.6-2.9c6.1,2.9,11.6,7,17,11.1
	c3.2,2.5,6.4,6.2,10.2,7.7c10.2,4.1,18,11.4,24.8,19.9c12.2,15.1,20,33.3,26.7,51.5c-0.6-0.9-1.1-1.8-1.7-2.7
	c5.1-0.5,10.1-1.1,15.2-1.6c2.2-0.2,4.4-0.5,6.6-0.7c1-0.1-1-16.7-1.2-18.3c-2.4-17.5-6.7-36.9-16.4-51.9
	c-4.5-6.9-9.6-13.6-15.8-19.1c-2.9-2.6-6.6-4.5-9.9-6.6c-1.9-1.2-3.9-2.5-5.8-3.7c-1.7-1.1-1.8-2.6-3-3.7c-4.5-4.3-10.2-7.6-14.8-12
	C117.9,20.7,117.4,18.9,117,18.5"/>
<path class="st0" d="M129.4,12.8c-0.4,1.5,1,4.1,1.6,5.5c3.8,8.5,9.7,16.2,15.4,23.5c0.2,0.3-0.2,0.6-0.5,0.3
	c-5.7-7.4-11.6-15.1-15.4-23.7c-0.7-1.5-2.1-4-1.6-5.8C128.9,12.3,129.5,12.4,129.4,12.8"/>
<path class="st0" d="M85.8,40c0.7,2.3,3.4,5.4,5.2,7.5c2.9,3.5,6.2,6.5,8.9,10.2c0.3,0.4,1.8,3.3,1,2.2
	c-5.4-7.3-14.2-13.6-16.8-22.7C84.2,37.8,85.5,39,85.8,40"/>
<path class="st0" d="M88.5,62.3c4.5,3.3,10.5,5.2,16.1,4.5c0.4,0,0.4,0.5,0.1,0.6c-5.7,0.8-11.9-1.2-16.5-4.6
	C87.8,62.5,88.2,62.1,88.5,62.3"/>
<path class="st0" d="M157,121.6c-9.8-4.3-19.7-8.5-29.8-12.1c-3.9-1.4-7.3-2.8-11.1-4.8c-2.1-1.1-4.9-2-6.4-3.9
	c-4.2-5.5-9.8-9-14.8-13.5C91,83.9,86,80.5,83.1,76.2c-4.6-7-6.8-15.4-8.3-23.5c0.1,0.5,1.5,1.8,1.7,2.8c0.7,3.8,1.7,7.6,2.8,11.3
	c1.1,3.5,2.2,7,4.9,9.5c2.5,2.4,5.1,4.7,7.7,7c4.4,4,9.3,7.2,13.4,11.5c1.8,1.8,3,4,5.1,5c3.1,1.4,6.1,3.1,9.2,4.7
	c4.1,2.1,8.9,3.2,13.2,4.8c7.6,3,15.2,6.1,22.6,9.4C156.2,119.1,156.6,121.5,157,121.6"/>
<path class="st0" d="M185,124c19.5,6.6,50.1,12.1,66.3-4c11.3-11.3,8-29.7,7.5-44.2c-0.2-5.4-1.5-11-2.8-16.2
	c-2.5-10.6-6.4-23.4-16.6-28.9c-28.9-15.8-61.3-24.6-94-27.3c-8.7-0.7-17.4-0.6-26.1,0c-9.5,0.7-19.9,1.5-28.8,5
	c-6.9,2.7-12.9,5.9-17.4,11.9c-1.1,1.5-4.8,1.8-6.5,2.3c-0.6,0.2-2.2,0.3-2.2,1c0,3.8,2.1,7.6,4.4,10.3c0.4,0.5,1.5,2.9,1.3,2.6
	c-3.7-4.3-7.7-10.3-7.5-16.2c0,0,0-0.1,0-0.1c2.8-0.8,5.5-1.6,8.3-2.4c0.9-0.3,2.6-3.4,3.3-4.2c2-2.1,4.7-3.5,7.2-4.9
	c10.5-5.7,22.5-7.1,34.3-8.1c23-2.1,46.9,0.7,69.2,6.5c18.3,4.8,36.6,11.7,53.2,20.8c13.6,7.5,18.6,27.8,21.1,41.7
	c1.7,9.3,1.6,18.7,1.9,28.2c0.5,13.9-5.2,26.4-18.5,31.8c-16.9,7-39.1,3-55.9-2.7C185.8,126.7,185.6,124.2,185,124"/>
<path class="st0" d="M140.1,92.4c-1.3-6.1-3-13.3-6.7-18.3c-0.3-0.4-1.8-3.3-1-2.2c5,6.7,7.7,15.2,9.4,23.3
	C141.7,94.6,140.3,93.3,140.1,92.4"/>
<path class="st0" d="M123.1,76.2c-3.1,1.5-6.4,2.5-9.7,3.3c-5.8,1.4-12.1,1.9-17.7-0.2c-0.3-0.1-0.1-0.6,0.2-0.5
	c5.7,2.2,12.1,1.5,17.9,0c3.1-0.8,6.2-1.8,9-3.1C123.2,75.5,123.4,76,123.1,76.2"/>
<path class="st0" d="M178.8,91.3c1-7.1,3.3-14.2,6.4-20.6c1.2-2.5,2.6-4.8,4.2-7.1c0.8-1.1,1.7-2.2,2.6-3.2c0.7-0.7,1.6-1.4,2.2-2.2
	c1.1-1.5,2.1-3,3.1-4.6c1.2-1.9,2.6-3.9,3.3-6c0.1-0.3,0.7-0.3,0.6,0.1c-0.5,1.9-1.7,3.7-2.8,5.3c-1.1,1.7-2.2,3.4-3.4,5
	c-1.1,1.6-2.7,2.9-4,4.4c-1.9,2.4-3.5,5-4.9,7.8c-3.3,6.5-5.7,13.8-6.7,21.1C179.3,91.8,178.7,91.7,178.8,91.3"/>
<path class="st0" d="M175.5,73.2c-1.3-8.1-3.4-16.1-6.1-23.8c-2.3-6.6-5-13-8.7-18.9c-0.4-0.7-1-1.3-1.2-2.1c-0.2-1-0.4-2.1-0.5-3.1
	c-0.3-2.8-0.3-5.9,0.9-8.5c0.1-0.2,0.4-0.2,0.5,0c2.9,4.2,5.2,8.8,7.2,13.5c4.8,10.9,7.6,22.7,8.2,34.6c0,0.4-0.6,0.4-0.6,0.1
	c-0.5-11.8-3.4-23.3-8-34.1c-2-4.7-4.3-9.4-7.2-13.7c0.2,0,0.3,0,0.5,0c-1.3,2.8-1.1,6.1-0.8,9.1c0.1,0.8,0.2,1.6,0.4,2.4
	c0.1,0.5,0.8,1.2,1.1,1.7c0.5,0.8,1,1.6,1.5,2.5c3.2,5.7,5.7,11.8,7.8,18c2.4,7.3,4.4,14.8,5.6,22.4
	C176.1,73.6,175.5,73.6,175.5,73.2"/>
<path class="st0" d="M165.6,57.4c-1.4-5-3-10-4.7-14.9c-1.4-4-3-8-4.8-11.8c-1.5-3.1-3.2-6.5-5.8-8.9c-0.3-0.2,0.1-0.7,0.4-0.4
	c2.4,2.3,4,5.3,5.5,8.3c2,3.9,3.5,8,5,12.1c1.8,5.1,3.5,10.3,4.9,15.5C166.2,57.6,165.7,57.8,165.6,57.4"/>
<path class="st0" d="M214.1,52.2c-5.7,3.2-11,7.2-15.7,11.6c-4,3.7-7.7,7.8-10.4,12.5c-0.5,0.8-0.8,2.1-1.4,2.7
	c-0.4,0.5-0.8,0.9-1.3,1.4c-1.7,2-3.4,4.3-4.3,6.8c-0.1,0.3-0.6,0.1-0.5-0.2c0.8-2.3,2.3-4.4,3.8-6.2c0.5-0.7,1.1-1.3,1.7-2
	c0.7-0.7,1-1.9,1.5-2.8c2.7-4.7,6.3-8.7,10.3-12.4c4.9-4.5,10.3-8.7,16.1-11.9C214.1,51.6,214.4,52,214.1,52.2"/>
<path class="st0" d="M229.5,57.5c-2.8,5.1-6.5,9.8-10.3,14.1c-8.4,9.4-18.7,17.1-30.5,21.7c-3.3,1.3-5.9,5-6.8,8.2
	c-0.1,0.3-0.7,0.3-0.6-0.1c0.8-2.7,2.3-4.9,4.4-6.7c1.5-1.3,3-1.9,4.8-2.7c6.4-2.7,12.3-6.4,17.7-10.7c7.5-6,14-13.3,19.2-21.4
	c0.6-0.9,1.1-1.8,1.6-2.7C229.1,57,229.7,57.2,229.5,57.5"/>
<path class="st0" d="M176.2,83.6c2.3-3,2.9-7.3,2.8-10.9c0,0.4,1.7,1.9,1.7,2.8c0,3.7-0.5,8-2.9,11C178,86.4,175.8,84.1,176.2,83.6"
	/>
<path class="st0" d="M164.8,141.1c1.2,7.9,1.9,15.9,2.9,23.9c0.4,3.5,0.5,7.1,0.7,10.6c0.1,1.8-0.1,3.5-0.2,5.2
	c-0.1,0.8-0.1,1.7-0.2,2.5c0.1-0.9-1.4-2.4-0.3-0.5c0.8,1.4,1.7,3,2.3,4.6c0.4,1.1,0.6,2.3,0.8,3.4c0.3,1,0.5,2.1,0.8,3.1
	c0.1,0.3,1,2.9,0.3,1.5c0.7,1.3,2,1.9,0.1,0.4c0.5,0.4,1.1,0.9,1.6,1.3c1.6,1.3,3.2,2.6,4.8,3.9c2.2,1.8,8.8,0.8,8-2.6
	c0.6,1,1.1,1.9,1.7,2.9c-5.8-2.1-11-5.6-12-11.9c0.1,0.5,1.6,1.8,1.7,2.8c0.4,3,1.3,1.9-1.1,0c1.1,0.9,2.2,1.8,3.4,2.7
	c2,1.6,3.5,2.5,6,3.4c0.8,0.3,1.3,1.5,1.7,2.2c1.3,2.6,0.3,3.5-2.1,3.7c-5.5,0.5-6.9-1.3-11.1-4.7c-2-1.6-3.5-4.2-4.1-6.7
	c-0.6-2.6-1.3-5.2-1.9-7.8c0.4,1.7-2.7-4.6-0.7-1.5c-2.3-3.6-0.8-7.8-1-11.9c-0.5-11.1-1.9-22.3-3.5-33.3
	C163.1,138.8,164.6,140.1,164.8,141.1"/>
<path class="st0" d="M174.2,178.1c-0.5,1.9,0.3,3,1.1,4.5c0.7,1.3,0.8,2.8,1.1,4.2c0.2,0.9,0.3,1.8,0.5,2.6c0.2,1,0,0.2,0.8,0.4
	c2.2,0.5,4.5,1.1,6.7,1.6c3.6,0.9,6.2-1.6,9.1-3.5c0.1-0.1,0.3-0.2,0.4-0.3c1.8-1.1-1.2-0.8-0.2-0.4c-0.8-0.3-2.6,0.6-3.3,0.8
	c-1.7,0.6-1,1.2-2.7,0.5c-1.3-0.5-2.7-0.9-4-0.6c-0.4,0.1-1.6-2.5-1.7-2.9c-0.2-0.7-1.5-3-0.3-1.7c-0.4-0.4-1.7-2.2-1.5-2.8
	c0.4-1.1,0.9-2.2,1.3-3.3c-0.2,0.4,2,2.1,1.7,2.9c-0.4,1.1-0.9,2.2-1.3,3.3c-0.5-0.9-1-1.9-1.5-2.8c1.8,2,2.7,4.6,3.3,7.1
	c-0.6-1-1.1-1.9-1.7-2.9c1.4-0.3,2.7,0.1,4,0.6c1.8,0.6,1.8-0.2,3.6-0.9c2.3-0.9,3.7-0.2,4.9,1.8c0.4,0.7,2,3.3,0.9,4
	c-1.6,1-3.7,3.1-5.6,3.5c-2.6,0.6-4.2,0.1-6.9-0.6c-1.8-0.4-4.5-0.5-5.6-2.2c-2.3-3.2-2.5-6.8-3.2-10.6c0.5,0.9,1,1.8,1.5,2.7
	c-1.9-2.3-4-5.4-3.1-8.5C172.3,175.7,174.4,177.1,174.2,178.1"/>
<path class="st0" d="M179.9,176.5c3.2,2.1,5.5,7.7,9.9,5.8c1.6-0.7,4-1,4.3-2.8c0.3-2.2,0-3.4-0.7-5.2c0.5,0.8,1,1.6,1.6,2.5
	c-1.5,0-3.1,0.4-3.4,2c0.1-0.6-1.9-2-1.7-2.9c0.3-1.6,1.9-2,3.4-2c0.5,0,1.4,2.1,1.6,2.5c0.8,1.9,1.1,3,1.1,5.1
	c0,0.7-0.1,1.5-0.2,2.2c0,0.3-2.4,1-2.7,1.1c-1.9,0.8-3.1,1.6-5.1,0.5c-2.6-1.4-3.9-4.2-6.4-5.8
	C180.7,178.9,180.3,176.8,179.9,176.5"/>
<path class="st0" d="M193.4,179.4c-0.7-0.5-2.7-1.1-2.2,0.4c0.2,0.6-0.4-0.3-0.5-0.4c-1-1.6-2.3-2.5-3.2-4.1
	c-0.6-1.2-0.6-2.6-1.2-3.8c-1.6-2.9-0.8-7.7-1.5-10.9c-0.5-2.2-4-6.3-3.8-8.7c0.2-3.3-0.5-10.4,1.5-13.1c-0.1,0.2,2.1,2.4,1.7,2.9
	c-1.5,2-2.2,11.8-1.3,13.5c1.8,3.7,3.4,6.9,4.2,11c0.4,2.2,0.5,4.6,0.5,6.8c0-0.1,1,2.8,1.2,3.7c-0.4-1.6-1.5-2.7,0.2-0.7
	c0.5,0.6,0.9,1.9,0.7,1.2c-0.6-1.7,1.5-1.2,2.3-0.6C192.6,177.1,193,179.1,193.4,179.4"/>
<path class="st0" d="M140.2,113.7c5.5,10.3,10.9,20.5,16.4,30.8c-0.4-0.6-0.8-1.2-1.2-1.8c2.8-1.2,5.6-2.5,8.4-3.7
	c0.3-0.2,1.8,2.9,1.7,2.9c-2.8,1.2-5.6,2.5-8.4,3.7c-0.2,0.1-1.1-1.6-1.2-1.8c-5.5-10.3-10.9-20.5-16.4-30.8
	C138.3,110.9,139.7,112.7,140.2,113.7"/>
<path class="st0" d="M157.9,147.1c0.4,1.8,0.7,3.7,1,5.6c0.2,1.1-0.1,3.3,0.3,4.1c1.5,2.9,2.3,6.5,3,9.6c1.4,5.8,2.1,12.8,1.9,18.7
	c0,1,0.1,1.4,0.5,2.4c1.3,3.1-1.6-2.2,0.3,0.6c0.6,0.9,1.2,1.8,1.7,2.7c1.3,2.6,1.8,5.8,2.6,8.6c0.6,2-2-3-0.8-1.4
	c0.5,0.7,1,1.3,1.4,2c1.1,1.5,2.2,3,3.3,4.5c0.9,1.3,3.4-0.1,2.8-1.5c-0.7-1.6-1.3-3.3-2-4.9c-0.1-0.3,1.4,1.8,1.6,2.5
	c0.9,2.3,4,6.6-0.1,7.7c-1.1,0.3-5.2-6.8-5.7-7.5c-1.1-1.6-1.9-3-2.5-4.8c-0.6-2.2-1.3-4.4-1.9-6.6c-0.3-1.1-0.1-0.6,0.7,1.2
	c-0.4-0.6-0.7-1.1-1.1-1.7c-0.3-0.5-0.6-1-0.9-1.5c-1.5-2.7-1.2-4.4-1.5-7.3c-0.5-4.3-1-8.7-1.5-13c-0.4-3.9-1.4-8.7-3.1-12
	c-1.5-2.9-1.1-7.6-1.7-10.8C156.3,144.9,157.7,146.2,157.9,147.1"/>
<path class="st0" d="M265,122.8c-3.7,30.8-8,61.9-8.6,92.9c-0.3,17-0.1,34.4-2.2,51.3c-1.6,12.6-24.2,12-33.6,13.1
	c-7.3,0.9-15.1,2.6-22.5,2.3c-6.1-0.2-12.2-0.4-18.3-0.6c-0.5,0-1.7-2.4-1.7-2.9c-0.7-26.2,0.6-52.5-0.5-78.6c0,0.5,1.7,1.9,1.7,2.8
	c1.1,26.1-0.2,52.4,0.5,78.6c-0.6-1-1.1-1.9-1.7-2.9c6.1,0.2,12.3,0.4,18.4,0.7c8.1,0.3,16.8-1.7,24.8-2.6
	c7.3-0.9,14.8-1.3,21.8-3.6c6.6-2.2,9-4.8,9.6-11.1c1.9-17.2,1.8-34.8,2-52.1c0.3-16.5,2.2-33,4-49.4c1.4-13.6,3-27.2,4.6-40.7
	C263.2,120.5,265.1,121.8,265,122.8"/>
<path class="st0" d="M205.2,139.3c-2.8,4-5.4,8-8,12.1c-2.1,3.4-4.2,6.8-6.2,10.3c-1.6,2.8-3.2,5.7-4.1,8.8
	c-0.1,0.3-0.7,0.2-0.6-0.1c0.9-2.9,2.4-5.7,3.9-8.4c2-3.6,4.1-7.1,6.3-10.6c2.7-4.2,5.4-8.4,8.3-12.5
	C204.9,138.6,205.4,139,205.2,139.3"/>
<path class="st0" d="M211.2,149.6c-5.4,8.9-10.8,17.7-16.1,26.6c-0.2,0.3-0.7,0.1-0.5-0.2c5.4-8.9,10.8-17.7,16.1-26.6
	C210.9,149.1,211.4,149.3,211.2,149.6"/>
<path class="st0" d="M191.6,185.2c-0.6,1-1.2,2.1-1.8,3.1c0,0.1-1-1.3-1-1.4c-0.1-0.2-0.9-1.3-0.7-1.6c0.6-1,1.2-2.1,1.8-3.1
	c0-0.1,1,1.3,1,1.4C191,183.9,191.8,184.9,191.6,185.2"/>
<path class="st0" d="M186.9,194.5c-0.5,0.5-1,1-1.5,1.6c-0.7,0.8-1.6,1.8-1.9,2.8c0,0-0.9-1.3-1-1.4c-0.2-0.3-0.8-1.2-0.7-1.6
	c0.3-1,1.1-1.9,1.8-2.7c0.5-0.6,1.1-1.2,1.7-1.7C185.2,191.6,187.2,194.2,186.9,194.5"/>
<path class="st0" d="M193.4,196.2c-1.9,2.2-3,5.2-4.1,7.8c-3.9,9.7-5.7,20.3-7,30.7c0,0.4-0.6,0.3-0.6-0.1
	c1.3-10.3,3.2-20.8,6.9-30.6c1.1-2.7,2.3-5.9,4.2-8.2C193.2,195.5,193.7,195.9,193.4,196.2"/>
<path class="st0" d="M172.5,204.7c-0.5,20.6-1.6,43-0.4,63.7c-0.6-1-1.1-1.9-1.7-2.9c2.4-0.1,4.9-0.1,7.3-0.2c0.7,0,1.4,3,1.7,2.9
	c-2.4,0.1-4.9,0.1-7.3,0.2c-0.5,0-1.7-2.4-1.7-2.9c-1.2-20.6-0.1-42.9,0.4-63.5C170.7,202.5,172.6,203.1,172.5,204.7"/>
<path class="st0" d="M180,281.6c-1.3,8.7-2.7,17.9-6.3,26c-3.2,7.2-7.8,15.1-15,18.6c-9.5,4.6-19.1,9.2-29.1,12.9
	c-2.9,1.1-6.5,0.9-8.5,3.3c-0.6,0.8-11.7,3-3.9,4.9c0.9,0.2,1.2,2.8,1.7,2.9c-2.7-0.6-5-3.2-5.5-6c-0.9-5.1,3.9-2.2,6.4-5.1
	c1.9-2.3,7.9-2.8,10.8-4c6-2.4,11.9-5.1,17.8-7.8c4.1-1.9,8.3-3.9,12.4-5.9c2-1,3.6-4.3,4.9-6.1c1.8-2.6,3.4-5.4,4.9-8.1
	c4.8-8.5,6.3-18.9,7.7-28.5C178.2,279.4,180.1,280.7,180,281.6"/>
<path class="st0" d="M209.2,281.3c-6.9,13-9.7,27.6-9.7,42.2c0,5.3,0,10.5,1.1,15.7c0.9,4.4-0.2,11.2-5.8,11.8
	c-10.2,1.1-20.4,2.3-30.6,3.4c-8.3,0.9-18.5,3.5-26.5,0c-0.8-0.4-1.2-2.7-1.6-2.9c8.1,3.6,19,0.8,27.4-0.2
	c9.9-1.1,19.8-2.2,29.6-3.3c6-0.7,6.6-8.1,5.5-12.6c-1.3-5.4-0.9-11.4-0.9-17c0.1-13.9,3.2-27.9,9.7-40.2
	C207.3,278.6,209.6,280.6,209.2,281.3"/>
<path class="st0" d="M131.3,340c-1.5,0.4-3.1,0.8-4.6,1.3c-1.5,0.4-3.2,0.5-4.3,1.7c-0.9,1-1.8,2.5-2.1,3.8
	c-0.1,0.7-0.1,1.4-0.6,1.9c-0.1,0.1-0.9,0.9-0.9,1c0.2,0.6,0,0.3-0.4-0.9c0.4,0.2,0.9,0.3,1.4,0.3c0.8,0,1.4,2.9,1.7,2.9
	c-2.3,0-3.7-2.8-4.3-4.8c-0.2-0.7,0.6-1.2,1-1.7c0.5-0.5,0.4-1.8,0.7-2.5c0.9-1.9,1.4-3.5,3.5-4.1c2.4-0.7,4.8-1.3,7.2-2
	C130.1,336.9,131.2,340,131.3,340"/>
<path class="st0" d="M138.6,347c-0.8,0.1-1.5,0.3-2.3,0.4c-0.7,0.1-1.7,0.1-2.2,0.5c-1.3,1.1-1.9,2.7-2.6,4.2
	c-0.1-0.3-0.2-0.5-0.3-0.8c-0.4-0.8-0.8-1.1,0-0.4c0.5,0.4,1,0.7,1.6,0.9c1.4,0.4,2.7-0.6,3.6-1.6c0.1-0.1,1.2,1.7,1.2,1.8
	c-1.3-2.4-1.1-1.1,0.2-1.5c0.5-0.1,1.7,2.9,1.7,2.9c-1.5,0.5-2-0.9-2.7-2c0.4,0.6,0.8,1.2,1.2,1.8c-1.8,1.8-4,2.1-5.8,0.2
	c-0.6-0.6-1.1-1.4-1.5-2.1c-0.2-0.4-1.3-1.8-1.1-2.2c0.8-1.5,1.3-3.1,2.6-4.2c0.5-0.4,1.3-0.4,1.9-0.5c0.9-0.1,1.7-0.3,2.6-0.4
	C137.5,343.9,138.5,347,138.6,347"/>
<path class="st0" d="M138.1,354.5c0.1,0-0.1,0-0.1,0c-0.3-0.1-0.6-0.2-0.9-0.3c-0.1,0-0.3-0.3-0.4-0.4c-0.2-0.3-0.4-0.7-0.6-1
	c-0.2-0.3-0.4-0.7-0.6-1.1c0,0-0.2-0.5-0.1-0.5c0.4,0.1,0.8,0.2,1.2,0.4c0.2,0.1,0.4,0.5,0.5,0.6c0.2,0.4,0.5,0.7,0.7,1.1
	c0.2,0.3,0.3,0.6,0.4,0.9C138.1,354.3,138.2,354.5,138.1,354.5"/>
<path class="st0" d="M134.3,344.7c-1.4,0.3-2.7,0.7-4.1,1c-0.8,0.2-1.8,2.6-2.2,3.2c-0.3,0.5-2,2.6-1.9,3.1c0.1,1.1-1.6-1.8-0.5-1.2
	c0.5,0.4,1.3,0.3,1.9,0.3c1.1,0,2-0.3,2.8-1.1c-0.1,0.1,2.1,2.5,1.7,2.9c-1.5,1.7-4.6,1.5-5.9-0.3c-0.6-0.9-1.3-2-1.6-3.1
	c-0.2-0.7,0.2-1.1,0.6-1.7c0.9-1.4,1.8-2.9,2.7-4.3c0.9-1.5,3.2-1.5,4.8-1.9C133.1,341.6,134.2,344.7,134.3,344.7"/>
<path class="st0" d="M131.4,342.4c-1.6,0.3-3.3,0.6-4.9,0.9c-0.8,0.2-0.7,0.5-0.9,1.3c-0.2,0.6-0.8,1.1-1.1,1.6
	c-1,1.4-2.1,2.8-3,4.3c-0.1,0.2-0.2,0.3-0.3,0.6c-0.1,1.4-1.9-1.9-0.7-1.2c1.1,0.7,3,0.7,3.8-0.3c-0.1,0.1,2.1,2.5,1.7,2.9
	c-0.8,1-2.3,1-3.6,0.4c-1.2-0.5-1.8-1.7-2.4-2.8c-0.9-1.6-0.6-2.3,0.4-3.7c1.2-1.7,3-3.5,3.6-5.6c0.4-1.2,4.4-1.3,5.6-1.5
	C130.3,339.4,131.3,342.4,131.4,342.4"/>
<path class="st0" d="M201,296.5c-4.6,6-8.2,13.6-9.4,21.1c-0.3,1.7-0.6,3.6-0.1,5.2c0.4,1.2,0.6,2.5,0.7,3.8
	c0.3,4.2-1.4,8.1-4.6,10.9c-0.3,0.2-0.6-0.2-0.3-0.5c3.6-3.1,4.9-7.6,4.1-12.2c-0.1-0.9-0.3-1.7-0.7-2.6c-0.3-0.7,0-2,0-2.7
	c0.1-1.4,0.3-2.8,0.6-4.2c1.4-6.9,4.9-13.7,9.1-19.3C200.8,295.8,201.2,296.2,201,296.5"/>
<path class="st0" d="M172.2,268.2c-0.7,11.2-2.9,24.4-9.9,33.5c-2.7,3.4-8.2,5-12,6.9c-4.8,2.4-9.6,4.8-14.5,7.1
	c-1,0.5-2.9,2-3.8,2.1c-2,0.3-5,0.1-6.7,1.1c-2.2,1.2-3.8,1.1-6.3,1.1c-1.3,0-1.1,1.2-0.2,1.8c2,1.5,4.8,1.3,7.1,1.1
	c2.2-0.2,3,0.2,4.8,1.2c3.2,1.9,6.9,1,10.2,0.3c5.9-1.2,11.9-1.5,17.8-1.9c0.7-0.1,1.5,3,1.7,2.9c-6.4,0.5-12.7,0.8-19,2.2
	c-3.2,0.7-6.2,0.8-9.2-0.5c-3.1-1.4-5.7-0.7-9.1-1.2c-3.3-0.5-6.2-4-6.2-7.3c0-2.8,3.7-0.8,5.3-1.7c2.4-1.4,4.9-1.5,7.6-1.9
	c1.5-0.2,3-1.5,4.4-2.2c3.2-1.5,6.3-3.1,9.5-4.6c4.4-2.1,8.7-4.4,13.1-6.5c11.1-5.5,13.1-25.1,13.8-36.2
	C170.5,265.8,172.3,267.3,172.2,268.2"/>
<path class="st0" d="M118.2,320.4c-1.1-1.2-2-2.8-1.5-4.4c0.1-0.3,4-0.6,4.8-1c1.5-0.8,2.8-1.6,4.5-1.5c2,0.1,4,0.3,6,0.4
	c0.8,0.1,1.3,2.9,1.7,2.9c-2.6-0.2-5.3-0.6-7.8-0.3c-1.2,0.2-2.3,1.6-3.5,1.8c-2,0.3-3.9,1.2-5.5-0.6c0.5,0.6,0.9,1.3,1.2,2
	C118.2,319.9,118.7,320.9,118.2,320.4"/>
<path class="st0" d="M27.3,71.4c1.3-1.1,2.7-2.2,4-3.3c0.2-0.2,0.6-0.7,0.9-0.6c0.8,0.1,1.6,0.2,2.3,0.3c1,0.1,2,0.2,3,0.4
	c0.2,0,0.5,0.1,0.7,0.1c-0.3,0-0.3,0.3-0.2,0c0.3-0.9,0.5-1.9,0.6-2.9c0.5-4.6-1-9-3.9-12.5c-2.1-2.6-4.9-4.1-7.6-5.9
	c-1.4-1-2.8-1.8-3.9-3.1c-0.9-1-1.7-2.1-2.5-3.1c-0.1-0.1-0.2-0.3-0.3-0.4c-0.2-0.2-0.2-0.1,0-0.1c-0.2,0-0.5-0.1-0.7-0.1
	c-2.4-0.5-4.9-0.9-7.3-1.4c-0.5-0.1-1.3-0.1-1.7-0.3C10.2,38,9.9,37,9.8,36.7c-0.9-2-1.9-3.9-2.8-5.9c0.2,0,0.3,0,0.5,0
	c-0.9,1.6-1.8,3.3-2.5,5c-1.4,3-2.8,6.4-2.8,9.8c0,0.4-0.6,0.4-0.6,0.1c-0.1-3.1,1.2-6.3,2.4-9.1c0.9-2,1.9-4,3-6
	c0.1-0.2,0.4-0.2,0.5,0c0.7,1.5,1.4,3,2.1,4.5c0.4,0.8,0.7,1.6,1.1,2.4c0.2,0.4,0.3,0.3,0,0.2c0.2,0,0.4,0.1,0.6,0.1
	c2,0.4,4,0.8,6,1.2c0.8,0.2,1.7,0.3,2.5,0.5c0.3,0.1,0.6,0,0.8,0.3c1.2,1.5,2.3,3,3.6,4.5c0.5,0.6,1.3,1,1.9,1.4
	c1.1,0.7,2.3,1.4,3.4,2.1c4.4,2.8,8.1,7,9.2,12.2c0.6,2.8,0.6,6-0.4,8.7c-0.1,0.1-0.2,0.2-0.3,0.2c-2-0.2-4-0.5-6-0.7
	c0.3,0-0.2,0.3-0.5,0.5c-0.5,0.4-1,0.9-1.5,1.3c-0.8,0.7-1.6,1.4-2.4,2C27.4,72.1,27,71.7,27.3,71.4"/>
<path class="st0" d="M263.1,120.3c-0.1-7.3-0.5-14.6-0.9-21.8c-0.8-11.5-1.4-23.8-5.2-34.7c-0.1-0.3,1.4,1.8,1.6,2.5
	c3.7,10.7,4.4,22.5,5.3,33.7c0.6,7.7,0.9,15.4,1,23.2C264.8,122.7,263.1,121.2,263.1,120.3"/>
</svg>
