<?xml version="1.0" encoding="utf-8"?>
<!-- Generator: Adobe Illustrator 19.0.1, SVG Export Plug-In . SVG Version: 6.00 Build 0)  -->
<svg version="1.1" id="Слой_1" xmlns="http://www.w3.org/2000/svg" xmlns:xlink="http://www.w3.org/1999/xlink" x="0px" y="0px"
	 viewBox="0 0 198 325" style="enable-background:new 0 0 198 325;" xml:space="preserve">
<style type="text/css">
	.st0{fill:#616C90;}
</style>
<path class="st0" d="M104.7,90.9c-3.7-2.7-7-5.9-9.9-9.3c-1.3-1.5-7-7.9-6.2-10c2.1-5.8,5.7-11.1,9.5-16c0.5-0.6,1.1-2.4,1.4-2.7
	c-5.7,5.3-9.1-4.4-9.4-8.7c-0.2-3.1,0.6-3.9,3.3-6c3.3-2.6,6-1.3,7.9,1.9c-0.2-0.3,2-2.2,1.6-2.8c-3.9-6.9-10.5-1-13.2,3.9
	c-2.7,5,0.8,21.4,8.2,14.5c0.5-0.9,0.9-1.8,1.4-2.7c-5,6.3-9.6,13.4-12.3,21c-1.1,3,6.2,10.5,8.1,12.5c2.4,2.6,5.1,5.1,8,7.2
	C103.1,93.9,104.9,91.2,104.7,90.9"/>
<path class="st0" d="M103,93.8c3.9-0.2,6.9-1.7,8.8-5.2c1-1.9,1.6-3.8,1.9-6c0.3-2.3-0.2-0.1,1.5-0.7c0.5-0.2,0.9-0.8,1.2-1.2
	c0.7-1.1,1.5-2.3,1.9-3.6c0.8-2.9-2.1,1.6-0.3,0.5c0.6-0.4,1.5-0.7,1.9-1.3c0.8-1.1,1.2-2.1,1.6-3.4c0.2-1.3-0.1-1-1,1.1
	c0.7-0.5,1.7,0.1,2.5,0.3c0.7,0.2,2.4-0.7,3-0.9c0.6-0.2,1.7-2.2,1.6-2.8c0-2.9-0.1-5.9-0.1-8.8c0-1.8,0-3.6-0.1-5.3
	c0-0.4,0-0.8,0-1.3c-1.6,2.3-1.5,2.7,0.5,1c0.7-0.4,1.4-1,2-1.6c3.3-2.9,2.2-7.9,3.4-10.2c8.5-17-8.4-36-23.2-41.9
	C96.6-2.9,84.3,7,77.8,18.4c-5.5,9.5-7.1,19.7-8.2,30.4c-0.7,6.4-6.5,13.5-10,18.9c-0.3,0.5-1.7,3.3-0.6,1.6
	c3.8-6,7.5-12.1,10.6-18.5c2.1-4.4,2-9,2.7-13.8c1.1-7.5,3.5-15.4,7.9-21.6c4.5-6.4,14.4-13.4,22.8-11.7
	c16.3,3.3,30.3,17.9,30.8,34.8c0.1,3.7-2.2,6.5-2.4,9.9c-0.1,1.5-0.2,3-0.3,4.4c-0.1,1.3,2-2.2-0.3-0.2c-1,0.8-2.1,1-2.9,2
	c-3.2,4.1-1.8,9.9-1.7,14.9c0,1.2,0,2.5,0,3.7c0.5-0.9,1.1-1.8,1.6-2.8c-3.3,1.2-5.6-0.5-7.4,3c-0.3,0.5-0.3,0.8-0.4,1.4
	c-0.3,2.7,2.6-1.9-0.4-0.1c-1.1,0.7-1.6,1.4-2.2,2.6c-0.2,0.4-0.3,0.7-0.4,1.2c-0.3,1.5-1.2,0.1-2.2,0.7c-1,0.6-1.7,1.9-2.2,2.9
	c-0.7,1.5-0.6,3.4-0.8,5c-0.5,3-4.5,3.7-7.1,3.9C103.9,91,103.4,93.8,103,93.8"/>
<path class="st0" d="M120.4,72.9c-1.6-0.5-3.2-0.9-4.8-1.4c-0.4-0.1-1-0.4-1.3-0.3c-0.4,0.1-1,0.6-1.3,0.8c-1.5,1-3,1.9-4.4,2.9
	c0.3-0.2,0.4,0.1,0.1-0.2c-0.2-0.2-0.5-0.4-0.7-0.6c-6.1-6.5-4.8-16.9-2.2-24.5c0.6-1.7,1.2-3.4,2-5c0.3-0.8,0.5-0.9,1.1-1.4
	c1.4-1.1,2.8-2.2,4.3-3.3c0.4-0.3,2-1.2,2-1.7c0.1-1.5,0.1-3,0.2-4.4c0-0.8,0.1-1.6,0.1-2.5c0-0.2,0-0.4,0-0.6
	c0-0.3-0.4,0.2-0.1,0.1c1.2-0.2,2.3-0.2,3.5-0.1c5.8,0.2,11.4,2.6,15.7,6.5c0.3,0.2,0.6-0.2,0.3-0.4c-5.1-4.5-12.7-7.7-19.7-6.4
	c-0.1,0-0.2,0.1-0.2,0.2c-0.1,1.6-0.1,3.2-0.2,4.8c0,0.8-0.1,1.7-0.1,2.5c0,0.3-0.1,0.4,0.1,0.2c-0.2,0.1-0.3,0.3-0.5,0.4
	c-1.6,1.2-3.1,2.5-4.7,3.7c-0.5,0.4-1.1,0.8-1.6,1.3c-0.1,0.1-0.2,0.1-0.2,0.2c-0.5,1.1-1,2.2-1.4,3.3c-3.3,8.2-5.2,18.8,0.3,26.5
	c0.6,0.8,1.2,1.6,2,2.2c0.1,0.1,0.2,0.1,0.3,0c1.9-1.2,3.7-2.4,5.6-3.6c0.1-0.1-0.4,0-0.1,0.1c0.2,0.1,0.4,0.1,0.7,0.2
	c0.7,0.2,1.4,0.4,2.1,0.6c1,0.3,2.1,0.6,3.1,0.9C120.5,73.5,120.7,73,120.4,72.9"/>
<path class="st0" d="M93.3,80.5c-1,1-2.1,2-3.2,2.9c-1.5,1.2-3.4,3-5.4,3c-0.7,0-1.3,2.8-1.6,2.8c1.9,0,3.8-1.7,5.3-2.8
	c1.2-1,2.4-2,3.5-3.1c0.5-0.5,0.8-1.1,1.1-1.7C93,81.5,93.4,80.5,93.3,80.5"/>
<path class="st0" d="M59.1,59.8c0.3,7.5,9.7,15.5,14.8,20.4c2.6,2.5,5.3,5,7.9,7.5c1.9,1.8,3.8,3.6,5.7,5.4c2.3,2.2,2,1.9,0.2,5.1
	c-1.1,2,0.2,0.3,0.7-0.6c0.9-1.7,1.7-3.4,2.5-5.1c0,0,0.2-0.4,0.1-0.5c-5.1-4.9-10.3-9.8-15.4-14.7c-5-4.8-14.5-12.9-14.8-20.3
	C60.8,57.5,59.1,58.9,59.1,59.8"/>
<path class="st0" d="M86.1,88.1c3,5.2,3.8,10.8,5.5,16.5c2,6.5,2.6,13.7,2.9,20.5c0.3,5.9-0.3,12.3-1,18.1c-0.9,7.8-4.1,14.4-7,21.6
	c-0.1,0.3,1.3-1.8,1.6-2.4c0.4-0.9,0.6-1.7,0.9-2.6c-0.7,2.4,0.4-0.3,0.9-1.3c1.8-3.3,3-6.8,3.9-10.4c1.8-7.1,2-14.6,2.3-21.8
	c0.4-7.4-1-15.2-2.4-22.5c-1.2-6.1-3.1-13.1-6.2-18.5C87.9,85.5,85.7,87.4,86.1,88.1"/>
<path class="st0" d="M31,117.5c0.6,3.4,1.3,6.7,2.1,10.1c1.3,5.4,2.7,11,5.3,15.9c0.2,0.3,0.7,0.1,0.5-0.2c-2.6-5-4-10.6-5.3-16.1
	c-0.8-3.2-1.5-6.5-2-9.7C31.5,117.1,30.9,117.2,31,117.5"/>
<path class="st0" d="M24.9,124c1.8,2.7,3.5,5.4,5.4,8.1c1.4,2.1,2.8,4.1,4.3,6.1c0.8,1.1,1.7,2.5,2.9,3.3c0.3,0.2,0.6-0.2,0.3-0.4
	c-1.1-0.8-2-2.2-2.8-3.2c-1.4-1.9-2.8-3.9-4.1-5.8c-1.9-2.7-3.7-5.5-5.5-8.2C25.2,123.5,24.7,123.7,24.9,124"/>
<path class="st0" d="M35.3,111.3c0,6.3,0,12.6-0.4,18.9c-0.4,6.1,1.6,10.7,3.4,16.6c3.1,10.2,5.4,21.2,9.6,31c1,2.4,2.9,3.8,4.4,5.9
	c1.1,1.5,1.7,4.1,2.3,5.8c1.2,3.4,2.5,6.8,3.7,10.2c0.6,1.6,1.1,4.3,2.3,5.5c0.7,0.7,2.6,1.3,3.6,1.8c3,1.4,5.9,2.8,8.9,4.2
	c5.3,2.5,10.5,5,15.8,7.4c0.3,0.1,1.8-2.8,1.6-2.8c-9.4-4.4-18.9-8.7-28.2-13.3c-1.1-0.5-1.7-3.8-2.1-4.8c-1.2-3.4-2.5-6.8-3.7-10.2
	c-0.8-2.1-1.5-4.1-2.4-6.1c-0.9-2.1-3.2-4.1-4.5-6.2c-2.1-3.4-2.9-8.5-4.1-12.3c-1.9-6.2-3.7-12.4-5.6-18.6
	c-1.7-5.7-4-10.8-3.5-16.8c0.6-6.2,0.4-12.6,0.4-18.9C36.9,109.1,35.3,110.4,35.3,111.3"/>
<path class="st0" d="M67.4,208.9c15.4,12.4,33.1,24.6,52.1,30.5c3.3,1,6.9,1.9,9.7,4c1.9,1.5,3.7,1.9,5.3,0.3
	c5.8-5.5,8.6-13.9,9.5-21.5c0,0,0,0,0-0.1c-9.5-7-19.4-13.4-28.7-20.6c-8.7-6.7-16.1-14.8-23.7-22.7c-3.5-3.6-2.3-9.3-2.9-13.8
	c-1.1-8.7-3.7-16.7-7.5-24.6c-4.8-9.8-9.5-19.7-14.3-29.5c0.2,0.3-2,2.1-1.6,2.8c5.4,11.2,10.9,22.4,16.2,33.7
	c3.2,6.8,4.8,14.3,5.6,21.7c0.2,2.1-0.6,6.2,0.4,8.1c2.7,5.2,6.7,9,10.9,13.1c11.9,11.6,24.8,21.5,38.6,30.9c1.4,1,2.9,2,4.3,3
	c2.2,1.6-0.5,8.1-1.2,10.1c-1,2.9-3,5.7-5.4,7.6c-1.1,0.9-4.8-2.2-5.9-2.6c-4.3-1.7-8.6-2.9-12.9-4.6c-16.9-6.4-32.9-17.4-46.9-28.7
	C69,206,67.1,208.6,67.4,208.9"/>
<path class="st0" d="M74.3,115.2c1.3,5.3,2.8,10.5,4.6,15.7c0.5,1.6,1.1,3.1,1.8,4.6c0.4,0.8,1.1,1.7,1.4,2.5
	c1.5,4.4,2.5,9.2,2.6,13.9c0,0.4,0.6,0.4,0.5,0.1c-0.1-4.7-1.1-9.3-2.5-13.7c-0.3-0.8-0.8-1.4-1.2-2.2c-0.7-1.4-1.2-2.8-1.7-4.3
	c-1.9-5.4-3.5-11-4.9-16.6C74.7,114.8,74.2,114.9,74.3,115.2"/>
<path class="st0" d="M82.1,109.1v8.3c0,1.2,0.5,2.6,0.7,3.8c0.1,0.6,0.1,1.3,0.2,1.9c0.3,3.8,0.5,7.5,0.7,11.3c0.1,2,0.2,4,0.2,6
	c0,1.2,0.1,2.5-0.2,3.7c-0.1,0.3,0.4,0.5,0.5,0.2c0.3-1,0.2-2.1,0.2-3.2c0-1.9-0.1-3.8-0.2-5.7c-0.2-3.9-0.4-7.8-0.7-11.7
	c-0.2-2.1-0.5-4.1-0.9-6.2c-0.2-1.1,0-2.9,0-4.1v-4.2C82.7,108.8,82.1,108.8,82.1,109.1"/>
<path class="st0" d="M86,102.5c0.7,5.8,1.4,11.6,1.3,17.5c-0.1,5.7-1.8,11.4-3.4,16.9c-0.1,0.3,0.4,0.5,0.5,0.2
	c1.5-5.6,3.3-11.3,3.4-17.1c0.1-5.9-0.6-11.8-1.3-17.7C86.5,102.1,86,102.2,86,102.5"/>
<path class="st0" d="M60.5,57.6c-2.1,2.2-5.8,3.1-7.5,5.5c-0.6,0.8-1.1,1.5-1.6,2.3c-0.3,0.5-1.9,3.3-0.6,1.3
	c-2.2,3.2-6.4,4.8-9.5,7.5c-14,12.2-24.1,31.5-29.1,49.2C8.8,135.6,9.1,148,7,160.3c-1,5.6,4.5,10.4,7.7,14c3.9,4.4,8.4,7.5,13.1,11
	c0.1,0.1,1.9-2.6,1.6-2.8c-7.5-5.5-17.7-12.1-20.2-21.5c-1.4-5.1,0.6-11.4,0.8-16.7c0.3-5,1.3-9.5,2-14.4
	c2.7-20.1,14.1-42.2,30.2-54.8c2.7-2.1,5.1-2.5,7.1-5.4c0.6-0.8,1.1-1.7,1.6-2.5c0.4-0.7,2.3-3.6,0.4-0.9c1.9-2.6,5.5-3.5,7.7-5.9
	C59.7,59.6,60.1,58,60.5,57.6"/>
<path class="st0" d="M7.2,161.3c1.1,5.4-0.8,10.3,1.1,15.7c1.3,3.7,3.2,9.9,6.3,12.4c4.4,3.4,5.7,8.1,9.1,12.2
	c3.2,4,6.5,7.9,9.7,11.9c-0.1-0.1,2-2.4,1.6-2.8c-3.1-3.7-6.1-7.5-9.2-11.2c-3.5-4.3-4.8-9.5-9.6-12.9c-1.5-1-2.5-4-3.5-5.5
	c-1.2-1.9-1.8-3.8-2.5-5.9c-1-2.8-1.6-4.9-1.7-7.9c-0.1-2.9,0.8-5.9,0.2-8.8C9,159.1,7,160.4,7.2,161.3"/>
<path class="st0" d="M69.1,264.7c17.2-4.4,34.4-14.9,41.6-31.6c0.5-1.2-1.2,1.5-1.4,1.9c-6.2,14.3-24.3,23.2-38.6,26.9
	C69.9,262.1,69.7,264.6,69.1,264.7"/>
<path class="st0" d="M11.7,184.6c0.1,3.4-0.6,7.7,0.3,11c0.9,3,1.4,5.6,1.7,8.7c0.2,2.6,2.6,5.4,4.1,7.5c3.2,4.6,7.5,8.4,10.3,13.3
	c-0.2-0.3,2-2.2,1.6-2.8c-2.4-4.2-6-7.7-8.9-11.5c-1.9-2.4-5.1-6-5.4-9.1c-0.2-2.6-0.5-4.8-1.2-7.2c-1.1-3.9-0.6-8.3-0.8-12.4
	C13.4,182.3,11.7,183.7,11.7,184.6"/>
<path class="st0" d="M31.5,254.1c-5.2-3.8-7.2-10.2-8.5-16.4c-1-5.3-2.1-10.5-3.4-15.7c-0.4-1.9-0.9-3.8-1.6-5.7
	c-0.3-0.9-0.8-5.8-0.7-5.9c0.2-0.4,1.7-3.2,1-2.1c-5.2,7.4,0.2,18.5,1.8,26.3c1.7,7.9,2.7,17.3,9.7,22.3
	C30,257.1,31.8,254.3,31.5,254.1"/>
<path class="st0" d="M134.4,265.3c6.7,1.2,13.3,2.7,19.8,4.5c8.1,2.2,19.5,4.7,25.2,11.4c-0.1-0.1,2-2.4,1.6-2.8
	c-5.8-6.7-17.1-9.1-25.2-11.4c-6.5-1.8-13.1-3.3-19.8-4.5C135.5,262.4,134.6,265.3,134.4,265.3"/>
<path class="st0" d="M166.6,282.8c-4.6-3.3-9.3-6.3-14-9.3c-3.6-2.2-7.3-4.4-11.1-6.2c-2.8-1.4-5.9-2.9-9.1-3.1
	c-0.4,0-0.4,0.5,0,0.5c3.1,0.2,6.2,1.7,8.9,3c4,1.9,7.8,4.2,11.5,6.5c4.6,2.8,9.1,5.8,13.5,9C166.6,283.4,166.9,283,166.6,282.8"/>
<path class="st0" d="M153.6,268.9c-6.3-3.1-16.3-8.4-23.5-6.2c-0.9,0.3-1.1,2.7-1.6,2.8c7.2-2.2,17.1,3,23.5,6.2
	C152.2,271.9,153.8,269,153.6,268.9"/>
<path class="st0" d="M141.3,318.8c2.8,0.8,4.8,2.8,7.2,4.4c2,1.3,7.6-1.8,9.6-2.5c6.8-2.3,13.7-3.9,19.9-7.6
	c0.8-0.5,1.1-2.6,1.5-2.8c-6.1,3.6-13,5.3-19.8,7.5c-3,1-5.9,2.2-9.1,2.8c-0.7,0.1-2.6-2-3.3-2.4c-1.5-0.9-2.7-1.8-4.4-2.3
	C142.5,315.8,141.3,318.8,141.3,318.8"/>
<path class="st0" d="M180.7,271.2c2,3.6,4,7.2,6,10.8c1.7,3.1,3.8,5.9,2.8,9.6c-0.3,1.2-0.7,2.4-1,3.6c-0.3,1.2-1.6,3.5,0.2,0.6
	c-0.9,1.5-1.9,3-2.8,4.4c-2.3,3.6-4.5,7.2-6.8,10.7c0.2-0.3,0.5-0.6,0.7-1c-6.1,0.9-12.2,1.8-18.3,2.8c-6.9,1.1-15,1.5-21.4,4.2
	c-2.9,1.2-10.4-5.5-12.1-6.8c-8-5.9-15.5-12.7-21.9-20.4c-3.3-4-6.1-8.4-8.2-13c-1-2.2-1.7-4.6-2.3-6.9c-0.4-1.5,0.5-5.1-1.8-2.3
	c0.8-0.9,1.1-0.7,2.3-0.6c3.2,0.2,6.3,0.6,9.4,1c2.4,0.3,6.1-0.9,8.5-1.2c4.6-0.5,9.4-1.1,14.1-1.2c8.9-0.2,17.3,6.9,23.4,12.4
	c1,0.9,2,1.9,3,2.9c0,0,2-2.5,1.6-2.8c-6.8-6.8-15.5-14.5-25.5-15.3c-4.2-0.3-8.7,0.4-12.9,0.9c-3,0.3-5.9,0.7-8.8,1.2
	c-3,0.5-6-0.3-9-0.5c-2.9-0.2-3.9-0.9-5.5,1.6c-1.7,2.6-0.9,5.2-0.3,8.1c4.2,18.3,22.4,32.8,37.2,42.8c1.1,0.7,2.2,1.7,3.5,2.1
	c3.2,1,4.4,0.6,7.6-0.1c8.5-1.9,17.3-3.1,25.9-4.4c2.7-0.4,8.9,0,10.5-2.5c3.2-5.1,6.4-10.1,9.6-15.2c6.6-10.4-1.3-19.4-6.4-28.4
	C182.5,268.7,180.4,270.6,180.7,271.2"/>
<path class="st0" d="M95.8,264.8c-15.4-0.9-35.8-1.3-45.2-15.6c-1.8-2.7-7.6-3.7-10.2-2c-3.6,2.4-7,5.1-10.1,8.1
	c-5.6,5.5-11.7,10.5-17.9,15.4c-5.3,4.2-9.5,8.9-12.1,15.2C0,287,0,288.3-0.1,289.5c-0.1,1.6,1.8,4.4,1.5,5.4c0.7-2.8,0.4-1-0.3,0.3
	c-0.4,0.8-0.7,1.6-0.8,2.5c-1,6.7,7.7,1.4,7.7-2.4c0-1.5,0.7-2.8,1.3-4.2c0.8-2.2-2.5,2.6,0.1,0.8c0.6-0.4,1.2-0.7,1.9-0.6
	c3.5,0.7,8.1,0,11.8,0.2c6.8,0.3,13.1-1.7,19.9-2.1c8.9-0.5,18.2,0.1,26.8,2.2c14.5,3.6,28.9,7.1,43.4,10.7c0.5,0.1,1.6-2.9,1.6-2.8
	c-14.6-3.6-29.1-7.2-43.7-10.7c-8.9-2.2-18.4-2.5-27.5-2.1c-3.7,0.2-7.3,1.4-11.1,1.8c-3.3,0.4-6.5,0.2-9.9,0.1
	c-5-0.2-11.6-1.9-14.3,3.5c-0.5,1-0.8,2.1-1.2,3.1c-0.7,1.9-1.8,3,0.6,0.4c-1.1,1.3-2,2.4-3.7,3c-1.3,0.5-2-3.2-2-3.6
	c-0.1-2.1-1.4,1.7-0.2-0.2c1.4-2.2,1.3-2.6,0.2-4.8c-2.7-5.1,2.5-11.7,6.3-14.4c6.6-4.7,12.8-10.3,18.9-15.6
	c4.4-3.8,9.3-10.8,15.8-10.7c5.8,0.2,6.3,5.2,10.1,8c11.9,8.7,26.8,9.5,41,10.4C94.8,267.7,95.6,264.8,95.8,264.8"/>
<path class="st0" d="M12.5,288.7c-1.4,1.8-2.8,4-3,6.4c-0.1,1.9-0.6,3.7-1,5.6c0.4-0.7,0.7-1.4,1.1-2.1c-1.2,1.8-2.3,3.6-3.3,5.5
	c0.4-0.6,0.7-1.1,1.1-1.7c-0.9,0.6-1.4,0.4-2.3-0.2c-1.1-0.7-0.6-2.3-0.6-3.4c-0.5,0.9-1,1.7-1.5,2.6c0.1-0.1,0.2-0.3,0.4-0.4
	c0.5-0.6,0.8-1.3,1.2-1.9c0-0.1,0.5-1.1,0.1-0.6c-1.3,1.6-2.5,3.8-1.8,5.9c0.2,0.7,1.7,1.6,2.4,1.2c0.9-0.6,1.4-1.5,1.9-2.4
	c0.3-0.6,0.7-1.3,1-1.9c-1.1,2.1,0.2-0.2,0.5-0.7c0.5-0.8,1.2-1.7,1.4-2.6c0.2-1.2,0.6-2.3,0.7-3.5c0.1-0.7-0.1-2.7,0.3-3.2
	c0.5-0.6,0.8-1.2,1.2-1.9C12.4,289.3,12.9,288.2,12.5,288.7"/>
<path class="st0" d="M14.5,288.7c-2.5,3-2.3,5.7-2,9.4c0.1,1.9,0.2,2.5,1.1,4.2c0.7,1.4,1.8,2,1.4,3.6c0.5-0.9,1.1-1.8,1.6-2.7
	c-3.3,2.6-7.1-1.2-6.6-4.7c-0.1,0.5-1.5,1.8-1.7,2.7c-0.5,3.1,1.4,5.4,4.4,5.6c2.1,0.1,3.2-1.5,3.9-3.3c0.7-1.9-1-3.1-1.9-4.8
	c-0.6-1.2-0.5-2.5-0.6-3.8c-0.1-0.8-0.1-1.5-0.2-2.3c0-0.5,0.2-2.3-0.6-1.2c0.5-0.6,0.8-1.3,1.2-1.9
	C14.4,289.2,14.9,288.2,14.5,288.7"/>
<path class="st0" d="M14.6,291.3c0.6,3.1,2.1,5.9,3.8,8.5c0.8,1.2,3.1,1.3,3.1,2.7c0,0.1,0,0.2,0,0.4c1.1-1.4,0.9-1.6-0.5-0.6
	c-0.2,0.1-0.5,0.1-0.7,0.1c-1.1,0.1-2.4,0.2-3.4-0.4c-0.2-0.1-1.9,2.7-1.6,2.8c1.9,1.1,5,0.5,6.2-1.3c0.5-0.7,2.7-3.9,1.4-4.6
	c-3.8-2-5.8-6.2-6.6-10.4C16.4,289,14.4,290.3,14.6,291.3"/>
<path class="st0" d="M21.6,291.4c0.4,0.7,1.3,2.4,0.9,3.3c-0.4,0.9-0.1,1.1,0.4,1.9c0.9,1.5,2.7,1.8,3,3.6c0.2-0.5,0.5-1,0.7-1.5
	c-0.1,0.1-0.2,0.3-0.2,0.4c-0.5,0.9,0.6-0.6-0.2,0.1c-0.8,0.7-1.8,0.7-2.8,0.5c-0.6-0.1-1.5,2.9-1.6,2.8c3.1,0.4,4.6-2.3,5.7-4.7
	c0.8-1.7-2.7-3.8-3.5-5.2c-0.1,0.3-0.2,0.5-0.3,0.8c0.8-1.7,0.6-3.2-0.3-4.8C23.4,288.9,21.2,290.8,21.6,291.4"/>
<path class="st0" d="M88,160.8c1.6,3.6,4.2,6.3,4.9,10.3c0.7,4.2-0.2,8.7-0.7,12.8c0.1-0.5,1.6-1.8,1.7-2.7
	c0.4-3.8,1.4-8.3,0.8-12.1c-0.7-4.4-3.3-7.3-5-11.2C89.8,158.4,87.7,160.1,88,160.8"/>
<path class="st0" d="M99.5,191.4c2.5,1.9,5.5,2.8,7.6,5.1c0.8,0.9,2.2,1.1,3.1,2c0.7,0.7,1.7,2.4,2.6,2.6c7,1.8,17.8,3.8,22.7,9.5
	c-0.1-0.1,2-2.4,1.6-2.8c-4.9-5.7-15.5-7.6-22.4-9.5c-1.8-0.5-3.6-3.4-5.6-4.3c-1.1-0.5-1.8-2-3-2.6c-1.8-0.8-3.3-1.6-4.8-2.9
	C101,188.5,99.2,191.2,99.5,191.4"/>
<path class="st0" d="M94.2,131.1c1.9,7.3,3.8,15.4,7.9,21.8c2.3,3.6,5.8,6.9,8.6,10.1c9,10.5,17.9,20.9,26.9,31.4
	c0.4-0.7,0.7-1.5,1.1-2.2c-2.4,3.7-4.8,7.4-7.2,11c-0.6,0.9-0.2,0.6-1.4,0c-2.3-1-4.6-2.1-6.9-3.3c-6.6-3.3-13-7.1-18.6-12
	c-4-3.4-6.5-6.9-11-9.8c-0.2-0.1-1.9,2.7-1.6,2.8c6.9,4.3,11.6,10.8,18.5,15.4c6,4,12.5,7.4,19.1,10.1c0.1,0.1,0.5-0.6,0.5-0.6
	c2.7-4.1,5.3-8.1,8-12.2c0.2-0.2,1.4-1.9,1.1-2.2c-8.8-10.3-17.6-20.6-26.5-30.9c-2.9-3.4-5.7-6.8-8.6-10.1
	c-4.8-5.5-6.5-15.5-8.3-22.4C95.9,128.8,93.9,130.2,94.2,131.1"/>
<path class="st0" d="M130.1,206.2c1.8,0.7,3.5,1.7,4.9,3c1.7,1.5,2.8,4.5,4,6.4c2.4,3.7,6.3,6.6,10.3,8.4c0.3,0.1,1.8-2.8,1.6-2.8
	c-3.6-1.6-7.6-4.4-9.8-7.7c-1.4-2.1-2.6-4.4-3.9-6.6c-1.1-1.7-3.7-2.8-5.4-3.5C131.4,203.2,130,206.1,130.1,206.2"/>
<path class="st0" d="M146.8,221.9c1,0.9,2.7,1.8,2.9,3.1c0.1,0.6,0.2,1.3,0.5,1.9c0.2,0.4,1,1.1,1.1,1.5c0.1,1,0.3,2.3,1,3
	c0,0,2-2.5,1.6-2.8c-0.8-0.7-0.9-2-1-3c0-0.3-0.9-1.1-1.1-1.5c-0.3-0.6-0.4-1.4-0.5-2.1c-0.1-1.2-2-2.2-2.9-2.9
	C148.4,219,146.5,221.6,146.8,221.9"/>
<path class="st0" d="M154.6,217.8c-0.5,0.9-1.3,2.3-1,3.4c0.3,1.2,1,2,1.8,2.9c0.4,0.4,1,0.8,1.1,1.4c0.3,1,0.2,2,0.5,2.9
	c0.3,1,1.2,2.7,0.9,3.7c0.5-0.9,1.1-1.8,1.6-2.7c-0.1,0.1-0.3,0.2-0.4,0.3c-0.8,0.5-1.1,2.5-1.5,2.8c0.9-0.7,1.7-1.9,2-3
	c0.3-1-0.5-2.5-0.8-3.5c-0.3-1.1-0.3-2.2-0.6-3.3c-0.5-1.7-4.1-3.2-2.8-5.5C156.4,215.2,155.1,216.9,154.6,217.8"/>
<path class="st0" d="M153.9,220.7C153.9,220.7,153.8,220.8,153.9,220.7c0.2-0.2,0.4-0.3,0.5-0.4c0.4-0.3,1-0.5,1.5-0.4
	c0.3,0,0.9-1.2,1-1.3c0-0.1,0.8-1.5,0.7-1.5c-0.9-0.1-1.8,0.5-2.4,1.2c-0.5,0.6-0.8,1.3-1.2,1.9
	C153.9,220.2,153.5,221.2,153.9,220.7"/>
<path class="st0" d="M171.1,233.2c1.9,1.8,3.4,1.2,4.6-0.8c1.2-1.9,1.3-2.2-0.1-4c-3.6-4.8-6.1-9.6-10.5-13.7
	c-1.7-1.6-3.5-4.3-5.5-5.5c-2.3-1.4-4.4-3-6.5-4.6c-5.2-3.9-9.5-7.9-14-12.6c0,0-2,2.5-1.6,2.8c3.1,3.2,6.1,6.5,9.6,9.3
	c3.7,2.9,8.9,5.6,12.1,9.1c3.1,3.4,6.8,6.2,9.3,10c1.4,2.1,2.7,4.2,4.1,6.3c0.3,0.4,2.6,2.9,2.4,3.4c1.5-4.1,0.4,0-2.4-2.5
	C172.7,230.3,170.7,232.9,171.1,233.2"/>
<path class="st0" d="M138.4,209.1c-0.6-0.5-1.1-1-1.7-1.6c-0.1-0.1-0.9,1.3-1,1.3c-0.1,0.1-0.9,1.3-0.7,1.5c0.6,0.5,1.1,1.1,1.7,1.6
	c0.1,0.1,0.9-1.3,1-1.3C137.8,210.5,138.5,209.3,138.4,209.1"/>
<path class="st0" d="M133.1,244.9c2.3,1.1,5.2,2.1,7,4c1.3,1.3,2.4,2.7,3.9,3.9c3.8,2.9,8.5,4.4,13,5.5c1.4,0.3,2.8,0.9,4.3,1.3
	c1.2,0.3,2.3,0.5,3.5,0.5c0.1,0,1.6,1.6,1.9,1.8c0.2,0.1,1.8-2.7,1.6-2.8c-1.9-1.1-1.8-1.7-4.1-2c-1.8-0.3-3.6-0.9-5.3-1.5
	c-4.7-1.6-9.1-2.7-13.3-5.6c-1.5-1-2.9-2.4-3.9-3.9c-1.3-2-5-3.1-7-4C134.4,241.9,133,244.8,133.1,244.9"/>
<path class="st0" d="M163.8,260.4c0.8,1.4,2.1,2.7,3.8,2.9c0.8,0.1,3,0.4,3.8-0.1c1.1-0.7,2.2-1.3,2.8-2.4c0.8-1.3,1.2-2.6,1.6-4.1
	c0-0.1,0.1-0.2,0-0.2c-1.7-1.6-3.5-3.1-5.2-4.7c0,0-2,2.5-1.6,2.8c1.3,1.1,2.5,2.3,3.8,3.4c0.2,0.2,1.4,1.4,1.5,1.1
	c-0.2,0.8-0.5,1.6-0.7,2.3c0.5-0.9,1-1.7,1.5-2.6c-0.7,0.5-1.4,0.9-2.1,1.4c-0.5,0.4-2,0.1-2.6,0.1c-2.3-0.1-3.7-1-4.9-2.9
	C165.6,257.8,163.4,259.7,163.8,260.4"/>
<path class="st0" d="M170.7,247.4c0.3,0.9,0.6,1.8,0.9,2.7c0.2,0.6,1.6,1.2,2,1.6c1,0.7,2,1.5,3,2.3c0.7,0.5,0.8,1.3,1.1,2.2
	c0-0.2,0.1-0.3,0.1-0.5c-0.2,0.5-0.4,1-0.7,1.5c1.3-1.9,1.6-2.4,0.7-1.6c-0.6,0.6-1.3,0.9-2.1,1c-0.9,0.2-1.1,2.7-1.6,2.8
	c2-0.4,3.3-2,4.1-3.8c0.9-1.8,1-2.2,0.4-4.2c-0.1-0.4-1.3-1-1.6-1.2c-0.9-0.7-1.9-1.4-2.8-2.1c-1.3-1-1.4-2-2-3.5
	C172.5,245,170.4,246.6,170.7,247.4"/>
<path class="st0" d="M173.5,241c0.8,2.1,1.5,4,2.5,6c0.7,1.2,1.4,2.5,2.1,3.7c0.1,0.3,0.3,0.5,0.5,0.8c0.1,0.1,0.1,0.2,0,0.3
	c0.1,1,1.6-1.1,0.1-0.3c-0.8,0.4-1.2,2.6-1.5,2.8c2.4-1.2,3.6-4.5,2.4-6.8c-1.7-3.1-3.1-6-4.4-9.3
	C175.3,238.6,173.1,240.2,173.5,241"/>
<path class="st0" d="M141.7,229.6c3.4,1.6,6.8,3.2,10.4,4.1c3.3,0.8,7.6,0,11-0.2c3.1-0.1,5.9,0.9,8.9,1.1c3.7,0.3,7.3,0.6,11,0.9
	c2.7,0.2,5.6,1.6,8.2,2.3c3.3,0.9,8.3,2.3,1.4,1.8c-4.3-0.3-13.9-4.2-17.2,0.4c-0.2,0.3-1.7,3.2-1,2.1c1.5-2.1,7.9-1.3,10.2-0.9
	c2.9,0.5,9.6,3,11.8,0.5c1.2-1.5,2.3-3.5,1.4-5.3c-0.6-1.3-9.3-2.7-10.8-3.1c-6.2-1.8-13.2-1.8-19.6-2.6c-4.1-0.5-8.5,0.1-12.6,0.2
	c-3.7,0.1-8.2-2.7-11.4-4.2C143,226.7,141.5,229.6,141.7,229.6"/>
<path class="st0" d="M151.8,230.9c0.3,0.8,0.8,1.5,1.5,2c1.6,1.2,3.5,0.1,4.7-1.1c0.5-0.4,0.8-1.1,1.1-1.7c0.1-0.1,0.5-1.2,0.4-1.1
	c-1.3,1.2-2.9,2.1-4.6,1c-0.7-0.5-1.2-1.2-1.5-2c0,0-0.9,1.2-1,1.3C152.3,229.7,151.6,230.6,151.8,230.9"/>
<path class="st0" d="M154.5,220.4c2.3,2,4.6,4,6.9,6.1c2.7,2.4,3.4,5.9,6.9,7.4c0.4,0.1,1.7-2.8,1.6-2.8c-3.6-1.4-4.2-5-6.9-7.4
	c-2.3-2-4.6-4-6.9-6.1C156.2,217.5,154.2,220.1,154.5,220.4"/>
<path class="st0" d="M160.8,217.5c2.2,2.7,4.5,5.3,6.7,8c0.7,0.8,1.3,1.6,1.9,2.5c0.6,0.9,1.1,1.7,1.7,2.6c0.3,0.4,0.5,0.8,0.8,1.2
	c0.2,0.3,1.4-1.2-0.1-0.4c-0.8,0.4-1.1,2.6-1.5,2.8c1.6-0.9,2.8-3,3.4-4.7c0.4-1-2.6-4.4-3.2-5.3c-2.2-3.4-5.4-6.4-8-9.6
	C162.5,214.8,160.4,217.1,160.8,217.5"/>
<path class="st0" d="M182.7,269.1c-1.8-4.4-3.5-9.5-6.4-13.2c0.1,0.1-2,2.4-1.6,2.8c3,3.7,4.7,8.9,6.4,13.2
	C180.9,271.5,183,269.8,182.7,269.1"/>
</svg>
