<?xml version="1.0" encoding="utf-8"?>
<!-- Generator: Adobe Illustrator 19.0.1, SVG Export Plug-In . SVG Version: 6.00 Build 0)  -->
<svg version="1.1" id="Слой_1" xmlns="http://www.w3.org/2000/svg" xmlns:xlink="http://www.w3.org/1999/xlink" x="0px" y="0px"
	 viewBox="0 0 209 335" style="enable-background:new 0 0 209 335;" xml:space="preserve">
<style type="text/css">
	.st0{fill:#616C90;}
</style>
<path class="st0" d="M115.1,93.9c-3.8-2.7-7.2-6.1-10.3-9.6c-1.3-1.5-7.2-8.2-6.4-10.3c2.2-6,5.8-11.5,9.8-16.5
	c0.5-0.6,1.1-2.4,1.4-2.7c-5.9,5.5-9.4-4.6-9.7-9c-0.2-3.2,0.6-4,3.4-6.2c3.4-2.7,6.2-1.4,8.2,2c-0.2-0.3,2.1-2.3,1.7-2.9
	c-4.1-7.1-10.9-1-13.6,4.1c-2.8,5.1,0.9,22.1,8.5,14.9c0.5-0.9,1-1.8,1.4-2.7c-5.1,6.5-9.9,13.8-12.7,21.7
	c-1.1,3.1,6.4,10.8,8.4,12.9c2.5,2.7,5.3,5.2,8.3,7.4C113.6,96.9,115.4,94.1,115.1,93.9"/>
<path class="st0" d="M113.5,96.9c4.1-0.3,7.1-1.8,9.1-5.4c1.1-2,1.7-4,1.9-6.2c0.3-2.4-0.2-0.1,1.6-0.7c0.5-0.2,0.9-0.8,1.2-1.3
	c0.7-1.1,1.6-2.4,1.9-3.7c0.9-3-2.2,1.7-0.3,0.5c0.7-0.4,1.5-0.7,2-1.4c0.8-1.1,1.3-2.2,1.6-3.5c0.2-1.4-0.1-1-1,1.1
	c0.8-0.5,1.8,0.1,2.5,0.3c0.8,0.2,2.4-0.7,3.1-0.9c0.6-0.2,1.7-2.3,1.7-2.9c0-3-0.1-6-0.1-9.1c0-1.8,0-3.7-0.1-5.5
	c0-0.4,0-0.9,0-1.3c-1.7,2.4-1.5,2.7,0.5,1.1c0.7-0.5,1.4-1,2.1-1.6c3.4-3,2.3-8.2,3.5-10.6c8.8-17.5-8.7-37.2-24-43.3
	C106.8-3,94.2,7.2,87.4,19c-5.6,9.8-7.3,20.3-8.5,31.4c-0.7,6.6-6.7,14-10.3,19.5c-0.3,0.5-1.7,3.4-0.6,1.6
	c4-6.2,7.8-12.5,10.9-19.1c2.2-4.6,2-9.3,2.7-14.2c1.1-7.8,3.6-15.9,8.2-22.3C94.5,9.2,104.7,2,113.3,3.7
	c16.9,3.4,31.2,18.5,31.8,36c0.1,3.8-2.3,6.7-2.5,10.2c-0.1,1.5-0.2,3.1-0.3,4.6c-0.1,1.3,2-2.3-0.3-0.2c-1,0.9-2.2,1.1-3,2.1
	c-3.3,4.3-1.8,10.2-1.8,15.4c0,1.3,0,2.5,0,3.8c0.6-1,1.1-1.9,1.7-2.9c-3.4,1.2-5.8-0.5-7.7,3.1c-0.3,0.5-0.3,0.8-0.4,1.4
	c-0.3,2.8,2.6-2-0.4-0.1c-1.1,0.7-1.7,1.5-2.3,2.7c-0.2,0.4-0.3,0.8-0.4,1.2c-0.3,1.6-1.2,0.1-2.2,0.8c-1,0.7-1.7,1.9-2.2,3
	c-0.8,1.5-0.6,3.5-0.9,5.1c-0.6,3.1-4.7,3.8-7.3,4C114.4,94,113.9,96.8,113.5,96.9"/>
<path class="st0" d="M131.4,75.3c-1.6-0.5-3.3-0.9-4.9-1.4c-0.4-0.1-1-0.4-1.4-0.4c-0.4,0.1-1,0.6-1.4,0.9c-1.5,1-3,2-4.6,3
	c0.3-0.2,0.4,0.1,0.1-0.2c-0.2-0.2-0.5-0.4-0.7-0.7c-6.3-6.7-4.9-17.4-2.3-25.3c0.6-1.8,1.3-3.5,2-5.2c0.4-0.8,0.5-1,1.1-1.5
	c1.5-1.2,2.9-2.3,4.4-3.4c0.4-0.3,2.1-1.2,2.1-1.8c0.1-1.5,0.1-3.1,0.2-4.6c0-0.8,0.1-1.7,0.1-2.5c0-0.2,0-0.4,0-0.6
	c0-0.3-0.4,0.2-0.1,0.1c1.2-0.2,2.4-0.2,3.6-0.1c6,0.2,11.7,2.7,16.2,6.7c0.3,0.2,0.6-0.2,0.3-0.5c-5.3-4.7-13.1-7.9-20.4-6.6
	c-0.1,0-0.2,0.1-0.2,0.3c-0.1,1.6-0.1,3.3-0.2,4.9c0,0.9-0.1,1.7-0.1,2.6c0,0.3-0.1,0.4,0.1,0.2c-0.2,0.1-0.3,0.3-0.5,0.4
	c-1.6,1.3-3.2,2.5-4.9,3.8c-0.5,0.4-1.1,0.9-1.6,1.3c-0.1,0.1-0.2,0.1-0.2,0.2c-0.5,1.1-1,2.3-1.5,3.4c-3.4,8.4-5.4,19.4,0.3,27.4
	c0.6,0.8,1.3,1.6,2.1,2.2c0.1,0.1,0.2,0.1,0.3,0c1.9-1.3,3.9-2.5,5.8-3.8c0.1-0.1-0.4,0-0.1,0.1c0.2,0.1,0.5,0.1,0.7,0.2
	c0.7,0.2,1.4,0.4,2.1,0.6c1.1,0.3,2.1,0.6,3.2,0.9C131.5,75.9,131.7,75.3,131.4,75.3"/>
<path class="st0" d="M103.4,83.1c-1,1-2.2,2-3.3,3c-1.5,1.2-3.6,3.1-5.6,3.1c-0.8,0-1.4,2.9-1.7,2.9c2,0,4-1.7,5.4-2.9
	c1.3-1,2.5-2.1,3.6-3.2c0.5-0.5,0.8-1.2,1.1-1.7C103.1,84.1,103.5,83.1,103.4,83.1"/>
<path class="st0" d="M68.1,61.7c0.3,7.8,10,16,15.3,21.1c2.7,2.6,5.4,5.2,8.1,7.8c2,1.9,3.9,3.7,5.9,5.6c2.4,2.3,2,1.9,0.1,5.3
	c-1.2,2.1,0.2,0.3,0.7-0.6c1-1.7,1.8-3.5,2.6-5.3c0,0,0.2-0.4,0.1-0.5C95.7,90,90.4,85,85.1,79.9c-5.2-5-14.9-13.3-15.3-20.9
	C69.8,59.4,68.1,60.8,68.1,61.7"/>
<path class="st0" d="M95.9,90.9c3,5.4,3.9,11.2,5.7,17c2.1,6.8,2.7,14.2,3,21.2c0.3,6.1-0.3,12.7-1,18.7c-0.9,8.1-4.2,14.9-7.2,22.3
	c-0.1,0.3,1.4-1.8,1.6-2.4c0.4-0.9,0.7-1.8,0.9-2.7c-0.7,2.5,0.4-0.3,0.9-1.3c1.9-3.4,3.1-7,4.1-10.8c1.8-7.3,2.1-15,2.4-22.5
	c0.4-7.7-1-15.7-2.4-23.2c-1.2-6.3-3.2-13.5-6.4-19.1C97.8,88.3,95.6,90.2,95.9,90.9"/>
<path class="st0" d="M39.1,121.3c0.6,3.5,1.3,7,2.2,10.4c1.3,5.6,2.8,11.3,5.5,16.4c0.2,0.3,0.7,0.1,0.5-0.2
	c-2.7-5.1-4.2-11-5.5-16.6c-0.8-3.3-1.5-6.7-2.1-10.1C39.6,120.9,39,121,39.1,121.3"/>
<path class="st0" d="M32.7,128c1.8,2.8,3.7,5.6,5.5,8.4c1.4,2.1,2.9,4.2,4.4,6.3c0.9,1.2,1.8,2.6,3,3.4c0.3,0.2,0.6-0.3,0.3-0.5
	c-1.2-0.8-2-2.2-2.9-3.3c-1.5-2-2.9-4-4.3-6c-1.9-2.8-3.8-5.6-5.6-8.5C33.1,127.5,32.5,127.7,32.7,128"/>
<path class="st0" d="M43.5,114.9c0,6.5,0,13-0.4,19.5c-0.4,6.3,1.7,11.1,3.5,17.1c3.2,10.6,5.6,21.8,10,32c1.1,2.4,3,3.9,4.5,6
	c1.1,1.6,1.7,4.2,2.4,6c1.3,3.5,2.6,7,3.9,10.6c0.6,1.7,1.1,4.4,2.4,5.7c0.8,0.8,2.7,1.4,3.7,1.8c3,1.4,6.1,2.9,9.2,4.3
	c5.4,2.6,10.9,5.1,16.3,7.7c0.3,0.1,1.8-2.9,1.7-2.9c-9.7-4.6-19.5-9-29.1-13.7c-1.1-0.5-1.8-3.9-2.2-4.9c-1.3-3.5-2.6-7-3.9-10.6
	c-0.8-2.1-1.6-4.2-2.5-6.3c-1-2.2-3.3-4.2-4.6-6.4c-2.2-3.5-3-8.8-4.2-12.7c-1.9-6.4-3.8-12.8-5.8-19.2c-1.8-5.9-4.2-11.2-3.6-17.4
	c0.6-6.4,0.4-13,0.5-19.5C45.2,112.6,43.5,114,43.5,114.9"/>
<path class="st0" d="M76.7,215.7c15.9,12.8,34.2,25.4,53.8,31.5c3.4,1.1,7.2,1.9,10,4.1c2,1.5,3.8,2,5.5,0.4
	c6-5.6,8.9-14.4,9.8-22.2c0,0,0-0.1,0-0.1c-9.8-7.2-20-13.8-29.6-21.3c-8.9-7-16.6-15.3-24.5-23.4c-3.6-3.8-2.4-9.6-3-14.2
	c-1.1-9-3.8-17.3-7.7-25.4c-4.9-10.2-9.8-20.3-14.7-30.5c0.2,0.4-2.1,2.2-1.7,2.9c5.6,11.6,11.3,23.1,16.8,34.8
	c3.3,7,5,14.7,5.8,22.4c0.2,2.2-0.6,6.4,0.4,8.4c2.8,5.4,6.9,9.3,11.2,13.6c12.3,12,25.6,22.2,39.9,31.9c1.5,1,2.9,2,4.4,3.1
	c2.3,1.7-0.5,8.4-1.2,10.4c-1.1,3-3.1,5.9-5.6,7.9c-1.2,0.9-5-2.3-6.1-2.7c-4.4-1.8-8.9-3-13.3-4.7c-17.5-6.6-33.9-18-48.5-29.7
	C78.3,212.7,76.4,215.4,76.7,215.7"/>
<path class="st0" d="M83.8,119c1.4,5.4,2.9,10.9,4.7,16.2c0.5,1.6,1.1,3.2,1.8,4.7c0.4,0.9,1.1,1.7,1.4,2.6
	c1.5,4.6,2.6,9.5,2.7,14.4c0,0.4,0.6,0.4,0.6,0.1c-0.1-4.8-1.1-9.6-2.6-14.2c-0.3-0.8-0.8-1.5-1.2-2.3c-0.7-1.4-1.3-2.9-1.8-4.4
	c-2-5.6-3.6-11.4-5-17.2C84.2,118.5,83.7,118.6,83.8,119"/>
<path class="st0" d="M91.9,112.6v8.6c0,1.3,0.5,2.7,0.7,3.9c0.1,0.6,0.1,1.3,0.2,2c0.3,3.9,0.5,7.7,0.7,11.6
	c0.1,2.1,0.2,4.2,0.2,6.2c0,1.2,0.1,2.6-0.2,3.8c-0.1,0.4,0.4,0.5,0.5,0.2c0.3-1.1,0.2-2.2,0.2-3.3c0-2-0.1-3.9-0.2-5.9
	c-0.2-4-0.4-8.1-0.7-12.1c-0.2-2.2-0.5-4.3-0.9-6.4c-0.2-1.1,0-3,0-4.3v-4.3C92.5,112.3,91.9,112.3,91.9,112.6"/>
<path class="st0" d="M95.9,105.8c0.7,6,1.4,12,1.4,18.1c-0.1,5.9-1.9,11.8-3.5,17.5c-0.1,0.3,0.4,0.5,0.5,0.2
	c1.6-5.8,3.4-11.6,3.5-17.6c0.1-6.1-0.7-12.2-1.4-18.2C96.4,105.4,95.9,105.5,95.9,105.8"/>
<path class="st0" d="M69.6,59.4c-2.1,2.2-6,3.2-7.8,5.7c-0.6,0.8-1.2,1.6-1.6,2.4c-0.3,0.5-2,3.4-0.6,1.4c-2.2,3.4-6.6,5-9.8,7.8
	c-14.5,12.6-24.9,32.5-30.1,50.8c-3.5,12.5-3.2,25.4-5.4,38c-1,5.8,4.6,10.7,7.9,14.4c4,4.5,8.7,7.7,13.5,11.4
	c0.1,0.1,2-2.7,1.7-2.9c-7.7-5.7-18.3-12.5-20.9-22.2c-1.4-5.3,0.6-11.8,0.9-17.3c0.3-5.1,1.4-9.8,2.1-14.9
	c2.8-20.7,14.6-43.5,31.2-56.6c2.8-2.2,5.3-2.6,7.3-5.5c0.6-0.9,1.2-1.7,1.7-2.6c0.4-0.8,2.4-3.7,0.4-1c1.9-2.7,5.7-3.7,7.9-6
	C68.7,61.6,69.2,59.9,69.6,59.4"/>
<path class="st0" d="M14.5,166.6c1.1,5.6-0.8,10.7,1.2,16.3c1.3,3.8,3.3,10.2,6.5,12.8c4.5,3.6,5.9,8.4,9.4,12.6
	c3.3,4.1,6.7,8.2,10,12.3c-0.1-0.1,2.1-2.5,1.7-2.9c-3.2-3.9-6.3-7.7-9.5-11.6c-3.6-4.4-5-9.9-9.9-13.3c-1.5-1-2.6-4.1-3.6-5.7
	c-1.2-1.9-1.9-3.9-2.6-6.1c-1-2.9-1.6-5.1-1.7-8.2c-0.1-3,0.8-6.1,0.2-9.1C16.4,164.3,14.3,165.6,14.5,166.6"/>
<path class="st0" d="M78.5,273.3c17.7-4.6,35.5-15.4,43-32.7c0.5-1.2-1.2,1.5-1.4,2c-6.4,14.7-25.1,23.9-39.9,27.8
	C79.3,270.6,79,273.2,78.5,273.3"/>
<path class="st0" d="M19.1,190.6c0.1,3.5-0.6,8,0.3,11.3c0.9,3.1,1.4,5.8,1.7,8.9c0.3,2.7,2.7,5.6,4.2,7.8
	c3.3,4.7,7.8,8.7,10.6,13.7c-0.2-0.3,2.1-2.3,1.7-2.9c-2.4-4.3-6.2-8-9.2-11.9c-1.9-2.5-5.3-6.2-5.6-9.4c-0.2-2.7-0.5-4.9-1.3-7.5
	c-1.2-4.1-0.6-8.6-0.8-12.8C20.9,188.2,19.1,189.7,19.1,190.6"/>
<path class="st0" d="M39.6,262.4c-5.4-3.9-7.5-10.5-8.7-16.9c-1.1-5.4-2.2-10.8-3.5-16.2c-0.5-2-0.9-4-1.6-5.9c-0.4-1-0.8-6-0.7-6.1
	c0.3-0.4,1.8-3.3,1-2.2c-5.4,7.6,0.2,19.1,1.9,27.2c1.7,8.2,2.8,17.9,10,23.1C38,265.4,39.9,262.6,39.6,262.4"/>
<path class="st0" d="M145.9,274c6.9,1.2,13.7,2.8,20.4,4.6c8.4,2.3,20.1,4.8,26,11.7c-0.1-0.1,2.1-2.5,1.7-2.9
	c-5.9-7-17.6-9.4-26-11.7c-6.7-1.8-13.6-3.4-20.4-4.6C147,270.9,146,274,145.9,274"/>
<path class="st0" d="M179.1,292c-4.7-3.4-9.6-6.5-14.5-9.6c-3.7-2.3-7.5-4.5-11.5-6.4c-2.9-1.4-6.1-3-9.4-3.2
	c-0.4,0-0.4,0.5-0.1,0.6c3.2,0.2,6.4,1.8,9.2,3.1c4.1,2,8,4.3,11.9,6.7c4.7,2.9,9.4,6,14,9.2C179.1,292.7,179.4,292.2,179.1,292"/>
<path class="st0" d="M165.7,277.7c-6.5-3.2-16.8-8.7-24.2-6.4c-0.9,0.3-1.1,2.8-1.7,2.9c7.4-2.3,17.7,3.1,24.2,6.4
	C164.3,280.7,165.9,277.7,165.7,277.7"/>
<path class="st0" d="M153,329.2c2.9,0.8,5,2.9,7.4,4.5c2.1,1.4,7.9-1.8,9.9-2.5c7-2.4,14.2-4.1,20.5-7.9c0.8-0.5,1.2-2.6,1.6-2.9
	c-6.3,3.7-13.5,5.4-20.4,7.8c-3.1,1.1-6.1,2.3-9.4,2.9c-0.7,0.1-2.7-2.1-3.4-2.5c-1.5-1-2.8-1.9-4.6-2.4
	C154.2,326.1,153,329.2,153,329.2"/>
<path class="st0" d="M193.7,280.1c2.1,3.7,4.2,7.4,6.2,11.2c1.8,3.2,4,6.1,2.9,9.9c-0.3,1.2-0.7,2.5-1,3.7c-0.3,1.3-1.6,3.6,0.2,0.6
	c-1,1.5-1.9,3-2.9,4.6c-2.3,3.7-4.7,7.4-7,11.1c0.3-0.3,0.5-0.7,0.8-1c-6.3,0.9-12.6,1.9-18.9,2.9c-7.1,1.1-15.5,1.6-22.1,4.4
	c-3,1.3-10.7-5.7-12.4-7c-8.3-6.1-16-13.1-22.6-21.1c-3.4-4.1-6.3-8.6-8.5-13.5c-1-2.3-1.8-4.7-2.3-7.2c-0.4-1.6,0.5-5.3-1.9-2.4
	c0.8-1,1.2-0.7,2.4-0.6c3.3,0.2,6.5,0.6,9.8,1c2.5,0.3,6.3-1,8.8-1.2c4.8-0.6,9.7-1.1,14.5-1.2c9.2-0.2,17.9,7.1,24.2,12.8
	c1,1,2.1,2,3.1,3c0,0,2.1-2.6,1.7-2.9c-7-7-16-15-26.4-15.8c-4.3-0.3-9,0.5-13.3,1c-3.1,0.4-6.1,0.7-9.1,1.2
	c-3.1,0.5-6.2-0.3-9.3-0.5c-3-0.2-4-0.9-5.6,1.6c-1.7,2.7-0.9,5.3-0.3,8.3c4.3,18.9,23.2,33.9,38.4,44.2c1.1,0.8,2.3,1.8,3.6,2.2
	c3.3,1,4.6,0.6,7.9-0.1c8.8-2,17.8-3.2,26.8-4.6c2.7-0.4,9.2,0.1,10.9-2.6c3.3-5.2,6.6-10.4,9.9-15.7c6.8-10.7-1.4-20-6.6-29.3
	C195.6,277.4,193.3,279.4,193.7,280.1"/>
<path class="st0" d="M106,273.4c-15.9-1-37-1.4-46.6-16.1c-1.8-2.8-7.8-3.8-10.5-2c-3.7,2.5-7.2,5.2-10.4,8.4
	c-5.8,5.7-12.1,10.8-18.5,15.9c-5.5,4.4-9.8,9.2-12.5,15.7c-0.4,1.1-0.4,2.5-0.5,3.7c-0.1,1.6,1.9,4.5,1.6,5.6
	c0.7-2.9,0.4-1-0.3,0.3c-0.5,0.8-0.7,1.6-0.8,2.6c-1,6.9,8,1.4,8-2.5c0-1.5,0.8-2.9,1.3-4.3c0.9-2.2-2.6,2.7,0.1,0.9
	c0.6-0.4,1.2-0.7,1.9-0.6c3.6,0.7,8.4,0,12.2,0.2c7,0.3,13.6-1.8,20.5-2.1c9.2-0.5,18.8,0.1,27.7,2.3c14.9,3.7,29.9,7.3,44.8,11
	c0.5,0.1,1.6-2.9,1.7-2.9c-15.1-3.7-30.1-7.4-45.1-11.1c-9.2-2.3-19-2.6-28.4-2.1c-3.9,0.2-7.6,1.4-11.4,1.9
	c-3.5,0.4-6.7,0.2-10.2,0.1c-5.2-0.2-12-1.9-14.7,3.6c-0.5,1-0.9,2.1-1.3,3.2c-0.7,1.9-1.8,3.1,0.6,0.4c-1.2,1.3-2.1,2.4-3.8,3.1
	c-1.4,0.5-2.1-3.4-2.1-3.7c-0.1-2.2-1.4,1.7-0.2-0.2c1.5-2.3,1.4-2.7,0.2-5c-2.8-5.2,2.5-12.1,6.5-14.9c6.9-4.8,13.2-10.6,19.5-16.1
	c4.6-3.9,9.6-11.2,16.3-11c6,0.2,6.5,5.4,10.4,8.2c12.3,9,27.6,9.8,42.3,10.7C105,276.4,105.8,273.4,106,273.4"/>
<path class="st0" d="M20,298.2c-1.5,1.9-2.9,4.2-3.1,6.6c-0.1,2-0.6,3.8-1,5.7c0.4-0.7,0.8-1.5,1.2-2.2c-1.3,1.9-2.4,3.7-3.4,5.7
	c0.4-0.6,0.8-1.2,1.1-1.7c-1,0.6-1.5,0.4-2.4-0.2c-1.1-0.7-0.6-2.4-0.6-3.5c-0.5,0.9-1,1.8-1.5,2.7c0.1-0.1,0.2-0.3,0.4-0.4
	c0.5-0.6,0.9-1.3,1.2-2c0-0.1,0.5-1.1,0.1-0.6c-1.4,1.6-2.6,4-1.9,6.1c0.3,0.7,1.8,1.7,2.5,1.2c1-0.6,1.4-1.5,1.9-2.5
	c0.4-0.7,0.7-1.3,1.1-2c-1.1,2.1,0.2-0.2,0.5-0.7c0.6-0.8,1.3-1.7,1.5-2.7c0.3-1.2,0.6-2.4,0.8-3.6c0.1-0.7-0.1-2.8,0.3-3.3
	c0.5-0.6,0.9-1.3,1.2-2C19.9,298.7,20.4,297.6,20,298.2"/>
<path class="st0" d="M22,298.1c-2.6,3.1-2.4,5.9-2.1,9.7c0.2,1.9,0.2,2.6,1.1,4.3c0.8,1.4,1.9,2,1.5,3.7c0.5-0.9,1.1-1.9,1.6-2.8
	c-3.4,2.7-7.4-1.3-6.8-4.9c-0.1,0.5-1.6,1.8-1.7,2.8c-0.5,3.2,1.4,5.6,4.5,5.8c2.2,0.1,3.3-1.5,4-3.4c0.7-2-1-3.2-2-5
	c-0.7-1.2-0.5-2.5-0.6-3.9c-0.1-0.8-0.1-1.6-0.2-2.4c0-0.5,0.2-2.3-0.6-1.3c0.5-0.6,0.9-1.3,1.2-2C22,298.6,22.5,297.6,22,298.1"/>
<path class="st0" d="M22.1,300.8c0.6,3.2,2.1,6.1,3.9,8.7c0.8,1.2,3.2,1.3,3.2,2.8c0,0.1,0,0.3,0,0.4c1.1-1.4,0.9-1.6-0.5-0.7
	c-0.2,0.1-0.5,0.1-0.7,0.1c-1.1,0.1-2.5,0.2-3.5-0.4c-0.2-0.1-1.9,2.8-1.7,2.9c1.9,1.2,5.2,0.5,6.5-1.3c0.5-0.7,2.8-4.1,1.4-4.8
	c-3.9-2.1-6-6.5-6.9-10.7C24,298.4,22,299.8,22.1,300.8"/>
<path class="st0" d="M29.4,300.9c0.4,0.8,1.3,2.5,0.9,3.4c-0.4,0.9-0.1,1.1,0.4,1.9c1,1.6,2.8,1.9,3.1,3.7c0.2-0.5,0.5-1,0.7-1.5
	c-0.1,0.1-0.2,0.3-0.2,0.4c-0.5,0.9,0.6-0.6-0.3,0.1c-0.8,0.7-1.9,0.7-2.9,0.5c-0.6-0.1-1.5,3-1.7,2.9c3.2,0.4,4.8-2.3,5.9-4.9
	c0.8-1.8-2.8-3.9-3.7-5.4c-0.1,0.3-0.2,0.5-0.3,0.8c0.9-1.7,0.6-3.3-0.3-5C31.2,298.3,29,300.3,29.4,300.9"/>
<path class="st0" d="M147.5,250.2c1.7,1,2.7,1.4,3.2,3.4c0.6,2.4,2.8,4.1,4.6,5.7c2.8,2.5,6.8,5.5,10.2,7c2.6,1.2,5.3,2.3,8.1,2.9
	c2.3,0.5,3.9,2.8,6.4,3.2c0.4,0.1,3.2,4.6,3.4,5.2c0.5,2.4,3.1,4,5.1,2.4c0.5-0.4,1.8-2.2,1.6-2.9c-0.9-4.3-1.4-6.7-3.5-10.6
	c-1.4-2.6-4.3-4.4-6.5-6.4c0,0-2,2.6-1.7,2.9c2.3,2,5.1,3.7,6.5,6.4c2,3.7,2.6,6.4,3.5,10.6c0.5-1,1.1-1.9,1.6-2.9
	c-3.3,2.6-7.1-5.5-8.3-7.7c-0.4-0.7-4.7-2.4-5.7-3.1c-0.6-0.4-2.7-0.6-3.5-0.8c-1.8-0.6-3.5-1.3-5.2-2.1c-3.6-1.6-7-4.8-10.2-7
	c-3.8-2.7-4.1-6.9-7.8-9.1C149,247.1,147.3,250,147.5,250.2"/>
<path class="st0" d="M182.2,259c3.1,2.2,8.2,4.4,9.5,7.9c1.6,4.2,2.6,8,3.4,12.4c0.5-1,1.1-1.9,1.6-2.9c-1.2,0.9-2.3,1.3-3.6,0.5
	c-2.2-1.5-1.2-3.7-2.5-5.5c-1.1-1.5-1.8-4.5-3.3-5.5c-1.4-0.9-2.7-1.9-4.1-2.8c-0.1-0.1-2,2.7-1.7,2.9c1.4,0.9,2.7,1.9,4.1,2.8
	c1.5,1,2.2,3.9,3.3,5.5c1.2,1.7,0.5,3.9,2.5,5.5c1.2,1,2.6,0.3,3.7-0.5c0.5-0.4,1.7-2.2,1.6-2.9c-0.8-4.3-1.6-7.9-3.2-11.9
	c-0.8-2-1.2-2.4-3.1-3.7c-2.2-1.6-4.4-3.1-6.6-4.7C183.8,256,181.9,258.8,182.2,259"/>
<path class="st0" d="M154.1,232.5c5.2,3.7,10,6.4,16.2,7.7c1.9,0.4,3.8,1.7,5.3,2.8c2.2,1.5,5.7,3,7.1,5.2c2.2,3.4,3.4,7.4,6.3,10.5
	c1.8,1.9,4.2,3.6,4.4,6.3c0.1,2.3,0.9,4.8,1.4,7c0.2-0.5,0.5-1,0.7-1.6c-0.3,0.4-0.5,0.9-0.8,1.3c-1,1.7-0.7,1.8,0.3,0.2
	c2-3.4,1.2-7.8-0.2-11.5c-1-2.4-3.9-4.5-5.6-6.4c-1.7-1.9-1.8-4.4-3.6-6.4c-1.7-1.8-1.8-3.2-4-4.8c-2.4-1.6-4.7-3.7-7.4-4.8
	c-2.6-1-5.4-1.2-7.9-2.2c-3.7-1.4-7.2-4.1-10.5-6.3C155.7,229.5,153.9,232.3,154.1,232.5"/>
<path class="st0" d="M97.9,166.1c1.6,3.7,4.4,6.5,5,10.7c0.7,4.3-0.2,8.9-0.7,13.2c0-0.5,1.6-1.8,1.7-2.8c0.4-3.6,1.5-8.2,0.9-11.8
	c-0.8-4.9-3.4-7.9-5.3-12.3C99.8,163.5,97.6,165.3,97.9,166.1"/>
<path class="st0" d="M109.8,197.7c2.6,2,5.6,2.9,7.8,5.3c0.8,0.9,2.3,1.2,3.2,2c0.7,0.7,1.7,2.4,2.7,2.7c7.2,1.9,18.3,3.9,23.4,9.8
	c-0.1-0.1,2.1-2.5,1.7-2.9c-5-5.9-16-7.9-23.2-9.8c-1.8-0.5-3.8-3.6-5.8-4.4c-1.1-0.5-1.9-2.1-3.1-2.7c-1.8-0.9-3.4-1.7-5-2.9
	C111.4,194.7,109.5,197.4,109.8,197.7"/>
<path class="st0" d="M104.3,135.4c2,7.5,4,15.9,8.2,22.5c2.4,3.7,6,7.1,8.8,10.5c9.3,10.8,18.5,21.6,27.8,32.4
	c0.4-0.8,0.8-1.5,1.2-2.3c-2.5,3.8-5,7.6-7.4,11.4c-0.6,0.9-0.2,0.6-1.5,0c-2.4-1-4.7-2.2-7.1-3.4c-6.8-3.4-13.4-7.4-19.2-12.4
	c-4.1-3.5-6.7-7.2-11.3-10.1c-0.2-0.1-1.9,2.8-1.7,2.9c7.1,4.5,12,11.2,19.1,15.9c6.2,4.1,12.9,7.6,19.8,10.5
	c0.1,0.1,0.5-0.6,0.5-0.7c2.8-4.2,5.5-8.4,8.2-12.6c0.2-0.2,1.4-2,1.1-2.3c-9.1-10.6-18.2-21.3-27.3-31.9c-3-3.5-5.8-7-8.9-10.4
	c-5-5.7-6.7-16-8.6-23.1C106.2,133,104.1,134.5,104.3,135.4"/>
<path class="st0" d="M141.5,212.9c1.8,0.8,3.6,1.7,5.1,3.1c1.8,1.5,2.9,4.7,4.1,6.6c2.4,3.8,6.5,6.8,10.6,8.7
	c0.3,0.1,1.8-2.9,1.7-2.9c-3.7-1.7-7.8-4.6-10.1-8c-1.5-2.2-2.7-4.5-4.1-6.8c-1.1-1.8-3.8-2.9-5.6-3.6
	C142.8,209.8,141.4,212.9,141.5,212.9"/>
<path class="st0" d="M158.7,229.1c1.1,0.9,2.8,1.8,3,3.2c0.1,0.7,0.3,1.3,0.5,1.9c0.2,0.4,1.1,1.2,1.1,1.5c0.1,1,0.3,2.4,1,3.1
	c0,0,2-2.6,1.7-2.9c-0.8-0.7-0.9-2.1-1-3.1c0-0.3-0.9-1.1-1.1-1.5c-0.3-0.6-0.5-1.4-0.5-2.1c-0.1-1.2-2.1-2.2-3-3
	C160.4,226.2,158.4,228.8,158.7,229.1"/>
<path class="st0" d="M166.7,224.9c-0.5,1-1.3,2.4-1,3.5c0.3,1.2,1,2.1,1.8,3c0.4,0.4,1,0.8,1.2,1.4c0.3,1,0.2,2,0.5,3
	c0.3,1,1.2,2.8,0.9,3.8c0.5-0.9,1.1-1.9,1.6-2.8c-0.1,0.1-0.3,0.2-0.4,0.3c-0.8,0.6-1.1,2.6-1.6,2.9c1-0.7,1.7-2,2.1-3.1
	c0.3-1-0.5-2.6-0.8-3.6c-0.3-1.1-0.3-2.3-0.6-3.4c-0.5-1.7-4.2-3.3-2.9-5.6C168.6,222.2,167.3,223.9,166.7,224.9"/>
<path class="st0" d="M166,227.9C166,227.9,165.9,228,166,227.9c0.2-0.2,0.4-0.3,0.6-0.5c0.5-0.3,1-0.5,1.5-0.4c0.3,0,0.9-1.2,1-1.4
	c0-0.1,0.8-1.5,0.7-1.6c-1-0.1-1.9,0.5-2.5,1.2c-0.5,0.6-0.9,1.3-1.2,2C166,227.4,165.5,228.4,166,227.9"/>
<path class="st0" d="M172.9,221.8c2.1,3.9,5.2,7.3,7.2,11.2c1.8,3.6,3.2,7.1,4.6,10.9c0.5-0.9,1-1.9,1.5-2.8c-2.6,3.2-6.7-6-7.6-7.8
	c-1-1.9-2.9-3.1-4.2-4.8c-1.3-1.8-3.8-2.7-5.7-4.2c-0.1,0-2,2.7-1.7,2.9c2.5,2.1,4.6,2.8,6.4,5.2c0.8,1,1.9,1.9,2.9,2.7
	c0.7,0.5,1.3,2.6,1.7,3.4c1.6,3.1,4.8,8.9,7.6,4c1.7-3-1.6-7.9-3.1-10.8c-2.3-4.5-5.7-8.4-8.1-12.9
	C174.7,219.1,172.5,221.1,172.9,221.8"/>
<path class="st0" d="M183.7,240.8c2,1.8,3.5,1.2,4.8-0.8c1.2-2,1.3-2.3-0.1-4.1c-3.8-4.9-6.3-9.9-10.9-14.2
	c-1.8-1.7-3.6-4.4-5.7-5.7c-2.4-1.4-4.5-3.1-6.7-4.8c-5.3-4-9.8-8.2-14.4-13c0,0-2.1,2.5-1.7,2.9c3.2,3.3,6.3,6.7,10,9.6
	c3.9,3,9.2,5.8,12.5,9.4c3.2,3.5,7,6.4,9.6,10.3c1.4,2.1,2.8,4.3,4.3,6.5c0.3,0.5,2.7,2.9,2.5,3.5c1.5-4.2,0.4,0-2.5-2.6
	C185.4,237.9,183.4,240.5,183.7,240.8"/>
<path class="st0" d="M150,215.9c-0.6-0.5-1.2-1.1-1.7-1.6c-0.1-0.1-1,1.3-1,1.4c-0.1,0.1-0.9,1.4-0.7,1.6c0.6,0.5,1.2,1.1,1.7,1.6
	c0.1,0.1,1-1.3,1-1.4C149.3,217.3,150.1,216.1,150,215.9"/>
<path class="st0" d="M184.6,243.9c0.1,1.1,0.1,2.3,0.2,3.4c0.1,1.1,0.2,2-0.1,3c0.5-0.9,1.1-1.9,1.6-2.8c-0.2,0.1-0.4,0.3-0.5,0.4
	c-0.5,0.4-0.8,1.2-1.1,1.7c-0.1,0.1-0.5,1.2-0.4,1.1c1.3-1,2.5-2.8,2.4-4.5c-0.1-1.7-0.2-3.5-0.3-5.2c0-0.2-0.7,0.8-0.8,0.9
	C185.2,242.4,184.5,243.3,184.6,243.9"/>
</svg>
