<?xml version="1.0" encoding="utf-8"?>
<!-- Generator: Adobe Illustrator 19.0.1, SVG Export Plug-In . SVG Version: 6.00 Build 0)  -->
<svg version="1.1" id="Слой_1" xmlns="http://www.w3.org/2000/svg" xmlns:xlink="http://www.w3.org/1999/xlink" x="0px" y="0px"
	 viewBox="0 0 336 189" style="enable-background:new 0 0 336 189;" xml:space="preserve">
<style type="text/css">
	.st0{fill:#616C90;}
</style>
<path class="st0" d="M274.2,91.2c-1.1,9.9-2.6,20.2-6.2,29.5c-0.1,0.3,1.3-1.8,1.6-2.4c3.7-9.4,5.1-19.8,6.3-29.8
	C275.8,89,274.3,90.3,274.2,91.2"/>
<path class="st0" d="M279.6,100.8c-2.5,4.2-5.3,8.3-8.7,11.9c-0.5,0.5-0.9,1.3-1.2,1.9c-0.1,0.1-0.5,1.1-0.1,0.6
	c3.8-4.1,6.9-8.8,9.8-13.5C279.9,100.9,280.7,98.9,279.6,100.8"/>
<path class="st0" d="M280.5,78.7c-3.2-6.6-9.7-11.5-16.7-13.5c-6.6-1.9-13.3-0.2-19.5,2c-4.4,1.6-9.5,6.4-12.4,9.9
	c-1.2,1.4-1.7,3.2-2.4,4.8c-1.1,2.8-0.8,3.8-1.1,6.6c-1.8,18.3,0.9,37.6,6.7,55c1.1,3.3,2.5,6.6,3.9,9.8c0.6,1.3,2.9,7.7,4.2,8
	c3.8,0.8,7.7,1.3,11.6,1.5c4.6,0.3,13.6,0.9,13.6-5.9c0-11.2,0.2-22.5,0.9-33.7c0.4-6.8,0.8-13.5,1.2-20.3c0.1-1.9,0.6-3.7,1.1-5.5
	c0.7-2.8,0.6-4.7,0.3-7.6c0,0.3-1.8,1.9-1.7,2.7c0.3,2.4,0.5,4.3,0,6.7c-0.5,2.2-1.2,4.3-1.3,6.5c-0.4,7-0.9,14-1.3,21
	c-0.3,5.8-0.7,11.6-0.8,17.4c-0.1,5.2,1.1,12.3-0.5,17.4c0.5-0.9,1.1-1.7,1.6-2.6c-6.7,2.9-15.5,1.2-22.4-0.1
	c-2.7-0.5-5.3-8.9-6.3-11.3c-2.5-5.7-4.3-11.8-5.7-17.8c-3.4-14-4.8-29.2-3.4-43.6c0.2-2.5,0-3.7,1-6.2c0.2-0.6,0.4-1.1,0.7-1.7
	c0.9-2.2-2.3,2.9-0.8,1.4c1.3-1.3,2.7-2.5,4-3.8c3.6-3.5,7.9-5.5,12.6-7.2c11.6-4.2,26,2.3,31.2,13.2
	C278.7,81.2,280.9,79.4,280.5,78.7"/>
<path class="st0" d="M271.6,73c-3.7-4.7-9.5-8-15.4-8.5c-0.7-0.1-1.4,2.9-1.6,2.8c6,0.5,11.7,3.8,15.4,8.5
	C269.8,75.7,272,73.5,271.6,73"/>
<path class="st0" d="M267.9,120.9c7-1.3,12.4-6.3,15.6-12.4c1.1-2-0.2-0.3-0.7,0.6c-2.5,4.6-8.2,8.1-13.3,9
	C268.7,118.2,268.4,120.8,267.9,120.9"/>
<path class="st0" d="M289,78.5c-5.2-8.3-14.2-14.9-24.2-15.2c-0.7,0-1.4,2.9-1.6,2.8c10,0.3,18.9,6.9,24.2,15.2
	C287.2,81.1,289.4,79,289,78.5"/>
<path class="st0" d="M267.5,136.6c3.5-3.1,7-6,10.6-8.9c4.4-3.6,10-9,15.9-9.8c0.6-0.1,1.4-2.1,1.6-2.6c1-2.5-0.4-4.4-0.9-6.9
	c-0.7-3.4-1.8-6.3-3.1-9.5c0.2,0.4-2,2.1-1.6,2.8c1,2.6,2.2,5,2.7,7.8c0.5,2.5,2.2,5.8,1.3,8.2c0.5-0.9,1.1-1.7,1.6-2.6
	c-5.6,0.7-10.7,5.6-15,9c-4,3.1-7.9,6.4-11.6,9.7C268.3,134.4,267.9,136.2,267.5,136.6"/>
<path class="st0" d="M288.6,84c0.4,5.8,1.3,13.9-1.5,19.2c0.5-0.7,0.9-1.3,1.4-2c0.5-3.2,1.7-7.6,0.6-10.8c0.2,0.5-1.9,2-1.6,2.8
	c1.1,3.1-0.1,7.5-0.6,10.6c0-0.2,1.1-1.6,1.4-2c3.1-6,2.5-14,2-20.6C290.3,81.7,288.5,83.2,288.6,84"/>
<path class="st0" d="M245.2,161.6c1,3,2.1,5.9,3.3,8.9c1.4,3.7,3.7,7.2,4.8,10.9c2.1,7.3,7.5,6.3,13.8,6.3c6.4,0,12.9,0.4,19.4-0.1
	c3.8-0.3,7.7-1.6,11.4-2.4c3-0.7,5.1,0.2,8.2,1.1c4.6,1.3,11,3.3,11.4-3.5c0.1-2.1-12-6.7-13.8-7.3c-5.8-1.9-13.6-1-19.8-1.5
	c-2.8-0.2-5.1-0.7-7.8-1.4c-3.3-0.9-3.9-1.4-5.2-4.6c-1.2-3-2.4-6-3.6-9c0.2,0.4-2,2.1-1.6,2.8c1.8,4.5,2.7,12,7.9,13.3
	c5.5,1.4,10.9,1.9,16.6,2.2c3.5,0.2,7,0.2,10.5,0.6c3.1,0.3,6.3,2.5,9,3.8c1.5,0.7,5.6,1.9,6,3.3c-0.1-0.4,0.4-0.3-1.3-0.4
	c-0.7,0-1.4,0-2,0c-2,0-3.5-1-5.4-1.5c-1.7-0.5-3.4-1-5.1-1.4c-1.2-0.3-2.3,0.5-3.5,0.8c-3.8,0.8-7.7,2-11.5,2.2
	c-6.4,0.5-12.9,0-19.3,0c-6,0-10.8,0.6-12.7-6.3c-1-3.4-3-6.5-4.3-9.8c-1.3-3.3-2.6-6.7-3.7-10C247,159.2,244.9,160.8,245.2,161.6"
	/>
<path class="st0" d="M295.3,177.5c4.9,0.6,9.2,1.1,13.9,2.7c2.5,0.9,4.9,1.7,7.4,2.6c1.4,0.5,2.8,1,4.2,1.6c1.1,0.4-0.7,0.2-0.1-0.1
	c-1.1,0.5-2.5,0.2-3.6,0c-0.6-0.1-1.5,2.9-1.6,2.8c3.3,0.4,7.4-1.3,7.2-5.4c0,0,0,0,0-0.1c-4.5-1.7-9.1-3.3-13.6-4.8
	c-3.9-1.4-8-1.6-12.1-2.1C296.4,174.6,295.5,177.5,295.3,177.5"/>
<path class="st0" d="M307.6,183.5h-13.5c-0.7,0-1.3,2.8-1.6,2.8H306C306.7,186.3,307.3,183.5,307.6,183.5"/>
<path class="st0" d="M307.4,153.5c1.8-1.1,4.1-3.9,4.3-6.1c0.4-4.4-5.5-7.6-9.3-7.1c-3.2,0.5-6,1.7-8.4,4.1
	c-1.7,1.7-4.7,4.8-2.7,7.1c-0.1-0.1,2-2.4,1.6-2.8c-0.9-1.1-0.9-1.1,0-1.9c0.9-0.9,2-1.5,3.1-2.1c1.5-0.9,3-1.2,4.8-1.5
	c2.2-0.3,3.8,0.1,5.6,1.4c1.7,1.2,5.4,4.4,2.6,6.1C308.2,151.2,307.8,153.3,307.4,153.5"/>
<path class="st0" d="M267,146.4c1.7-1.5,3.5-3.1,5.2-4.6c1-0.9,4.6,0.8,5.4,1.3c4.4,2.7,8.9,5.4,13.3,8.1c0.2,0.1,1.9-2.7,1.6-2.8
	c-4.4-2.7-8.9-5.4-13.3-8.1c-5-3.1-7,0.1-10.8,3.4C267.8,144.2,267.4,146,267,146.4"/>
<path class="st0" d="M291.1,118c3.5,3.1,6.6,6.7,11.8,6.3c8.6-0.7,16,3.6,22.6,8.6c15.8,11.9,8.5,38.1-6.3,47.3
	c-0.8,0.5-1.1,2.6-1.5,2.8c13.6-8.5,23.2-30.9,15.5-45.8c-4.4-8.5-14.9-14.2-23.9-15.5c-2.9-0.4-5.7,0.2-8.5-0.7
	c-3.4-1.1-5.4-3.3-8-5.8C292.7,115.2,290.8,117.7,291.1,118"/>
<path class="st0" d="M181.3,115c8.7,6.3,17.5,12.5,26.6,18.2c8.7,5.5,17.2,10.1,27.5,11.5c0.6,0.1,1.5-2.9,1.6-2.8
	c-10.3-1.4-18.8-6-27.5-11.5c-9.1-5.7-17.9-11.9-26.6-18.2C182.9,112.1,181.1,114.8,181.3,115"/>
<path class="st0" d="M250.4,168.4c-2.1,0.2-4.8-1-5.3-3.2c-0.2-1-0.3-1.7-0.2-2.7c0.1-1.2-0.5,0.7,0-0.4c0.2-0.5,0.5-1,0.7-1.5
	c-0.4,0.7-0.9,1.4-1.3,2c0.4-0.2,0.7-0.5,1.1-0.7c0.5-0.3,0.8-1.2,1.1-1.7c0.1-0.1,0.5-1.2,0.4-1.1c-2.1,1.4-3.5,4.2-3.8,6.7
	c-0.3,3.1,2.3,5.7,5.5,5.4C249.6,171.1,250,168.4,250.4,168.4"/>
<path class="st0" d="M197.6,126.2c0.7,10.3,3,20.6,6.4,30.3c1.3,3.7,3,7.3,4.9,10.7c0.9,1.7,2,3.2,3.2,4.7c0.1,0.1,1.9-0.7,2-0.7
	c4.3-1.6,8.6-3.2,12.9-4.8c0.6-0.2,1.7-2.3,1.6-2.8c-1-8.2-2-16.3-3.1-24.5c0.1,0.7-1.8,1.9-1.6,2.8c1,8.2,2.1,16.3,3.1,24.5
	c0.5-0.9,1.1-1.9,1.6-2.8c-4,1.5-8.1,3-12.1,4.5c-2.7,1-2.5,1.3-4.4-1.3c-2.2-3.2-3.9-6.8-5.4-10.4c-4.3-10.3-6.7-21.8-7.4-32.9
	C199.3,123.9,197.5,125.4,197.6,126.2"/>
<path class="st0" d="M226.3,166.3c0.8,3,1.7,5.5,4.1,7.4c2,1.5,6.5,1.3,8.9,1.6c2.2,0.3,4.5,0.4,6.4,1.4c2.3,1.2,4.1,2.1,6.6,2.6
	c0.5,0.1,1.6-2.9,1.6-2.8c-2.4-0.5-4.1-1.3-6.2-2.4c-2-1-3.9-1.2-6.1-1.5c-7.4-1.1-11.7-1-13.8-9.1
	C228.1,164,226.1,165.4,226.3,166.3"/>
<path class="st0" d="M230,176.4c2,0.2,4.1,0.5,6.1,0.7c2,0.2,2.4,1.5,3.5,2.9c0.5,0.6,1.7,1,2.4,1.4c1.4,0.8-0.5,0.3-0.9,0.3
	c-2.5,0.2-3.4-0.5-5.2-2.2c-1.4-1.3-5,1.8-6.4,2c-1.2,0.2-4.6,0.4-5.6-0.2c-2.1-1.4-2.6-3.2-4.1-4.9c-1.9-2.3-4.2-4.9-4.9-7.8
	c0.1,0.6-1.9,2-1.6,2.8c0.8,3.1,3.3,5.8,5.3,8.2c1.9,2.2,2.3,4.6,5.6,4.7c3.3,0,5.9,0.1,8.6-2.1c1.3-1,3.9,2.5,5.7,2.4
	c2.3-0.2,3-0.4,4.3-2.4c0.4-0.7,1.9-3.1,0.9-3.7c-0.8-0.5-2-0.9-2.6-1.7c-0.5-0.7-0.9-1.8-1.6-2.1c-2.4-0.9-5.1-0.9-7.7-1.2
	C231,173.4,230.2,176.4,230,176.4"/>
<path class="st0" d="M229.3,184.4h6.9c0.3,0,0.8-1.1,1-1.3c0-0.1,0.7-1.5,0.7-1.5H231c-0.3,0-0.8,1.1-1,1.3
	C230,183,229.3,184.4,229.3,184.4"/>
<path class="st0" d="M242.1,183.3c0.9,0,1.8,0,2.7,0c1.1,0,2.5-0.4,3.6,0c1.8,0.6,3.8,0.6,5.6,0.8c0.6,0.1,1.4-2.9,1.6-2.8
	c-1.7-0.2-3.6-0.1-5.2-0.7c-2-0.7-4.6-0.1-6.7-0.1C243,180.5,242.4,183.3,242.1,183.3"/>
<path class="st0" d="M99,58c-2.1-5.2-2.6-11.2-2.3-16.7c0.3-8.2,3.3-15.9,8.5-22.2c2-2.4,4.4-4.5,6.8-6.6c1.1-0.9,2.9-3.2,4.3-3.5
	c5.3-1.1,10.7-3.2,16.1-3.6c7.9-0.6,15.9-0.9,23.8-1.4c2.9-0.2,3.3-0.6,5.2,1.6c1.4,1.7,3.6,3,5.6,3.7c8.7,3.2,17.2,6.6,25.8,10
	c19.4,7.8,38.3,16.1,56.2,27c8.5,5.1,17.3,10.2,24.8,16.6c5.8,4.9,10.3,10.5,14.9,16.4c3.7,4.8,2,15.6,1.6,21.1
	c-0.3,3.4-1.7,6.6-2.8,9.8c-0.3,0.8-0.6,1.7-0.9,2.5c1.1-3.2,1-1.7,0-0.3c-1.9,2.7-4,5.4-6.6,7.5c-0.7,0.6-1.1,2.5-1.5,2.8
	c10.4-8.7,13.6-21.1,13.9-34c0-2.5-0.2-4.8-0.5-7.2c-0.4-3.7-2-5.5-4.2-8.4c-4-5.1-8.3-9.8-13.4-14c-7.3-5.9-15.6-10.8-23.6-15.6
	c-5.5-3.4-11.1-6.8-16.9-9.7c-21.1-10.4-43.1-19.1-65.1-27.3c-1.2-0.4-1.7-0.7-2.7-1.5c-0.7-0.6-4.2-4.1-4.6-4.1
	c-5.1,0.3-10.2,0.5-15.3,0.8c-4.6,0.3-9.3,0.4-14,0.9c-4.5,0.5-9.1,2.4-13.6,3.4c-1.7,0.4-3,2-4.3,3.1c-2.7,2.3-5.3,4.7-7.7,7.3
	c-4.2,4.7-7.3,10.6-9.4,16.5c-3,8.6-3,19.3,0.3,27.8C97.2,60.4,99.3,58.8,99,58"/>
<path class="st0" d="M150.5,25.1c9,18.1,20.6,36.8,24.5,56.9c0.6-0.9,1.1-1.9,1.6-2.8c-16.4,6.7-34.5,12.1-52.2,12.9
	c-9.1,0.4-20.5-0.8-25.1-9.9c-2-3.9-1.6-8.5-1.7-12.7c-0.1-5-0.1-10.1-0.2-15.1c0,0.4-1.7,1.8-1.7,2.7c0.1,8.4-1.4,18.6,1.3,26.6
	c3.4,10,15.7,11.4,24.7,11.3c18-0.3,36.6-6.2,53.2-12.9c0.5-0.2,1.8-2.3,1.6-2.8c-3.9-20.1-15.6-38.9-24.5-56.9
	C152.3,22.6,150.2,24.4,150.5,25.1"/>
<path class="st0" d="M157.8,21.5c1.9,6.9,4.4,13.5,7.3,19.9c1.2,2.5,1.4,5.7,2,8.4c1,4.9,2.2,9.9,2.3,14.9c0-0.4,1.7-1.8,1.7-2.7
	c-0.1-4.2-1.1-8.5-1.9-12.7c-0.6-3.2-0.8-7.2-2.2-10.2c-3.1-6.6-5.6-13.4-7.6-20.5C159.6,19.2,157.6,20.7,157.8,21.5"/>
<path class="st0" d="M172.1,13.7c1.5,4.2,4.1,8.1,6.7,11.6c7.2,10.1,16.5,18.6,26.5,25.8c0.3,0.2,0.6-0.2,0.3-0.4
	c-10-7.2-19.2-15.7-26.4-25.7c-2.5-3.5-5.1-7.4-6.6-11.5C172.5,13.2,172,13.4,172.1,13.7"/>
<path class="st0" d="M196.3,21.5c4.1,4.3,8.8,8.1,13.6,11.6c10.5,7.9,22.1,14.5,34.5,18.7c1.4,0.5,2.9,0.9,4.3,1.4
	c0.3,0.1,0.5-0.4,0.2-0.5c-13.2-3.9-25.5-10.4-36.6-18.5c-5.5-3.9-10.8-8.2-15.6-13c0,0,0,0-0.1-0.1
	C196.5,20.9,196.1,21.3,196.3,21.5"/>
<path class="st0" d="M179.3,95.3c7.1-0.2,14.2-1.3,21.1-2.7c6-1.3,12-3.1,17.6-5.6c2.8-1.2,5.5-2.7,8-4.4c0.3-0.2,0.5-1,0.6-1.3
	c1.8-5.3-6.5-2.4-8.5-1.7c-2.5,1-4.8,2.5-7.2,3.7c-4.9,2.4-10,4.5-15.3,5.8c-0.3,0.1-0.2,0.6,0.1,0.5c6.6-1.6,12.9-4.4,18.8-7.6
	c1.6-0.8,2.9-1.6,4.6-2.2c1.8-0.7,4.6-1.8,6.5-1c0.9,0.4,0.7,1.5,0.5,2.3c-0.4,1.2-0.9,1.4-2,2.1c-5.5,3.4-11.6,5.7-17.8,7.4
	c-8.7,2.4-18,4-27,4.2C179,94.8,179,95.3,179.3,95.3"/>
<path class="st0" d="M234.7,137.9c-5.2-1.8-10.3-3.9-15.3-6c-4.3-1.8-8.5-3.8-12.6-6c-3.3-1.8-6.7-3.7-9.4-6.4
	c-0.3-0.2-0.7,0.1-0.4,0.4c2.7,2.6,6,4.5,9.2,6.3c4,2.2,8.2,4.1,12.4,5.9c5.2,2.3,10.5,4.4,15.9,6.3
	C234.9,138.5,235.1,138,234.7,137.9"/>
<path class="st0" d="M96.5,81.8c1.3,7.6,2.5,15.2,3.4,22.8c0.3,2.9,0.7,5.5,1.4,8.4c0.7,2.7,0.4,5.3,0.8,8.1c0.6,4,3.3,5.2,5,8.5
	c1.1,2,2,3.8,3.5,5.5c6.3,7.7,13.5,16,22.3,20.8c0.2,0.1,1.8-2.7,1.6-2.8c-8.7-4.7-15.6-12.8-21.8-20.2c-1.5-1.8-2.5-3.5-3.7-5.5
	c-2-3.7-5-5.2-5.4-9.8c-0.4-5.6-1.6-10.9-2.2-16.5c-0.8-7.4-2.1-14.7-3.3-22C98.2,79.6,96.3,80.8,96.5,81.8"/>
<path class="st0" d="M104.2,90c4.6,14,10.3,28,17.6,40.9c2.2,3.9,4.6,7.7,7.4,11.2c2.1,2.7,4.6,5.3,7.7,6.8c0.3,0.2,0.5-0.4,0.2-0.5
	c-3.3-1.6-5.9-4.5-8.1-7.4c-3-3.8-5.4-8-7.7-12.2c-4.7-8.6-8.6-17.7-12.1-26.8c-1.6-4-3.1-8.1-4.4-12.2
	C104.6,89.4,104.1,89.6,104.2,90"/>
<path class="st0" d="M174.5,82.1c1.2,6.2,2.8,11.5,4.9,17.4c2.4,6.4,1.8,14.5,2.4,21.3c0.5,6.9,1.2,13.7,1.6,20.6
	c0.5,8.4,1.7,18.5-1.1,26.6c-1.7,5-3.7,12.9-8.3,15.7c-2,1.2-5,0.8-7.4,0.8c-7.9-0.1-15.8-0.3-23.7-0.4c-11.4-0.2-23.1,0.7-34.4-1.6
	c-7.7-1.6-11.5-4.9-14.8-11.6c-4.1-8.6-8.1-17.5-10.6-26.7c-0.9-3.4-0.6-6.4-0.9-9.8c-0.5-5.3,1.4-5,5.8-4.9c1.5,0,3,0.3,4.5,0.1
	c1.9-0.3,1.8,0.2,3.5,0.5c1.3,0.2,1.6-1.1,3.3-0.7c1.8,0.5,3.6,1,5.5,1.4c0.1,0,0.1-0.1,0.2-0.2c0.5-0.6,1-1.2,1.5-1.8
	c0.4-0.5,1.5-2.8,1.3-2.5c-2.2,2.6-5,0.7-8.1-0.1c-0.8-0.2-1.6,1.1-2.9,0.9c-1.1-0.2-1.4-0.5-3-0.3c-2.8,0.4-6.2-1.2-8.8-0.2
	c-2,0.8-2.9,2.8-3.8,4.7c-2.2,4.9-0.5,12.9,0.9,17.7c2.5,8.8,6.4,17.2,10.3,25.4c3.1,6.5,7.2,9.2,14.4,10.9
	c6.1,1.4,12.3,1.5,18.5,1.5c13.2,0,26.3,0.2,39.5,0.5c3.3,0.1,6.6,0.4,9.1-2c3.3-3.2,5.4-8.5,7.1-12.6c1.9-4.7,3.6-8.9,4-13.9
	c0.6-7.9,0.1-16-0.4-23.9c-0.6-9.7-1.6-19.3-2.3-29c-0.4-4.7-1.3-8.5-3-13c-1.7-4.5-2.5-8.9-3.4-13.5
	C176.3,79.9,174.4,81.2,174.5,82.1"/>
<path class="st0" d="M155.7,182.2c-7.5-2-15.1-4-22.7-5.6c-2.2-0.5-4.4-0.9-6.6-1.3c-0.8-0.1-1.8-0.1-2.5-0.5
	c-2.2-1.1-4.2-2.5-6.1-4.1c-8.5-7-13.2-17.2-13.9-28.1c0-0.4-0.6-0.3-0.5,0.1c0.7,10.6,5.2,20.5,13.1,27.6c2,1.8,4.3,3.4,6.7,4.7
	c0.4,0.2,0.8,0.5,1.2,0.5c1.9,0.2,3.8,0.6,5.8,0.9c8.5,1.7,17,3.9,25.4,6.2C155.8,182.8,156,182.3,155.7,182.2"/>
<path class="st0" d="M137.7,134.5c-4.1-4.9-9.2-14.3-3.4-19.7c-0.1-0.1-0.3-0.1-0.4-0.2c0.5,3.1,1.3,6.2,2.2,9.3
	c1.1,3.8,2.4,8.8,5.6,11.5c0.2,0.1,0.3,1,0.4,1.4c0.4,1.3,0.8,2.5,1.2,3.8c1.3,4.1,2.9,8.2,4.7,12.1c2,4.5,4.4,8.8,7.3,12.8
	c2.6,3.5,5.8,6.8,9.9,8.6c0.3,0.1,0.5-0.4,0.2-0.5c-4.4-1.9-7.7-5.6-10.4-9.4c-3-4.2-5.3-8.9-7.3-13.6c-1.6-3.8-3-7.7-4.3-11.6
	c-0.3-1-0.6-2.1-0.9-3.1c-0.2-0.8-0.6-1-1.2-1.7c-2.7-3.2-3.9-7.9-5-11.8c-0.7-2.6-1.3-5.2-1.8-7.9c0-0.2-0.3-0.3-0.4-0.2
	c-6.1,5.6-1,15.3,3.3,20.5C137.5,135.1,137.9,134.8,137.7,134.5"/>
<path class="st0" d="M102.9,128.3c-0.9,4.1-0.7,8.6-0.1,12.7c1.4,9.1,6,17.2,13.1,23c3.3,2.7,7,4.8,10.9,6.5
	c0.3,0.1,0.5-0.4,0.2-0.5c-10.3-4.5-18.6-12.2-22.2-22.9c-1.9-5.6-2.4-11.9-1.5-17.7c0-0.3,0.1-0.6,0.2-0.9
	C103.5,128,102.9,128,102.9,128.3"/>
<path class="st0" d="M109.7,131.8c-0.4,4.3,0.5,8.9,1.7,13c2.8,9.5,9.1,17.4,17.5,22.6c0.3,0.2,0.6-0.3,0.3-0.4
	c-8.4-5.2-14.6-13-17.4-22.5c-1.2-4-2-8.4-1.6-12.6C110.2,131.5,109.7,131.5,109.7,131.8"/>
<path class="st0" d="M84.3,126.6c-10.9-1.7-22.1-3.6-32-8.7c-6.5-3.3-16.6-12.2-24-6c-2.7,2.3-4.1,5.5-5.9,8.6
	c-3.3,5.6-6.9,10.4-10.9,15.4c-3.6,4.5-7.4,9.6-9.5,15c-1.7,4.3-2.8,11.4-0.5,15.6c-0.2-0.3,2-2.2,1.6-2.8c-3.6-6.4,0.3-15.8,4-21
	c2.7-3.9,6-7.3,8.8-11c3-4,5.4-8.5,7.9-12.8c0.6-1,1.1-2,1.7-2.9c0.6-1.1,1.2-1.1,0-0.1c1.4-1.2,3.2-2.9,5.2-2.9
	c4.5,0,6.6,0.7,10.8,2.7c4.1,2,8,4.7,12.1,6.7c8.7,4.4,19.4,5.7,29,7.1C83.2,129.6,84.1,126.6,84.3,126.6"/>
<path class="st0" d="M11,159.1c-1.6,2.6-2.2,5-2.5,8c0.4-0.8,0.9-1.6,1.3-2.4c-0.9,1.2-1.5,2-2.5,3.3c-0.5,0.6-0.9,1.2-1.4,1.8
	c0.2-0.2-0.6-0.3-0.9-0.4c-1.7-0.6-2.4-2.1-2.1-3.9c0.2-1.1,0.8-2.2,1.1-3.2c0.2-0.6-0.2-1.4-0.3-2c0.1,0.6-1.8,1.9-1.6,2.9
	c0.3,1.4,0.3,1.9-0.3,3.2c-0.5,1.3-0.9,2.6-0.5,4c0.2,0.7,2.5,3,3.3,2c1.3-1.7,2.6-3.4,3.9-5.2c0.6-0.7,1.5-1.8,1.6-2.7
	c0.1-1.2,0.1-3.3,0.7-4.3C11.3,159.1,12.2,157.2,11,159.1"/>
<path class="st0" d="M20.2,168.4c-0.6,1.9-1.2,3.9-1.2,6c0,0.9,0.3,1.8,0.3,2.7c0.1,1-0.4,2.8-0.1,3.7c0.3,0.9,0.6,1.8,0.9,2.6
	c0.1,0.4,0.3,0.9,0.4,1.3c-0.7-2.1,2.2-2-0.1-1.4c-1.5,0.4-3.4-0.6-4.7-1.2c-0.4-0.2-0.7-2.2-0.8-2.7c0.2,0.5-1.9,2-1.6,2.8
	c0.5,1.5,0.4,2.5,1.9,3.2c1.4,0.7,3,1,4.5,0.4c1.2-0.5,2.1-2.5,2.5-3.7c0.2-0.7-0.6-2.2-0.8-2.9c-0.5-1.7-0.2-3.3-0.3-5
	c-0.1-3-0.2-5.4,0.8-8.3C21.8,165.7,20.4,167.8,20.2,168.4"/>
<path class="st0" d="M4.4,172.4c-0.3,1.2-0.2,2.6,0.1,3.8c0.3,1.2,1.1,2.1,1.9,2.9c0.2,0.2,0.2,1.1,0.3,1.3c0.5,1.7,1.6,3.1,3.5,3
	c0.6,0,1.5-0.4,2.1-0.6c0.6-0.2,0.6-0.6,1,0.1c-0.2-0.3,2-2.2,1.6-2.8c-0.1-0.2-0.2-0.4-0.3-0.6c0,0,0,0-0.1,0c-2.6,1.8-5.2,1-6.1-2
	c-0.1-0.4-0.2-0.8-0.3-1.2c0,0-0.9-1-0.9-1c-0.4-0.4-0.6-1-0.9-1.5c-0.5-1.2-0.6-2.8-0.2-4.1C5.9,170.2,4.7,171.5,4.4,172.4"/>
<path class="st0" d="M89,160c-8.9-4.8-18.1-9.5-27.7-12.7c-7-2.3-15.5-1.4-20.8,3.7c-2.7,2.6-5.3,4.9-8.3,7.2c-2.9,2.2-6,4-8,7.1
	c-2.4,3.9-1.5,6.8-1.1,11.1c0.1,1.1-0.3,3.3,0.4,4.1c0.8,0.9,1.6,1.8,2.4,2.7c1-1.2,0.6-1.3-1.1-0.4c-0.8-0.1-1.7-0.3-2.5-0.4
	c-0.6-0.1-1.5,2.9-1.6,2.8c3.9,0.8,5.6-0.9,7-4.4c0-0.1,0.1-0.2,0-0.2c-1.3-1.4-2.7-2.5-2.8-4.5c-0.1-1.7-0.3-3.4-0.4-5.1
	c-0.1-1.8-1.2-3.8,0.1-5.4c0.9-1.1,2.5-1.9,3.6-2.7c2.5-1.8,5-3.6,7.3-5.7c2.7-2.5,5-5.3,8.4-6.8c6.8-2.9,14.6-0.8,21,1.7
	c7.7,3,15.2,6.8,22.5,10.8C87.6,163,89.2,160.1,89,160"/>
<path class="st0" d="M54,122.8c-5-0.9-11.3-3.3-16.1-1.3c-0.9,0.4-1,2.6-1.6,2.8c4.8-2,11.2,0.4,16.1,1.3
	C52.9,125.7,53.9,122.8,54,122.8"/>
<path class="st0" d="M268.9,163.5c0.9-0.6,2.5-1.2,3.7-1.5c3.7-1.1,7.6-1.3,11.5-1c6.8,0.4,13.4,2.4,19.7,4.9
	c1.3,0.5,3.1,0.9,4.1,1.9c0.7,0.7,1.5,1.5,2.2,2.2c0.2,0.2,0.5,0.5,0.7,0.7c0,0,0.1-0.4-0.1-0.1c-0.4,0.7-0.9,1.4-1.3,2.1
	c-1,1.6-2,3.2-3,4.8c-0.2,0.3,0.3,0.6,0.5,0.3c1.5-2.4,3-4.8,4.4-7.1c0.1-0.1,0.1-0.2,0-0.3c-1.1-1.1-2.1-2.1-3.2-3.2
	c-0.3-0.3-0.8-0.4-1.2-0.6c-1-0.4-1.9-0.8-2.9-1.2c-1.8-0.7-3.6-1.4-5.4-2c-5.5-1.8-11.2-3-17-3c-4.2,0-9.4,0.4-13,2.8
	C268.3,163.2,268.6,163.6,268.9,163.5"/>
</svg>
