<?xml version="1.0" encoding="utf-8"?>
<!-- Generator: Adobe Illustrator 19.0.1, SVG Export Plug-In . SVG Version: 6.00 Build 0)  -->
<svg version="1.1" id="Слой_1" xmlns="http://www.w3.org/2000/svg" xmlns:xlink="http://www.w3.org/1999/xlink" x="0px" y="0px"
	 viewBox="0 0 175 497" style="enable-background:new 0 0 175 497;" xml:space="preserve">
<style type="text/css">
	.st0{clip-path:url(#SVGID_2_);fill:#616C90;}
</style>
<g>
	<defs>
		<rect id="SVGID_1_" width="176.2" height="497"/>
	</defs>
	<clipPath id="SVGID_2_">
		<use xlink:href="#SVGID_1_"  style="overflow:visible;"/>
	</clipPath>
	<path class="st0" d="M68.8,37c-4.3-7.6-10,5.3-9.3,9.2c0.6,3.4,1.7,7.1,3.6,10c1,1.6,2.7,2.6,4.4,2c2.8-1,2-1.3,1.4,1.7
		c-1.1,5.1-2.2,10.5-2,15.8c0.1,2.3,0.4,5.9,2.5,7.2c6.7,4.1,13.4,8.2,20.1,12.3c0.2,0.1,1.9-2.7,1.6-2.8
		c-6.8-4.2-13.6-8.3-20.4-12.5c-2.7-1.7-2.3-8.4-2.1-11C69,64,70.1,59,71.2,54.3c0,0,0-0.1,0-0.1c-2.2,0.8-2.9,2-5.1,0.7
		c-1.5-0.9-2.4-3.1-3-4.7c-0.9-2.8-2-5.3-2-8.4c-0.1-4.8,4.1-5.5,6.1-2C67,39.6,69.2,37.7,68.8,37"/>
	<path class="st0" d="M51.2,78.8c3.1-5.1,5.7-10.6,7.4-16.4c1.8-6.2,0.5-12.3,0-18.5c-0.8-11.8,1-28.6,12-35.1
		c14.8-8.7,35.9-0.1,42.6,15.4c3,6.8,1.1,14.3,1.4,21.4c0.1,1.2-2.1,2.9-2.8,4c-1.1,1.8-0.8,2.9-0.6,5c0.6-0.9,1.1-1.8,1.6-2.8
		c-0.3-0.4-0.6-0.8-0.8-1.3c0-0.1-0.4,0.4-0.3,0.4c-1.1,1.5-1.6,2.6-1.8,4.4c-0.2,2.1-0.5,4.1-0.7,6.2c-0.1,0.4,0.2,0.8,0.4,1.2
		c0.9,2.1-0.2,2.2,1.3,0.6c-4.5,4.5-8,11.7-8,18.3c0-0.4,1.7-1.8,1.7-2.7c0-7.9,6.2-14.5,6.7-15.7c1-2.3-0.6-3.5-0.3-5.9
		c0.2-1.8,0.4-3.6,0.6-5.4c0.1-0.7-1.3,1.2-0.4,2.6c-0.1-0.1,1.7-2.2,1.6-2.8c-0.2-2.1,0.6-3.9-1.4-1.1c0.9-1.2,1.9-2.2,2.8-3.4
		c1.2-1.7,2-3.4,2-5.5c-0.3-7.1,0.9-13.6-1.4-20.6c-2.2-6.8-9.9-12.1-15.8-15.7c-8.3-5.1-18.7-4.3-27,0.4c-5.3,3-8.8,8.5-11.3,13.9
		c-1.3,2.7-2.1,5.8-2.5,8.7c-0.3,2-1.1,3.8-1.3,5.8c-0.5,5.3-0.3,11.4,0.3,16.6c1.3,9.8-0.8,18.3-6.1,26.9
		C50.8,78.7,50,80.7,51.2,78.8"/>
	<path class="st0" d="M49.2,78.3c4.4,3.7,9.3,6.8,14.3,9.4c7.2,3.8,14.2,4.7,22.1,5.2c0.7,0,1.4-2.8,1.6-2.8
		c-8-0.5-14.8-1.5-22.1-5.2c-5.1-2.5-10-5.8-14.3-9.4C50.7,75.4,48.8,78,49.2,78.3"/>
	<path class="st0" d="M53.3,74.6c-2.4-0.7-3.9,0.9-5,2.9c-0.2,0.4-0.4,0.8-0.6,1.1c-1.2,2.6,1.6-1.2-0.6-0.2
		c-1.3,0.6-2.5,1.4-3.7,2.1c-3.6,2-7.3,4.8-11.2,6.1C28,88,24,90.3,20.5,93.2c-4.6,3.8-8.9,9.6-11.4,15c-1.9,4.1-2.6,7.6-2.7,11.9
		c-0.1,3.4-1.8,6.8-2.8,10.1c-3,10.1-3.7,19.5-2.5,29.8c1,8.4,2.2,16.7,6.3,24.1c1.8,3.3,4.4,4.8,7.4,6.8c2.4,1.6,4.5-0.3,6.5-1.3
		c4.2-2.2,8.5-3.4,12.8-5.4c18.5-8.5,32.6-25.2,44.8-41.1c2.6-3.4,5.2-6.8,7.8-10.2c0.6-0.8,3.3-1.4,4.2-1.8c2.1-0.9,4-1.4,6-2.7
		c3-2,5.4-5.1,7.3-8.2c0.7-1.2,1.6-2.7,1.9-4c0.2-0.8,0.5-1.6,0.6-2.5c0.4-2.9-0.9,0.6-0.4,0.2c0.7-0.6,1.1-2.5,1.5-2.8
		c-1.2,0.9-1.9,2.2-2.4,3.6c-1.2,3.3-1.9,6-4.5,8.6c-3,3-6.6,4.2-10.4,5.8c-2.5,1-3.1,1.9-4.7,4c-3.8,5-7.6,11.1-12,15.3
		c-5.3,5-9.2,11.5-14.6,16.4c-8.1,7.3-17.3,14.5-27.6,18.2c-4.1,1.5-7.7,2.9-11.5,5.2c-2.3,1.4-5.1-1.2-6.9-2.3
		c-3.5-2.3-5.3-6.4-6.9-10.2c-3.3-8.3-3.8-18-4.5-26.8c-0.8-8.8,2.1-19,5.2-27.1c1.2-3.2,0.5-6.6,1.2-9.9c1.3-5.9,6.2-11.9,10.7-16
		c3.4-3.1,7.8-5.2,12.1-6.7c3.4-1.1,6.7-3.6,9.8-5.4c1.6-0.9,5.3-2.2,6.3-3.7c0.4-0.6,0.8-1.3,1.2-2c0.8-1.6,1.4-1.2,3.2-0.7
		C52.2,77.6,53.3,74.6,53.3,74.6"/>
	<path class="st0" d="M101,107.3c0.2,1.6,0.3,3.1,0.5,4.7c0.2,2,1.8,3.5,1.9,5.6c0-0.4,1.7-1.8,1.6-2.7c-0.1-1.3-0.5-2.5-1.1-3.6
		c-0.3-0.6-0.8-1.2-0.8-1.8c-0.2-1.6-0.4-3.3-0.5-4.9C102.7,105,100.9,106.5,101,107.3"/>
	<path class="st0" d="M101.7,112.4c0.4,0.3,0.7,0.6,1.1,1c0.5,0.5,1.1,1,1.3,1.6c0,0.1,0.4-0.4,0.3-0.4c0.2-0.3,0.4-0.6,0.6-1
		c0.2-0.3,0.4-0.7,0.5-1c0-0.1,0.2-0.3,0.1-0.5c-0.2-0.6-0.8-1.2-1.3-1.6c-0.3-0.3-0.7-0.7-1.1-1c-0.1-0.1-0.9,1.3-1,1.3
		C102.3,111,101.5,112.3,101.7,112.4"/>
	<path class="st0" d="M102.9,107.1c-0.3,0.9-1.4,1.9-0.3,0.9c0.4-0.4,0.8-0.7,1.3-1c0.8-0.6,1.8-0.9,2.7-1.4
		c1.1-0.6,1.9-1.2,3.2-1.2c1.3,0,2.9,1.7,3,3c0,0.5,0,0.4,0.3-0.1c-0.2,0.4-0.6,0.7-0.9,1.1c-1.1,1.3-2.6,2.2-4.2,2.8
		c-0.9,0.3-1,2.6-1.6,2.8c3.3-1.2,5.4-3.8,7.1-6.7c1.2-2,1.2-2.8,0-4.7c-1.6-2.7-5,0.1-6.8,0.9c-2.4,1.1-4.4,3.4-5.3,5.9
		c-0.2,0.6,0.4-0.3,0.5-0.4C102.3,108.4,102.7,107.8,102.9,107.1"/>
	<path class="st0" d="M99.9,84.1c1.2-0.8,2.3-1.6,3.5-2.4c0.5-0.3,0.8-1.2,1.1-1.7c0.1-0.1,0.5-1.2,0.4-1.1
		c-1.2,0.8-2.3,1.6-3.5,2.4c-0.5,0.3-0.8,1.2-1.1,1.7C100.3,83.1,99.8,84.2,99.9,84.1"/>
	<path class="st0" d="M102.9,81.9c1.4-0.9,6.7-5.6,8.4-4.3c2.8,2.2-3,4.6-4.3,5.4c-0.7,0.4-1.3,1.7-1.7,2.4c-1.2,1.6-2.7,3-3.8,4.7
		c-1.8,2.7-0.9,5.6-1.9,8.5c-0.1,0.3,1.3-1.7,1.6-2.4c0.8-2.1,0.9-4.5,0.9-6.8c-0.5,0.9-1.1,1.8-1.6,2.7c1.9-1.9,3.8-5.6,5.6-6.7
		c2.6-1.6,5-2.8,6.5-5.5c0.6-1,2.3-5.9-0.3-5.5c-2.7,0.4-5.5,3.1-7.8,4.6C103.7,79.7,103.3,81.7,102.9,81.9"/>
	<path class="st0" d="M112.1,79.7c2-0.7,4-1.5,6-2.2c0.1,0,0.7,0.8,0.7,0.8c0.1,0.2,0.2,0.4,0.3,0.6c-0.1,1.6,0.2,1.8,0.9,0.6
		c-2,1.1-4.1,2.1-6.2,3c-0.7,0.3-1.4,1.1-2.1,1.6c-1.4,1.1-4.2,1.7-5.2,3c-1.5,2.1-1.6,4.8-3.4,6.8c-0.4,0.5-1.5,2.7-1.3,2.5
		c2.4-2.6,4.2-6.1,5-9.6c-0.5,0.9-1.1,1.8-1.6,2.8c3.2-1.4,5.7-3.7,8.8-5.1c2.9-1.3,4.5-1.9,6-4.5c1-1.7,1.4-3.7-0.3-5.2
		c-0.4-0.4-5.3,1.9-6,2.2C112.8,77.2,112.7,79.4,112.1,79.7"/>
	<path class="st0" d="M117,80.8c-2.6,3.2-6.3,5.6-8.3,9.3c-1.3,2.4-3.3,4.3-4.6,6.7c-1.8,3.3,0,5.9-3.1,9.6
		c-0.4,0.5-1.5,2.7-1.3,2.5c3.2-3.8,5.8-8.6,5.6-13.7c-0.5,0.9-1.1,1.8-1.6,2.7c2.6-2.5,4.7-5.7,6.1-9.1c-1.4,3.6-1.2,2.1,0.3,0.6
		c0.7-0.7,1.4-1.5,2.1-2.2c1.2-1.3,2.5-2.4,3.6-3.8C116.2,82.8,117.2,80.6,117,80.8"/>
	<path class="st0" d="M25.6,148c7.8-2.2,15.9-3.4,23.2-6.9c5.2-2.5,10.1-6.4,14.9-9.6c5-3.3,10-6.6,14.1-10.8
		c4.1-4.1,6.4-8.5,9.1-13.7c1.3-2.5,2.8-5,3.8-7.6c0.8-2.2,0-4.9,0.6-7.2c-1,1.6-1.2,1.9-0.5,0.9c0.6-0.8,1.1-1.7,1.7-2.5
		c0.6-0.9,1.1-1.7,1.7-2.6c1.1-1.7,3.3-7.5,5.2-4.6c1.8,2.7-1.4,5.6-2.2,8.1c-1.1,3.5-2.3,5.1-1.1,8.4c1.3,3.5,0.2,8,0.6,11.5
		c0.4,3.9,0.6,10.3-2.4,13.3c-0.7,0.7-1.1,2.4-1.5,2.8c4.6-4.6,5.9-11,5.7-17.4c-0.1-3.3,0.3-6.3-0.4-9.7c-0.4-1.9-0.3-3.4-1.2-5.3
		c-0.4-0.9,1.1-3.6,1.4-4.5c0.7-2.2,2.2-3.9,3.1-6.8c0.4-1.3-0.7-5.9-2.6-3.7c-3.1,3.8-6.2,8.9-8.5,13.2c-1.1,2.1-0.9,4.7-1,6.9
		c-0.2,3.8-3.1,7.6-4.9,10.9c-3.3,6.1-8.9,10.8-14.6,14.6c-6.1,4-12.2,8-18.3,11.9c-6.9,4.5-16.4,5.3-24.3,7.5
		C26.4,145.4,26.1,147.8,25.6,148"/>
	<path class="st0" d="M18,144.1c6.5-0.7,13.9-1.6,20.2,0.1c0.5,0.1,1.6-2.8,1.6-2.8c-6.4-1.7-13.7-0.8-20.2-0.1
		C18.8,141.4,18.4,144.1,18,144.1"/>
	<path class="st0" d="M14.4,138.8c8.2,0.4,18.2,1.3,25.5,5.1c0.3,0.1,1.8-2.7,1.6-2.8c-7.3-3.8-17.4-4.7-25.5-5.1
		C15.3,136,14.6,138.8,14.4,138.8"/>
	<path class="st0" d="M44.6,140.3c-1.1-4-3.9-5.1-7.5-6.3c-4.8-1.6-10.1-3.5-14-6.9c0,0-2,2.5-1.6,2.8c3.8,3.4,9.2,5.2,14,6.9
		c3.6,1.2,6.3,2.2,7.5,6.3C42.8,142.6,44.8,141.2,44.6,140.3"/>
	<path class="st0" d="M34.6,108c1.7,4.9,3.3,9.7,4.8,14.7c1.9,6.2,5.1,13.6,4.7,20.2c0-0.5,1.6-1.8,1.7-2.7
		c0.3-6.3-2.6-13.3-4.4-19.2c-1.6-5.3-3.3-10.5-5.2-15.8C36.4,105.6,34.3,107.2,34.6,108"/>
	<path class="st0" d="M74,123.8c-0.5,3.6-0.8,7.4-0.3,11c0.3,2,0.7,4.3,2.3,5.6c2,1.6,4.8-0.4,6.4-1.6c0.7-0.6,1.1-2.5,1.5-2.8
		c-1.7,1.3-4.1,2.9-6.3,1.5c-1.8-1.2-2.1-4.1-2.4-6c-0.4-3.5-0.2-7.1,0.3-10.5C75.6,121.6,74.1,122.8,74,123.8"/>
	<path class="st0" d="M105.8,95.6c9.2,3.8,10.6,15.5,13.3,23.9c0.7,2.1,1.4,4.2,2,6.3c0.4,1.1,1.6,1.7,1.7,2.8c0.3,4,1.7,8,2.6,11.9
		c-0.1-0.6,1.8-1.9,1.6-2.8c-0.9-3.9-2.2-8-2.6-12.1c-0.1-0.9-1.3-1.3-1.6-2.3c-0.7-2.2-1.4-4.4-2.1-6.6
		c-2.7-8.4-4.1-20.1-13.3-23.9C107.1,92.7,105.7,95.6,105.8,95.6"/>
	<path class="st0" d="M122.8,128.8c2.2,1.9,4.3,3.9,6.6,5.8c1,0.8,1.4,2.7,1.7,3.8c0.5,1.9,1.4,1.7,3.1,1.7c0.7,0,1.4-2.8,1.6-2.8
		c-0.7,0-1.4-0.1-2.2-0.1c-0.3,0-0.7-1.2-0.9-1.5c-0.3-0.5-0.2-1.2-0.5-1.8c-0.4-0.7-0.8-1.4-1.2-2.1c-0.4-0.8-2.3-2-3-2.6
		c-1.2-1.1-2.5-2.2-3.7-3.3C124.4,126,122.4,128.5,122.8,128.8"/>
	<path class="st0" d="M153,143.3c-2.9,4-10.1,4.2-13,0.4c-2.3-2.9-2.7-7.6-2.7-11.2c0,0.3-1.5,2-1.7,2.7c-1,3.7-2.5,5.2-5.2,7.7
		c-1.8,1.6-3.1,3.9-4.2,6c-2.5,4.4-3.9,9.6-4.5,14.5c0.1-0.5,1.5-1.8,1.6-2.7c0.2-1.5,0.5-3,0.8-4.5c0.4-2,1-3.9,1.7-5.7
		c2.2-6,3-4.1,6.4-6.9c2.9-2.4,4.1-7.6,5-11c-0.6,0.9-1.1,1.8-1.7,2.7c0,4.1,0.7,8.7,3.2,12c3.1,4.1,10.7,1.7,13.2-1.8
		C152.3,145.1,153.8,142.2,153,143.3"/>
	<path class="st0" d="M121,156.1c0.7-3.4,2.2-7,5.7-8.2c0.4-0.1,0.8-1,1-1.3c0.1-0.1,0.6-1.5,0.7-1.5c-5,1.8-8,8.9-9,13.8
		C119.5,158.3,120.8,157,121,156.1"/>
	<path class="st0" d="M116.5,171.7c3.6,1.8,7.3,3.6,10.9,5.5c3.3,1.7,6.2,0.4,9.2-1.3c0.8-0.4,1.1-2.6,1.5-2.8
		c-3,1.8-5.8,2.9-9.1,1.3c-3.6-1.8-7.3-3.6-10.9-5.5C117.9,168.7,116.3,171.6,116.5,171.7"/>
	<path class="st0" d="M135.6,176.3c4.1-3.1,6.6-5.4,9-9.8c3.7-6.7,8.8-15.1,8.4-23c0,0.4-1.7,1.8-1.7,2.7c0.3,7-3.8,14.1-7,20.1
		c-0.5,1-1.1,2-1.7,2.9c-0.8,1.3,1.1-1.1-0.5,0.3c-1.6,1.4-3.4,2.7-5.1,4C136.4,174.1,136,176,135.6,176.3"/>
	<path class="st0" d="M119,155.1c0.8-1.2,1.7-2.3,2.6-3.4c1.5-1.7,3.4-4,5.7-4.6c0.4-0.1,0.8-1,1-1.3c0.1-0.1,0.6-1.5,0.7-1.5
		c-2.3,0.6-4,2.6-5.6,4.3c-1.2,1.4-2.4,2.9-3.5,4.4c-0.4,0.6-0.8,1.3-1.2,2C118.6,155.5,118.7,155.6,119,155.1"/>
	<path class="st0" d="M137.4,134.7c0.3-1.1,0.7-2.2,1-3.3c-0.9,3-0.6,1.2,0.3,0c0.4-0.6,1.6-2,1.5-2.8c-0.3-2.7-2.7-5.7-2-8.3
		c0.6-2.1-1.4-4.6-1.1-6.8c-0.5,0.9-1,1.8-1.6,2.7c1.5-1.3,3.2-2.3,4.8-3.5c0.7-0.5,1.4-0.4,1.8,0.3c1,1.9,0.9,3.8-1.1,5.3
		c-0.7,0.6-1.1,2.5-1.5,2.8c2.4-1.8,5.3-5.3,4.8-8.6c-0.7-5.2-4-1.6-6.8,0.3c-1.4,0.9-2.8,3.4-2.3,5.1c0.6,2,0.6,4.1,1,5.9
		c0.6,2.6,1.9,4.8,2.2,7.5c0.4-0.8,0.9-1.6,1.3-2.5c-2,2.7-3,4.8-4.1,8.1C135.7,137.4,137.2,135.4,137.4,134.7"/>
	<path class="st0" d="M141.9,120.5c0.5-0.7,0.9-1.5,1.3-2.3c0.4-0.7,0.7-1.6,0.7-2.4c0-0.2-0.2,0-0.2,0.1c-0.2,0.3-0.4,0.5-0.6,0.8
		c-0.2,0.4-0.4,0.7-0.6,1.1c-0.1,0.2-0.3,0.5-0.3,0.7c0,0.5-0.1,0.9-0.3,1.4c-0.1,0.1-0.1,0.2,0,0.1c-0.2,0.4,0.1-0.3,0,0.1
		c0.2-0.4,0.1-0.2,0.1-0.1c0.3-0.5,0.2-0.4,0.2-0.3c-0.3,0.5-0.8,1.2-0.9,1.8c0,0.2,0.2-0.1,0.2-0.1
		C141.5,121.1,141.7,120.8,141.9,120.5"/>
	<path class="st0" d="M140.9,134.6c6.9,2.3,11.2-4.9,12.1-10.7c-0.1,0.5-1.5,1.8-1.7,2.7c-0.3,1.8-0.6,3.3-2.1,4.4
		c-1,0.7-2.2,1-3.3,1.1c-1.1,0.1-2.3,0-3.4-0.4C142.2,131.6,140.9,134.6,140.9,134.6"/>
	<path class="st0" d="M143.1,110.5c2-4.1,3.3-8.1,4-12.7c0.4-2.6,0.5-4.8,1.5-7.2c0.6-1.3,1.1-2.7,1.7-4c0.1-0.3,1.5-3.3,0.7-2
		c1.1-1.9-0.7,0.9,0.4-0.4c0.8-1,1.9-1.1,3.1-0.8c2.7,0.6,0.3,5.3-0.3,6.8c-0.6,1.6-1.2,3.2-1.8,4.8c-1.1,3-0.8,6.3-2,9.4
		c-0.1,0.3,1.3-1.7,1.6-2.4c1.1-3.1,0.9-6.3,2-9.4c0.9-2.5,1.9-5.1,2.8-7.6c1.6-4.2-1.9-6.2-4.7-2.7c-7,8.4-5.5,20.3-10.1,29.5
		C141.1,113.6,142.9,110.9,143.1,110.5"/>
	<path class="st0" d="M157.2,102c0.4-0.8,0.7-1.6,1-2.4c0.3-0.7,1.4-4,1.1-3.6c1.2-2.2,2.4-4.4,3.3-6.7c0.4-1,0.3-0.8-0.4,0.5
		c0.3-0.5,0.6-1,0.9-1.5c0.7-1.3,1.4-2.5,2-3.9c0.7-1.5,3.1-5.4,0.4-6c-4.1-0.9-6.6,6.1-8.2,8.8c-2.5,4.1-5,8-5.7,12.9
		c0.1-0.5,1.5-1.8,1.7-2.7c0.8-5.5,2-6.2,4.3-9.9c1.4-2.4,3.4-8.1,7.1-5.9c1.4,0.8-3.9,10.7-5,12.8c-1.6,3.1-2.5,6.3-3.9,9.4
		C155.3,105.1,157,102.4,157.2,102"/>
	<path class="st0" d="M162.3,104c0.4-0.8,0.7-1.6,1-2.5c0.3-0.7,0.5-1.5,0.7-2.2c0,0.1,1-3.3,0-1.7c1.2-2,2.5-4.2,3.1-6.4
		c0.8-2.6,6.1-10.5-0.4-9.9c-0.8,0.1-1.2,2.8-1.6,2.8c5.7-0.5,2,5.8,0.8,8.5c-0.9,2-1.9,4-2.8,6c-1,2.2-1.2,4.9-2.2,7.2
		C160.4,107.1,162.1,104.4,162.3,104"/>
	<path class="st0" d="M167.9,108.8c0.3-2,0.4-3.3,1.2-5c0,0,0.8-1.6,0.3-0.6c0.3-0.5,0.6-1,0.9-1.6c0.3-0.5,0.5-1,0.8-1.5
		c0.6-1.3-1.2,1.8-0.5,0.8c1-1.5,5.7-7.1,3.9-9.1c-2.7-3.1-6.4,3.3-7.6,5.2c-0.3,0.4-0.6,0.9-0.8,1.3c-0.8,1.4,1.3-1.4,0.2-0.4
		c-0.7,0.6-1.4,1.3-1.9,2.1c-0.6,0.9-1.2,1.9-1.7,2.9c-0.3,0.5-0.3,1.7-0.5,1.9c-0.5,0.9-1.4,2.9-0.2,0.9c0.7-1.2,1.3-2.3,1.7-3.7
		c0.3-1.1,2-2.3,2.6-3.4c1-1.7,2.6-3.3,4-4.8c0.9-1,2.8,0.7,2.8,1.6c0.1,1.5-1.2,2.9-2.1,4.1c-0.9,1.3-1.5,2.8-2.3,4.2
		c-1.4,2.6-1.9,4.8-2.4,7.6C166.3,111,167.8,109.8,167.9,108.8"/>
	<path class="st0" d="M159.7,106.1c13.7,4.3,4.8,20.4-2.9,26c-3.9,2.8-4,9.1-5,13.5c0.1-0.5,1.4-1.8,1.6-2.7
		c0.4-1.9,0.9-3.8,1.3-5.6c0.2-1,0.5-2.1,0.7-3.1c0.5-2.2-1.9,2.2-0.7,1c3.1-3.1,6.3-5.8,8.6-9.6c4.5-7.2,9.8-18.6-2-22.3
		C160.9,103.2,159.7,106.1,159.7,106.1"/>
	<path class="st0" d="M112.8,112.9c3.3,8.5,4.6,17.8,5,26.8c0.4,9.2-1.9,18.2-1.3,27.4c0.9,13.4-0.7,27.4-1.3,40.8
		c-0.3,8.3-0.7,16.5-1.2,24.8c-0.4,5.7,0.7,11.4,1.3,17.2c0.3,2.3,0,4.4,0.5,6.9c0.6,2.8,1.4,5.4,1.3,8.3
		c-0.3,6.4-0.1,12.8-0.6,19.2c-0.4,5.6-0.5,12.7-5,16.7c-2.9,2.7-6.5,3.2-10,4.4c-6,2-12,4-18,6c-2.7,0.9-5.6,3.4-8.1,4.8
		c-6.5,3.6-13.3,6.8-20.3,9.3c-12.9,4.5-30.4,6.7-35.7-9.2c-2.8-8.3,0.6-15.4,0.8-23.8c0.1-5.4,0.8-10.7,0.3-16.2
		c-0.3-3.4-0.8-6.8-1.1-10.2c-0.3-3.3-0.6-6.6-1.1-9.9c-0.7-4.1,0.2-8.1,0.9-12.2c0.3-1.9,1.6-3.6,1.7-5.6c0.1-2.5,0.1-4.9,0.2-7.4
		c0.2-8.6,0.5-17.1,0.7-25.7c0.1-4.7,1.5-13-1.9-16.9c0.1,0.1-2,2.4-1.6,2.8c3.9,4.4,2,14.6,1.9,19.9c-0.2,8.6-0.4,17.2-0.7,25.8
		c-0.1,5-1.7,9.3-2.5,14.2c-1.1,7.1,0.6,14.6,1.4,21.7c1,9,1.2,18-0.1,27.1c-1.2,8.2-2.7,14.7,1.1,22.5c6.9,14.3,26.5,8.9,37.9,4.5
		c6.2-2.4,12.3-5.4,18.1-8.7c2.6-1.4,5.1-3.5,7.8-4.5c11.2-3.7,27.5-5.7,32.6-17.9c3.2-7.6,2.9-17.2,3-25.3
		c0.1-4.8,0.7-9.6-0.6-14.2c-1.5-5.6-1.3-11.5-1.9-17.2c-0.7-6-0.2-11.5,0.1-17.5c0.9-18.3,1.5-36.7,2.1-55c0.1-2.4-0.3-4.9-0.3-7.3
		c0-5.6,1.3-11.2,1.5-16.9c0.4-10.7-1.1-22.5-5.1-32.5C114.6,110.5,112.5,112.1,112.8,112.9"/>
	<path class="st0" d="M18.3,190.5c4.7,13.9,8.2,29,8.1,43.7c0,3.1-1.6,7.3-1.1,10.3c0.4,2.5,0.9,4.9,0.9,7.5
		c-0.1,5.5-0.4,10.7-1.2,16.1c0.1-0.5,1.5-1.8,1.7-2.7c0.7-5.2,1-10,1.1-15.3c0-2.2-0.2-4-0.5-6.2c-0.7-4.1,0.7-8.3,0.8-12.4
		c0.3-14.6-3.5-30-8.2-43.8C20,188.2,18,189.7,18.3,190.5"/>
	<path class="st0" d="M89.5,311.4c-1.6,7.7-3.4,15.4-5.6,23c-1.2,4.1-2.8,8-4.1,12c-0.6,2.1-0.4,4.7-0.8,6.9
		c-3.1,14.8-6.4,29.6-7.6,44.7c-0.5,6.5-1,13-1.9,19.4c-0.7,5.1-1.5,10.2-3.2,15.1c-0.5,1.4-8.5,2.7-10.9,3
		c-8.7,0.7-15.3-5.1-23.5-6.7c-3.9-0.8-7.8-1.9-11.5-3.6c-4.3-1.9-5.6-4.3-6.9-8.5c-2.3-7.7-2.2-16.4-2.1-24.3
		c0-4.5,1.1-8.7,1.4-13.1c0.2-3.9,0.2-8,1.1-11.8c1.8-7.2,0.4-14.4,0.1-21.7c-0.2-5.7-0.2-11.5,0.1-17.2c0.3-5.4,0.6-11.9,3.2-16.8
		c1.1-2-0.2-0.3-0.7,0.6c-3.6,6.8-4,15-4.3,22.6c-0.3,8.9,0.1,17.9,0.8,26.7c0.4,5.2-1.4,10-1.7,15.3c-0.4,8.7-1.9,17-1.6,25.8
		c0.2,5.6,0.4,11.4,2,16.8c1.2,3.9,2.2,5.9,5.9,8c3.8,2.1,8.3,3.2,12.5,4.1c8.3,1.7,14.7,7,23.5,6.7c6-0.2,11.2-1.5,13.7-7
		c4.3-9.9,4.7-22.2,5.4-32.9c0.6-10.3,2.4-20.4,4.4-30.5c1-5.3,2.1-10.6,3.2-15.9c0.7-3.5,0.8-7.1,1.8-10.5
		c3.3-10.9,6.7-21.6,9-32.8C91,309.3,89.7,310.5,89.5,311.4"/>
	<path class="st0" d="M71.4,392.2c6.8,4.7,13.7,6.9,21.7,8.6c5.7,1.2,13.1,3.3,18.9,2.4c5.8-1,6.4-4.8,7.1-9.6
		c1.2-8.2,2.3-16.5,4-24.7c0.8-4,0.3-8.3,0.2-12.4c-0.2-9.3-0.5-18.5-0.9-27.7c-0.7-17.1-2.9-33.9-3.4-51c-0.1-1.8,0.1-3.9-0.4-5.7
		c0.1,0.5-1.9,2-1.6,2.8c0.8,3.1,0.4,7,0.5,10.3c0.2,5.3,0.4,10.6,0.9,15.9c0.6,6.4,1.5,12.8,1.8,19.2c0.9,16,1.3,32.1,1.6,48.1
		c0.1,5-1.7,10.5-2.5,15.5c-0.6,4.1-1.3,8.3-1.9,12.4c-0.2,1.2-0.4,2.5-0.5,3.7c0,0.3-0.1,0.5-0.1,0.8c0.5-3.5-1.8-0.7-4.2-0.3
		c-5.2,0.9-12.8-1.5-17.9-2.5c-7.9-1.6-14.9-3.9-21.7-8.6C72.9,389.3,71.1,392,71.4,392.2"/>
	<path class="st0" d="M33.9,432.1c0.1,3.2,0.3,6.4,1.3,9.4c0.4,1.1,1.1,2.2,1.5,3.3c1,2.3,0.8,5.1,1.7,7.3c1,2.6,2.2,5.2,3.5,7.7
		c1.9,3.8,4.6,6.4,7,9.7c1.4,1.9,3.4,3.1,4.8,4.8c1.7,2.3,3,4.2,5.2,6c0.9,0.8,2.9,2,2.9,3.4c0,1.8,0.2,2.5,1.1,4.1
		c0.3,0.5,1.1,1.5,1,2.2c0.5-2.1,1.5-1.4-1.2-0.3c-2.1,0.8-3.4-0.7-4.6-2.1c0,0-1.6,2.3-1.6,2.8c0,1.3-0.3,2.6,0.2,3.8
		c0.3-0.6,0.6-1.2,0.9-1.9c-0.7,1.2-3.2,0.7-4,0c0,0,0,0-0.1,0c-2.2,1.3-4.1,1.1-5.6-1c-0.1-0.1-0.4,0.4-0.3,0.4
		c-1.9,2.7-4.4-1.1-5.6-2.4c-0.1-0.1-0.9,1.3-1,1.3c0.1-0.2-8-3.9-8.7-4.3c-4.5-2.5-7.3-9.9-7.9-14.6c-0.4-3.2-4.6-4.4-6.2-6.9
		c-2.1-3.3-1.2-12.5,0.9-15.9c0.5-0.9,1.4-2.9,0.2-0.9c-2.6,4.2-3.6,9.4-3.9,14.3c-0.4,6.5,4.9,7.1,7.2,12.1
		c0.7,1.4,0.7,3.6,1.2,5.1c0.7,2.1,1.9,4,3.1,5.7c1.7,2.5,3.7,4.4,6.7,5.3c3.5,0.9,5,4.7,7.6,0.3c-0.3,0.4-0.6,0.9-1,1.3
		c1.6,1.7,3.7,4.9,5.9,2.2c-0.5,0.6,2.7,1.7,3.6,1.6c0.4,0,1.2-0.3,1.6-0.5c0.7-0.4,1.4,0.3,2.2,0.4c4.7,0.5,4.4-5.5,4.5-8.1
		c-0.5,0.9-1.1,1.8-1.6,2.8c2.1,2.5,5.3,3.1,7.3,0.3c0.6-0.9,2.3-2.9,1.7-4c-1.1-1.9-2-3.4-2-5.6c0-1.5-1.9-2.6-2.9-3.5
		c-2.3-2-3.8-4.2-5.6-6.6c-0.6-0.9-2-1.1-2.7-2c-1.1-1.5-2.1-2.8-3.5-4.1c-3.5-3.3-5.6-8.5-7.5-12.8c-1.6-3.6-1.7-7.4-3.2-11.1
		c-1.6-3.8-2.3-7.4-2.4-11.5C35.6,429.9,33.9,431.3,33.9,432.1"/>
	<path class="st0" d="M15.9,426.4c0.9,6.1,1.8,12.3,2.3,18.4c0.4,5.4-1.3,10.9,0.6,16c-0.2-0.4,1.9-2,1.6-2.8
		c-1.4-3.7-0.2-6.2-0.5-9.7c-0.2-2.7,0-5.5-0.2-8.2c-0.5-5.5-1.3-11-2.1-16.5C17.7,424.2,15.8,425.5,15.9,426.4"/>
	<path class="st0" d="M92.4,400.3c-0.9,4.7,0.2,8.3,1.1,12.8c0.5,2.7,0.8,2.7,2.9,4.5c3.1,2.6,6.1,5.2,9,8c1.1,1.1,3.3,1.8,4.7,2.5
		c2.2,1.2,4.3,2.6,6.6,3.6c3.6,1.5,4.9,2.8,7.3,5.8c-0.1-0.1,2-2.4,1.6-2.8c-2.2-2.6-3.2-4.1-6.4-5.4c-4-1.6-7.8-4.1-11.6-6.2
		c-4.3-2.3-8.1-7.2-11.9-10.3c-0.9-0.7-1.1-5.6-1.4-6.9c-0.7-2.8-0.7-5.4-0.1-8.2C93.9,398.2,92.6,399.4,92.4,400.3"/>
	<path class="st0" d="M112.3,437.8c3.4,2.3,6.5,3.3,10.5,4.4c2.6,0.7-1.8,2.6-3,2.6c-2.8,0-5.1-1.4-7.7-2.2c-0.9-0.3-2.2,0-3.2-0.3
		c-3-0.8-4.8-3.2-7.1-5c-3.5-2.7-7.9-6.2-12.5-6.4c-4-0.2-8.5-0.7-12-2.8c-4.2-2.6-3.4-8.3-2.3-12.2c1.2-4.5,1.6-6.4,1.3-11.1
		c-0.2-4.6-0.1-9.9-1.7-14.3c0.2,0.4-1.9,2-1.6,2.8c1.9,5.3,1.6,11.7,1.8,17.2c0.1,4-1.2,7.2-2.3,11.1c-1.6,5.7,2.8,9.8,7.8,11.1
		c5.5,1.4,9.8,1,14.8,4c4.6,2.7,8.3,8,13.7,8.9c3.3,0.6,9.6,4,12.6,1.6c1.5-1.2,4.1-4.3,3.5-6.5c-0.5-1.9-2.8-1.8-4.6-2.3
		c-2.4-0.7-4.4-1.9-6.4-3.3C113.8,434.9,112,437.7,112.3,437.8"/>
	<path class="st0" d="M116.2,437.4c1.2,0.6,2.4,1.2,3.6,1.7c1.1,0.5,2.1,1.1,3.2,1.6c0.9,0.4,1.7,1,2.5,1.6c0.4,0.3,0.4,0.5,0.3,0.9
		c-0.2,1.1-0.6,0.3,0.6-0.8c-0.5,0.4-1.1,0.3-1.7,0.3c-0.6-0.1-1.5,2.9-1.6,2.8c2.1,0.3,3-1.7,3.8-3.3c0.6-1.3,0.9-2.2-0.3-3.1
		c-2.7-1.9-5.8-3-8.7-4.4C117.5,434.4,116,437.3,116.2,437.4"/>
	<path class="st0" d="M119.2,436.6c1.2,0.8,2.4,1.5,3.7,2.2c0.8,0.4,3.3,1.4,3.2,2.6c0.2-0.3,0.3-0.7,0.5-1c0,0.1-0.1,0.1-0.1,0.2
		c0.4-0.6,0.7-1.1,1.1-1.7c-0.2,0.2-0.4,0.3-0.6,0.4c-0.5,0.3-0.9,1.2-1.1,1.7c-0.1,0.1-0.6,1.2-0.4,1.1c0.7-0.4,1.1-1,1.5-1.7
		c0.3-0.5,0.9-1.3,0.8-1.9c-0.1-0.7-1-1.3-1.6-1.6c-1.8-1-3.6-1.9-5.3-3C120.6,433.6,118.9,436.4,119.2,436.6"/>
	<path class="st0" d="M121.2,435.8c0.8,0.5,1.6,1,2.4,1.5c0.5,0.3,2.6,1.2,2.4,2c0.4-0.7,0.7-1.3,1.1-2c0.2-0.3,0.2-0.3-0.1,0
		c-0.5,0.4-0.8,1.2-1.1,1.7c-0.1,0.1-0.5,1.2-0.4,1.1c0.6-0.5,1.1-1.2,1.5-1.9c0.3-0.6,0.8-1.3,0.7-2c-0.1-0.5-0.9-0.9-1.3-1.1
		c-1.2-0.7-2.3-1.5-3.5-2.2C122.6,432.9,120.9,435.7,121.2,435.8"/>
	<path class="st0" d="M78.2,410.2v1.1c0.4-0.7,0.7-1.4,1.1-2.1c-2.1,3.2-3.2,6.8-1.6,10.6c-0.2-0.4,1.9-2.1,1.6-2.8
		c-0.9-2.3-1.1-4.7-0.1-7c-0.9,2.1,0.2-0.4,0.5-0.9c0.2-0.5,0.1-1,0.1-1.5c0-0.2-0.7,0.8-0.7,0.9C78.9,408.9,78.2,409.7,78.2,410.2"
		/>
	<path class="st0" d="M96.2,84.2c-4.6-2.4-8.6-6.3-11.8-10.3c-3-4-5.2-8.6-6.1-13.5c-1.1-5.5-0.1-10.7,0.7-16.2
		c0.2-1.2,0.6-2.3,1-3.4c0.3-1,0.8-1.6,1.5-2.5c0.9-1.3,1.8-2.5,2.7-3.8c0.4-0.5,0.4-0.8,0.5-1.4c0.5-3,1-6,1.6-9
		c0.2-1.1,0.4-2.1,0.6-3.2c0.1-0.3,0.1-0.2,0.4-0.6c0.4-0.5,0.8-1,1.2-1.5c-0.1,0-0.2,0-0.4,0.1c2.4,1.4,5,2.5,7.6,3.4
		c6.2,2.2,12.7,3.4,19.3,3.4c0.4,0,0.4-0.5,0.1-0.5c-6.5,0-13-1.2-19.2-3.4c-2.5-0.9-5.1-1.9-7.4-3.3c-0.1-0.1-0.3-0.1-0.4,0.1
		c-0.6,0.8-1.5,1.6-1.7,2.6c-0.3,1.7-0.6,3.3-0.9,5C85,28,84.6,30,84.3,32c-0.1,0.5-0.2,1-0.3,1.6c0,0.2,0,0.1,0,0.1
		c-0.2,0.2-0.3,0.5-0.5,0.7c-1.1,1.6-2.3,3.2-3.4,4.8c-0.8,1.1-1,2.6-1.4,3.8c-0.5,1.4-0.4,3-0.7,4.4c-0.6,2.9-0.8,6-0.6,9
		c0.4,8,4.2,15.4,9.7,21.2c2.6,2.7,5.6,5.3,9,7C96.2,84.8,96.5,84.3,96.2,84.2"/>
</g>
</svg>
