<?xml version="1.0" encoding="utf-8"?>
<!-- Generator: Adobe Illustrator 19.0.1, SVG Export Plug-In . SVG Version: 6.00 Build 0)  -->
<svg version="1.1" id="Слой_1" xmlns="http://www.w3.org/2000/svg" xmlns:xlink="http://www.w3.org/1999/xlink" x="0px" y="0px"
	 viewBox="0 0 201 350" style="enable-background:new 0 0 201 350;" xml:space="preserve">
<style type="text/css">
	.st0{clip-path:url(#SVGID_2_);fill:#616C90;}
</style>
<g>
	<defs>
		<rect id="SVGID_1_" x="2.3" y="1" width="197.7" height="346.7"/>
	</defs>
	<clipPath id="SVGID_2_">
		<use xlink:href="#SVGID_1_"  style="overflow:visible;"/>
	</clipPath>
	<path class="st0" d="M39.7,66c-0.2,0.3-0.5,0.7-0.7,1.1c0,0.1-0.8,1.7-0.8,1.7c1.1,0,2.1,0.4,3.1,0.8c0.3,0.2,2-3.1,1.8-3.2"/>
	<path class="st0" d="M63.9,46.2c-0.1-0.5-0.1-0.9,0-1.4c-0.2,1.9-0.3,0.9,1.1,1.1c1.3,0.2,2.5,0.9,3.5,1.7c1.9,1.5,3,5.2,3.3,7.6
		c0.1,1.1-0.3,2.5-0.5,3.6c-0.1,0.8-0.2,1.5-0.4,2.3c-0.2,1.4-0.2,0.2-0.5,0.5c-0.9,0.7-1.5,1.9-2.3,2.8c-1.5,1.6-3.6-0.5-3.4-2.2
		c-0.1,0.6-1.7,2-1.8,3c-0.2,1.3,1.3,3.8,2.9,2.7c1.6-1.1,3.2-3.1,4.4-4.6c2.5-3.4,2.8-6.4,3.4-10.5c0.6-3.9-3.2-9.2-6.9-9.9
		c-2.9-0.6-5.2,4.3-4.7,6.6C61.9,48.7,64.1,47.2,63.9,46.2"/>
	<path class="st0" d="M71,63.5c-1.5,7.8-3.8,15.9-4.6,23.9c0.1-0.5,1.7-2,1.8-3c0.8-7.9,3.1-16.1,4.6-23.9
		C72.7,61.1,71.2,62.5,71,63.5"/>
	<path class="st0" d="M78.2,70.9C73.3,73.2,69.4,78,67.4,83c-0.1,0.4,0.4,0.6,0.6,0.2c2-4.8,5.7-9.5,10.5-11.8
		C78.9,71.3,78.6,70.7,78.2,70.9"/>
	<path class="st0" d="M60.4,68.1c1.2,3.5,2.5,6.9,3.8,10.4c1,2.7,2.5,6,1.7,8.9c0.5-0.9,1-1.8,1.5-2.7c-0.1,0.2-0.2,0.4-0.4,0.5
		c-0.3,0.4-1.9,3.5-1.1,2.4c2.5-3.7,2-6.3,0.7-10.4c-1.3-4.1-2.9-8.2-4.4-12.3C62.4,65.4,60.1,67.2,60.4,68.1"/>
	<path class="st0" d="M105.3,75.7c-2.7-8.8-3.2-16.6-2.4-25.6c0.6-7.1,2.4-14.2,1.3-21.4c-1.4-8.9-6-16.4-13.5-21.3
		C81.2,1,70.5,2.1,60.2,5.9c-7.8,2.8-13.9,9.3-18,16.3c-4.5,7.9-4.4,15.4-5.4,24.3c-0.4,3.5,0.5,4.1,2.8,6.9
		c1.5,1.8-2.5,8.8-3.2,10.6c-1.1,2.8-1.6,4.6,1.8,5.8c2.4,0.9,2.8-0.2,2.8,2.9c0,2,0.1,2.6,1.6,3.9c1.1,0.9,0.7,2.4,0.9,3.6
		c0.4,1.9,2.6,2.4,3.3,4.1c1.2,3.2-0.5,6,0,9.3c-0.1-0.7,2-2.1,1.8-3.2c-0.5-3.3,0.9-5.7,0.1-8.9c-0.8-3.3-4-3.3-3.4-7.5
		c0,0,0-0.1,0-0.1c-1.4-0.8-2.5-1.4-2.5-3.2c0-0.6,0.4-3.1-0.2-3.6c-2.2-1.8-6.5-0.3-4.8-4.9c1.2-3.2,2.4-6.4,3.7-9.6
		c0.8-2.1-1.1-3.5-2.3-5c-1.9-2.2-0.2-6.8-0.3-9.6c-0.1-7.5,1.8-13.9,6.6-19.8C51.6,11,61,7,70.1,5.9c19.6-2.4,33.3,15.1,32.6,33.3
		c-0.2,6.3-1.5,12.6-2,18.8c-0.6,7.2,0.7,13.8,2.8,20.8C103.3,78.3,105.6,76.6,105.3,75.7"/>
	<path class="st0" d="M42.1,70.6c1.3,0.9,2.5,1.8,3.8,2.6c0,0,0,0,0.2,0.3c0.3,0.4,0.5,0.9,0.8,1.3c0.4,0.6,0.8,1.3,1.2,1.9
		c0.1,0.2,0.4,0.2,0.5,0c1.2-1.4,1.9-3.4,2.4-5.1c1.9-5.7,2.1-12,1.9-18c-0.1-2.3-0.2-4.2-0.9-6.3c-0.8-2.2-1.6-4.4-2.4-6.6
		c-0.3-0.9-0.6-1.8-1-2.6c-0.2-0.5-0.3-0.9-0.3-1.1c0.1-1.5,0.1-2.8,0.5-4.1c1.2-4.1,2.3-8.3,3.5-12.4c0.1-0.2-0.1-0.4-0.3-0.4
		c-3.6,0.6-8.4,1.5-11.1,4.2c-0.3,0.3,0.1,0.7,0.4,0.5c2.6-2.6,7.3-3.5,10.8-4.1c-0.1-0.1-0.2-0.3-0.3-0.4c-1,3.6-2,7.2-3.1,10.8
		c-0.6,2.2-1.5,4.8-0.7,7c1.3,3.7,2.7,7.3,4,11c0.2,0.6,0.1,1.6,0.2,2.3c0.1,1.2,0.1,2.4,0.1,3.6c0,2,0,4-0.1,6
		c-0.2,2.9-0.6,5.8-1.3,8.6c-0.6,2.2-1.3,4.8-2.9,6.6c0.2,0,0.3,0,0.5,0c-0.4-0.6-0.8-1.3-1.2-1.9c-0.3-0.5-0.6-1.5-1.1-1.8
		c-1.3-0.9-2.6-1.8-3.9-2.7C42.2,69.8,41.8,70.3,42.1,70.6"/>
	<path class="st0" d="M155.7,135.4c0.6,3.8,1,7.6,1.2,11.4c0.3,3.9,1.2,11.3-0.8,14.6c-1.2,2-2.7,3.9-3.2,6.2
		c-0.8,3.7-1.4,8.9-3.3,12c-0.6,1-1.5,3.2-0.2,1c2-3.4,3-7.2,4-10.9c0.5-1.9,0.9-3.9,1.5-5.9c-0.8,2.6,0.4-0.6,0.9-1.4
		c0.4-0.6,0.8-1.2,1.1-1.8c4.2-7.8,1.9-19.9,0.5-28.3C157.7,132.9,155.6,134.3,155.7,135.4"/>
	<path class="st0" d="M124.8,157c5.4,5.3,10.8,10.6,16.1,16c6.4,6.6,15.5,15.4,6.2,24.5c-0.8,0.8-1.2,2.6-1.7,3.1
		c7.3-7.3,10.3-18.9,1.7-26.4c-7.2-6.4-13.7-13.6-20.5-20.4C126.6,153.8,124.4,156.6,124.8,157"/>
	<path class="st0" d="M139.6,191.5c1.6,2.3,3.4,4.5,5.2,6.7c0.9,1.1,0.3,2.5,1.5,3.5c1.1,0.9,2.6,1.4,3.8,2.3
		c3.1,2.4,1.9,11.4-0.2,14.4c-0.3,0.4-1.9,3.5-1.1,2.4c1.5-2.2,3.8-5,3.9-7.8c0.2-2.9,0.3-6.4,0.8-9.2c0.6-3-4.4-4.4-6.2-5.8
		c-0.5-0.4-0.5-2-0.6-2.6c-0.1-0.8-1.6-2-2.1-2.6c-1.2-1.4-2.2-3-3.3-4.5C141.5,188.5,139.1,190.9,139.6,191.5"/>
	<path class="st0" d="M150.3,191.3c1.4,3.5,2.5,7.1,3.4,10.7c0.7,2.7,1.8,6.3,0.8,9c-0.7,1.9-1,3.9-0.3,5.8
		c-0.2-0.5,2.2-2.3,1.8-3.2c-1-2.6,0.6-4,0.6-6.4c0-2.4-0.3-4.8-0.8-7.2c-0.8-4.1-2.2-8.1-3.7-12C152.3,188.7,150,190.5,150.3,191.3
		"/>
	<path class="st0" d="M150.6,190.6c2.4,7.5,5.8,15.1,10.9,21.1c-0.1-0.1,2.2-2.7,1.8-3.2c-5.1-6-8.5-13.7-10.9-21.1
		C152.6,188,150.3,189.7,150.6,190.6"/>
	<path class="st0" d="M186.3,190.1c-2.3,9.3-4.8,18.8-5.6,28.3c0-0.5,1.8-2,1.8-3c0.8-9.6,3.2-19.1,5.6-28.3
		C188,187.7,186.6,189,186.3,190.1"/>
	<path class="st0" d="M150.8,216.3c5.3,1,16.9,2.7,16.2,10c-0.3,2.7,1,5.5,1.7,8.2c0.9,3.5,0.8,7.2,1.6,10.8
		c0.8,3.8,1.7,6.8,1.6,10.7c0,7.3-1.8,12.3-5.9,18.5c-1.1,1.7-1.6,3.3-2.8,4.9c-4.5,5.5-11.4,8.6-18,10.5c-13,3.9-27,5.9-40.4,7.4
		c-13.6,1.5-28.3,2.3-41.5-1.8c-6.6-2-10.9-6.8-16.5-10.4c-2.1-1.3-2.6-6-3-8.2c-0.8-4-2.5-7.7-3.2-11.6c-0.5-3-1.4-7-0.2-9.9
		c0.1-0.3-1.5,2-1.7,2.6c-2.8,7,2.1,16.4,3.5,23.2c0.5,2.3,1,6,3.2,7.3c2.5,1.6,4.5,4.2,7,5.5c3.4,1.8,6.8,3.9,10.5,5
		c6.6,2,13.6,2.4,20.5,2.5c14.7,0.2,29.5-2.1,44-4.9c11.6-2.3,24.4-4.3,33.2-12.9c1.8-1.8,3.2-3.9,4.5-6c0.5-0.8,0.9-1.6,1.3-2.5
		c0.9-2.1,0.9-0.4-0.2,0.7c11.4-11.2,7.5-28.6,5.1-42.2c-0.5-2.8-1.2-5.5-2-8.3c-0.3-1.3,0.7-4.4-0.3-5.3c-4.9-4.2-9.6-5.7-15.9-6.9
		C152,213,150.9,216.3,150.8,216.3"/>
	<path class="st0" d="M86.4,249.1c-7.1-1.4-14.4-2.4-21.6-3c-4.7-0.4-9.5-0.6-14.2,0.3c-3.7,0.7-5.5,5.6-9.8,4.4
		c-0.5-0.2-1.8,3.2-1.8,3.2c4,1.1,5.8-3.1,9-4.1c4.2-1.4,9.3-0.9,13.6-0.6c7.7,0.5,15.4,1.6,23,3.1
		C85.2,252.4,86.2,249.1,86.4,249.1"/>
	<path class="st0" d="M42.8,244.6c-3.6,1.1-7.1,4.1-6.5,8.1c0.5,3.1,2.3,5.9,4.5,8c1.1,1.1,8.1,3.9,7.3,6c-0.2,0.7,0.5-0.3,0.5-0.4
		c0.5-0.7,0.9-1.4,1.2-2.2c0.7-1.9-1.3-2.9-2.8-3.7c-2.7-1.5-5-3-6.8-5.6c-1.1-1.6-1.8-3.5-2.1-5.3c-0.2-1-1.6,0.6-0.2-0.4
		c0.9-0.6,2-1.1,3.1-1.4C42,247.5,42.2,244.8,42.8,244.6"/>
	<path class="st0" d="M15,126.9c-0.7,9.9-0.2,20.1,1.5,29.9c1.3,7.6,4.6,15.2,6.8,22.8c6.6,23,17.4,51.8,39.6,63.9
		c0.3,0.1,2-3,1.8-3.2c-21.8-11.9-32.4-39.7-39.1-62.2c-0.9-3.1-1.8-6.2-2.5-9.4c-0.9-3.7-2.8-7-3.8-10.7
		c-2.9-10.9-3.2-22.9-2.4-34.1C16.8,124.4,15.1,125.9,15,126.9"/>
	<path class="st0" d="M39.8,248.2c0.8-0.9,3.5-4.3,2.7-5.8c-2.1-3.7-3.8-7.6-5.4-11.6c-2.7-6.6-5.1-14-4.3-21.1
		c0.5-4.3-3.3-8.9-1.5-13.4c0.1-0.3-1.5,2-1.7,2.6c-1.2,2.9-0.1,6.8,0.5,9.7c0.8,4.2,0.6,8.2,1.3,12.4c0.9,5.3,2.9,10.5,5,15.5
		c0.1,0.1,4.4,9.4,5,8.8C40.7,245.9,39.5,248.4,39.8,248.2"/>
	<path class="st0" d="M129.2,96.1c-10.7-5-21.3-6.2-32.8-7.4c-2.5-0.3-5.1-0.7-7.6-1.1c-2.4-0.4-4.9-1.8-7.2-1.9
		c-5.9-0.3-12-0.4-17.9,0.7c-0.9,0.2-1.3,3.1-1.8,3.2c5.7-1,11.5-0.9,17.2-0.7c4.7,0.2,9.7,2.4,14.5,3c6.6,0.8,12.9,0.8,19.4,2.4
		c4.9,1.2,9.7,2.9,14.3,5.1C127.7,99.4,129.4,96.2,129.2,96.1"/>
	<path class="st0" d="M167.1,225.9c1.6,5.1,2.6,10.4,6.1,14.4c1.4,1.7,2.9,2.6,3.6,4.7c2.2,6.7,1.2,14.1-1.8,20.4
		c-1,2,0.9-0.9,1.2-1.4c3.1-6.3,6.8-18.8,0.9-24.7c-4.8-4.8-6.1-10-8.1-16.5C169.1,223.3,166.8,225,167.1,225.9"/>
	<path class="st0" d="M175.5,253.4c-1.8,25.1-22.6,42.1-46.1,46.5c-7.5,1.4-15,2.7-22.5,4c-5.7,1-11.8,2.6-17.6,2.5
		c-13.5-0.2-29.3-3.8-37.3-15.7c0.1,0.2-2.3,2.5-1.8,3.2c8.2,12.2,24.9,15.9,38.8,15.7c8.8-0.1,18.2-2.8,26.9-4.4
		c6.6-1.2,13.3-2.2,19.7-4c22-6.1,40.1-27.7,41.7-50.8C177.4,250.9,175.6,252.3,175.5,253.4"/>
	<path class="st0" d="M38.5,241.9c-2,6.8-4.5,13.6-6.5,20.3c-0.9,3,1.3-1.7,0.4-0.5c-0.6,0.8-1.1,1.3-1.7,2
		c-1.1,1.2-1.9,2.5-2.8,3.9c-1.3,2.2-2.8,5.2-1.3,7.7c1.6,2.6,1.4,5.4,2.9,8c1.6,2.9,3,5.6,5.3,8c2,2.1,5.9,3,8.4,4.6
		c3.7,2.4,1.9,7.7,7.2,5.2c0.9-0.4,1.3-2.9,1.7-3.1c-5.2,2.5-4-3.3-7.6-5.6c-2.5-1.6-5.3-2.7-7.8-4.2c-5.1-3.2-5.1-10.8-7.7-15.3
		c-3.5-5.9,5.2-9,5.2-14.9c0-6.2,4.4-13.2,6.1-19.1C40.1,239.5,38.8,240.9,38.5,241.9"/>
	<path class="st0" d="M34.7,284.9c0.1-5,0.6-11,3-15.5c1.2-2.2-0.2-0.4-0.8,0.7c-3,5.4-4,11.7-4.1,17.8
		C32.8,287.5,34.7,285.9,34.7,284.9"/>
	<path class="st0" d="M94.6,308.6c4.1,3.2,8.8,6.4,13.9,7.7c4.3,1,8.1,2,11.8,4.7c3.6,2.6,5.8,7.7,8.7,11.1c1,1.1,1.5,2.5,2,3.8
		c0.3,1.2,0.3,2.4,0.2,3.5c-0.4,1.9,0,1.6,1.2-1.1c-1.5,0.4-2.3,0.8-4,0.4c-0.6-0.1-1.8,3.2-1.8,3.2c3,0.7,4.5-0.3,5.8-3
		c2.7-5.4-1.8-9.5-4.5-13.6c-4.2-6.4-8.5-10.4-16.2-12c-5.8-1.2-10.7-4.3-15.4-7.9C96.3,305.3,94.2,308.3,94.6,308.6"/>
	<path class="st0" d="M120.8,331.9c0.3,2.8-0.8,5.1,1.9,6.8c2.8,1.7,4.3,2.5,4,6.2c0.6-1,1.2-2,1.8-3c0-0.1,0-0.2,0-0.4
		c0-0.1,0-0.1-0.1,0c-1.9,0.9-3,1.6-4.9,0.4c-0.2-0.1-2.1,3-1.8,3.2c1.2,0.7,1.4,0.8,2.8,0.6c0.5-0.1,2.1-1.5,2.1-0.7
		c0-0.5,1.8-2,1.8-3c0.3-3.1-0.7-5.1-3.8-6.2c-2.9-1.1-1.8-4.3-2.1-6.7C122.7,329.3,120.7,331,120.8,331.9"/>
	<path class="st0" d="M110.5,339.5c0.4,0.4,1.6,0,2-0.1c0.9-0.2,1.8-0.1,2.7-0.4c1.6-0.5,2.9-1.3,4.3-2.1c0.5-0.3,0.9-1.4,1.2-1.9
		c0.1-0.1,0.6-1.3,0.4-1.2c-1.4,0.9-2.7,1.6-4.3,2.1c-0.8,0.2-1.7,0.2-2.6,0.4c-0.4,0.1-1.6,0.5-2,0.1
		C112.4,336.3,110.2,339.1,110.5,339.5"/>
	<path class="st0" d="M106.9,343.8c0.7-0.1,1.4-0.3,2.1-0.4c1-0.2,1.2-0.7,1.7-1.6c0.8-1.4,1.8-3.2,1.4-4.9
		c-0.4-1.5-2.5-2.2-3.9-1.8c-2.1,0.6-3.2,2.4-4.1,4.4c0.5-0.9,1.1-1.7,1.6-2.6c-0.3,0.3-0.7,0.5-1,0.8c-0.5,0.4-0.9,1.3-1.2,1.9
		c-0.1,0.1-0.6,1.3-0.4,1.2c1-0.8,1.6-1.5,2.3-2.7c0.1-0.1,0.1-0.3,0.2-0.4c0.4-0.9,0.2-0.5-0.8,1.4c0.3-0.3,0.7-0.5,1.1-0.6
		c0.5-0.2,0.9-0.3,1.4-0.3c0.7,0,1.8,0.1,2.1,0.8c0.1,0.2,0.5,0.5,0.7,0.6c0.3,0.3,0.3,0.8,0.3,1.2c0,0.4-0.1,0.8-0.2,1.1
		c-0.2,0.8,0.1-0.1,0.2-0.3c0.4-0.5,0.7-1,1.1-1.5c-0.9,0.2-1.8,0.4-2.8,0.5c-0.4,0.1-0.9,1.2-1.1,1.5
		C107.6,342.2,106.9,343.8,106.9,343.8"/>
	<path class="st0" d="M117.3,339.4c1,0.3,2,0.6,3,1.2c1.3,0.8,1.7,2.3,1.7,3.8c0,1.4,2-2,0.8-1.3c-0.3,0.2-0.6,0.4-0.9,0.5
		c-0.4,0.3-0.8,0-1.3-0.2c-0.9-0.4-1.8-1-2.7-1.4c-0.3-0.1-2,3.1-1.8,3.2c1.1,0.6,2.3,1.3,3.5,1.7c0.5,0.2,1.1-0.4,1.6-0.7
		c0.8-0.5,1.3-1.4,1.8-2.2c1-1.7,1.3-3.5,0.4-5.3c-0.8-1.5-2.7-1.9-4.2-2.4C118.7,336.1,117.3,339.4,117.3,339.4"/>
	<path class="st0" d="M126.2,323.9c-1.1,1.5-2.2,3-3.3,4.6c-0.5,0.7-0.9,1.5-1.3,2.2c-0.3,0.6-0.1,0.6,0.2,0.1
		c1.1-1.5,2.2-3,3.3-4.6c0.5-0.7,0.9-1.5,1.3-2.2C126.7,323.4,126.6,323.4,126.2,323.9"/>
	<path class="st0" d="M67,305.9c6.2,10.8,13.5,20.8,22.8,29.1c4.2,3.7,8.9,5.9,13.3,9.2c0.7,0.5,4.2,0.7,5,0
		c0.8-0.7,1.2-1.9,1.7-2.7c-0.4,0.6-0.9,1.3-1.3,1.9c0.4,1.9,4.7,2.1,6.1,2.4c1.4,0.3,1.9-0.9,2.4-2c0.8-1.3,1.6-2.5,1.3-4.1
		c-0.6-2.9-3.7-4.8-5.9-2.2c-0.5,0.6-1.6,3.1-1.4,2.8c2.2-2.7,7.1,0.9,5.6,3.6c0.4-0.5,0.7-1,1.1-1.5c-1.4,0.4-6.9-0.2-7.3-2.2
		c0,0.1-1.2,1.7-1.3,1.9c-0.2,0.3-0.3,0.6-0.5,0.9c0.4-0.6,0.9-1.3,1.3-1.9c-3.5,1.1-5.8-0.8-8.4-2.8c-2.1-1.6-5-2.6-7.2-4.4
		c-1.6-1.3-3.1-2.7-4.7-4c-8.6-7.1-15.1-17.7-20.7-27.3C69,303.1,66.6,305.2,67,305.9"/>
	<path class="st0" d="M49.5,298.3c0.1-0.6,0.2-1.3,0.4-1.9c0.1-0.7,0.3-1.4,0.5-2c0.1-0.4,0.3-0.8,0.4-1.3c0.2-0.7,0.6-0.8-0.1-0.1
		c0.5-0.5,0.9-1.2,1.2-1.9c0.1-0.1,0.5-1.3,0.4-1.2c-3,2.7-4.1,7.6-4.7,11.5c0,0.2,0.8-0.9,0.8-1C48.8,299.7,49.4,299,49.5,298.3"/>
	<path class="st0" d="M83.6,323.9c-2.5-2.6-5.6-6-9.1-7.1c-3.7-1.1-4.4-5.2-6.8-7.3c-3-2.7-6.1-5.3-9.1-7.9
		c-2.5-2.1-5.4-5.2-8.5-6.4c-0.5-0.2-1.9,3.1-1.8,3.2c3.1,1.1,6,4.3,8.5,6.4c3.1,2.6,6.1,5.3,9.1,7.9c1.1,1,1.4,2.6,2.3,3.8
		c1.2,1.4,2.9,2.6,4.4,3.5c3.4,2,6.3,4.2,9.1,7.1C81.8,327.1,84.1,324.4,83.6,323.9"/>
	<path class="st0" d="M49.9,301.4c0.4-0.3,0.9-0.7,1.3-0.9c0.2-0.1,0.4-0.5,0.5-0.7c0.3-0.4,0.5-0.8,0.7-1.2c0.2-0.3,0.3-0.6,0.5-1
		c0-0.1,0.1-0.3,0-0.2c-0.5,0.3-0.9,0.6-1.3,0.9c-0.5,0.4-0.9,1.3-1.2,1.9c-0.2,0.3-0.3,0.6-0.5,1C49.8,301.2,49.7,301.6,49.9,301.4
		"/>
	<path class="st0" d="M156.2,332.4c-5.8-1.6-8.1-5.3-7.3-11c1-7.3,11.3-10.1,14.9-16.5c2.5-4.6,3.4-10.2,4.3-15.3
		c1-5.5-0.1-11.2,6.5-13.3c16.5-5.2,12.9,26,11.3,33.8c-1.4,7.1-2,14.6-5.6,20.9c-1.1,1.9-1.9,7.3-3.8,7.8c-3.6,1-5.6-0.5-4.1-4.5
		c0.1-0.3-1.5,2-1.7,2.6c-1.2,3.3-0.9,5.8,3.2,5.2c2-0.3,3.2-2.8,4-4.4c2.7-5.2,6.2-11.4,7.3-17.1c1.7-8.8,3.7-17.3,3.9-26.3
		c0.2-7.3,1-20.3-8.9-21.7c-14.2-2-13.7,20.4-15.9,28.8c-1.1,4.5-3.9,6.7-7.9,8.9c-3.2,1.8-5.8,5.1-7.4,8.4c-3,6.3-3.7,13,3.6,16.2
		c0.6,0.2,1.2,0.5,1.8,0.6C154.9,335.7,156.2,332.4,156.2,332.4"/>
	<path class="st0" d="M146.5,330.4c-0.9,1.3-1.6,2.6-2.3,4c-0.6,1.3-1.1,3-0.8,4.4c0.5,2.6,1.8,3.3,4.1,4.2c2.9,1.1,5.5,0.8,7-1.9
		c1.4-2.3,2.1-6,1.4-8.6c0.2,0.6-2.1,2.2-1.8,3.2c0.6,2.1-0.1,4.7-0.6,6.8c0.6-1,1.2-2,1.8-3c-1.5,1.2-3.2,1.1-5,0.6
		c-2.9-0.7-4.8-2-5-5.1c-0.1-2,0.7-3,1.7-4.4C148.6,328,147.4,329.1,146.5,330.4"/>
	<path class="st0" d="M178.5,331c-4,1.8-7.9,4.9-12.1,6c-3.5,0.8-9.5-1-10.7-4.5c0.2,0.5-2.1,2.3-1.8,3.2c1.4,4,7,4.7,10.7,4.5
		c2.3-0.1,4.4-2,6.3-3.1c1.9-1.1,4-2,6-3C177.7,333.7,178.1,331.1,178.5,331"/>
	<path class="st0" d="M171.7,342c-0.1,0.8-0.9,2.3-1.3,2.4c-0.3,0.1-0.7,0-1,0c-0.5,0-1-0.2-1.5-0.4c-0.7-0.3-0.6-0.9-0.9-1.4
		c-0.5-0.9-0.9-3-0.3-3.9c0.4-0.6,0.9-1.3,1-2c0-0.2-0.7,0.9-0.8,1c-1.4,2.3-2.8,4.8-2,7.5c0.5,1.7,1.5,2.6,3.4,2.5
		c1.9-0.1,3-2.4,3.8-3.9c0.8-1.5,1.3-3,1.5-4.7c0-0.2-0.8,0.9-0.8,1C172.4,340.6,171.8,341.3,171.7,342"/>
	<path class="st0" d="M161.3,338.5c-0.9,1.7-2.6,4.7-1.6,6.6c0.4,0.7,1.5,1.2,2.2,1.4c1.9,0.6,2.9-1.1,3.8-2.4c0.4-0.6,0.9-1.3,1-2
		c0-0.2-0.7,0.9-0.8,1c0.1-0.2-0.7,0.3-0.6,0.3c-0.2,0.1-0.5,0.1-0.7,0.1c-0.5,0-1-0.1-1.5-0.3c-0.5-0.2-1.1-0.6-1.5-1
		c-0.7-0.7-0.3-2-0.1-2.8c0.1-0.5,0.3-0.9,0.5-1.4c0.1-0.2,0.2-0.4,0-0.1c0.1-0.1,0.6-1.3,0.4-1.2
		C162,337.1,161.6,337.9,161.3,338.5"/>
	<path class="st0" d="M153.7,342.6c1.2,2.1,3.6,2.5,5.7,1.7c0.4-0.2,0.9-1.1,1.1-1.5c0.1-0.2,0.7-1.6,0.8-1.7
		c-2.1,0.7-4.6,0.4-5.7-1.7c0-0.1-1,1.4-1.1,1.5C154.3,341.1,153.5,342.3,153.7,342.6"/>
	<path class="st0" d="M172.3,277.1c2.9-2.3,6.4-3.4,10.1-2.9c7.5,1,8.6,9.8,8.1,15.6c-0.3,3.4,0.2,6.7-0.1,10.1
		c-0.4,4.1-2.3,7.8-3.8,11.6c-1.2,2.8-1.2,5.8-2.4,8.6c-0.6,1.3,1.3-1.7,1.5-2.1c0.9-2,1.5-3.9,1.7-6.1c0.5-4.1,3.3-7.8,4.3-11.8
		c1.1-4.3,0.3-8.8,0.6-13.2c0.4-6.7-0.6-13.8-8.1-15.8c-3.4-0.9-7.6,0.9-10.2,3C173.2,274.7,172.8,276.8,172.3,277.1"/>
	<path class="st0" d="M150.8,294.5c2.7-0.3,5.5,0.1,8.2,0.9c2.7,0.9,4.4,2.1,6.9-0.3c0.8-0.7,1.2-2.6,1.7-3.1
		c-2.7,2.7-4.7,0.9-7.7,0c-2.3-0.7-4.9-0.9-7.2-0.6C151.7,291.5,151.2,294.5,150.8,294.5"/>
	<path class="st0" d="M190.6,286.8c0.8-0.7,1.5-1.5,2.1-2.4c0.3-0.4,1.8-3,0.6-1.1c1.2-1.8,2.1-3.6,3-5.6c-0.6,0.9-1.1,1.8-1.7,2.6
		c1.9-0.4,3-2.7,3.8-4.3c1.7-3.8-1.5-5.9-1.9-9.6c-0.3-2.8,0.7-4.5-1.1-6.7c-3.4-4.3-8.5-4.2-13.1-2c-0.9,0.4-1.3,2.9-1.7,3.1
		c5.3-2.5,10.6-1.7,13.9,3.4c0.8,1.2,0,3.1,0.1,4.5c0.1,1.6,0.8,2.9,1.4,4.3c0.4,1,0.8,2,1.2,2.9c0.5,1.3,0,0.6-0.8,1.2
		c-0.7,0.6-1.2,1.8-1.6,2.6c-0.3,0.8-0.7,1.6-1,2.3c1.2-2.9,0.7-1.4,0.2-0.6c-0.6,0.9-1.2,1.8-1.6,2.2
		C191.5,284.4,191,286.4,190.6,286.8"/>
	<path class="st0" d="M176.1,243.4c1.1,1.1,2.3,2.2,3.5,3.1c1.3,1,1.7,2.6,3,3.4c0.8,0.5,1.2,2.9,2.1,3.8c0.8,0.8,3.2,0.3,4.3,0.5
		c2.6,0.4,5.4,1.4,6,4.2c0.4,1.9,1.1,2.8,0.3,4.7c-0.4,0.9-0.1,1.5,0.2,2.5c0.4-0.8,0.8-1.6,1.2-2.5c-0.3,0.5-0.7,1.1-1,1.6
		c-0.3,0.5-1.9,3.6-0.6,1.8c0.7-1.1,1.5-2.3,2.1-3.5c0.5-1.1-0.4-1.9,0.2-3.2c1.1-2.3-0.7-6.3-2.7-7.5c-2.8-1.8-7.8,0-9.4-3.2
		c-0.7-1.4-1.5-2.5-2.1-3.8c-0.9-1.9-3.7-3.5-5.3-5C178,240.3,175.8,243,176.1,243.4"/>
	<path class="st0" d="M179.2,251.9c1.7,9.5-4.3,18.4-9.1,26.1c-0.6,1-1.5,3.2-0.2,1c5.5-8.8,13.1-19.3,11.2-30.3
		C181.1,249.4,179,250.8,179.2,251.9"/>
	<path class="st0" d="M192.8,260.2c-3.4-1.8-8.5-4.1-12.2-2.2c-0.9,0.4-1.3,2.9-1.7,3.1c3.6-1.8,8.8,0.6,12,2.3
		C191.3,263.5,193,260.3,192.8,260.2"/>
	<path class="st0" d="M185.6,262.3c5,1.5,8.4,6.2,9.1,11.3c0-0.1,1-1.3,1.1-1.5c0.2-0.4,0.8-1.2,0.7-1.7c-0.6-5.1-4.1-9.7-9-11.3
		C187,259,185.6,262.3,185.6,262.3"/>
	<path class="st0" d="M174.2,236.7c-0.1-2.4-0.3-4.3-1.2-6.6c-0.6,1-1.2,2.1-1.8,3.1c4.7-4.8,8.4-10.4,11.6-16.2
		c3-5.3,3-11.6,3.9-17.6c0.8-5.5,2.2-10.8,0.8-16.2c-2.2-7.9-4.3-15.8-6.5-23.7c-2.5-9.1-4.6-18.3-7.7-27.2
		c-2-5.9-4.5-12.7-8.5-17.7c-6.5-8-14.6-12.7-23.9-17.2c-7.1-3.5-14.4-6.9-22.1-8.9c-6.1-1.6-11.1-4.9-17.4-6.2
		c-4.5-1-9.3-1.4-13.9-1.5c-0.8,0-1.5,3.2-1.8,3.2c8.9,0.1,19.5,1.2,26.8,6.6c2.2,1.6,6.7,1.6,9.5,2.6c3.8,1.4,7.5,3,11.2,4.7
		c9.5,4.2,19.9,9,27.3,16.5c3.7,3.8,6.3,9.7,8.4,14.4c7.5,17.2,11.1,36.9,16.1,54.9c1.5,5.5,1.3,9.8,0.5,15.4c-0.7,4.5-1.3,9-2,13.5
		c-0.2,1.3-0.4,2.5-0.6,3.8c-0.2,1.1,1.4-2.5,0.2-0.3c-0.5,0.9-1,1.8-1.5,2.6c-2.6,4.1-4.9,7.7-8.7,11.6c-0.5,0.5-2,2.5-1.8,3.1
		c0.9,2.1,1.1,4.1,1.2,6.4C172.4,239.2,174.3,237.6,174.2,236.7"/>
	<path class="st0" d="M64.4,113.7c15.7,9,31.6,17.5,47.8,25.5c7.5,3.7,15.1,7.3,22.9,10.2c2.4,0.9,4.4,2.7,6.5,4.2
		c1.7,1.3,3.4,2.7,4.9,4.3c1.1,1.1,2.5,2.5,2.8,4.1c0.1,0.4,0.7,0.3,0.6-0.1c-0.4-1.9-2-3.5-3.4-4.9c-1.9-1.8-4-3.5-6.1-5
		c-1.2-0.9-2.5-1.8-3.8-2.7c-0.7-0.4-1.7-0.6-2.4-0.9c-1.2-0.5-2.4-0.9-3.6-1.4c-11.3-4.6-22.2-10.2-33-15.9
		c-11.1-5.8-22.1-11.7-32.9-17.9C64.4,113,64,113.5,64.4,113.7"/>
	<path class="st0" d="M136.2,195c-4.6-1.9-9.1-4.2-13.5-6.6c-7.7-4.2-15.7-8.9-21.8-15.3c-0.1,0.2-0.2,0.3-0.3,0.5
		c4.5,0.9,9,2.2,13.3,3.5c7,2.2,14.8,4.7,20.5,9.5c0.3,0.3,0.6-0.3,0.4-0.5c-5.6-4.8-13.3-7.3-20.3-9.5c-4.5-1.4-9.2-2.7-13.8-3.7
		c-0.3-0.1-0.4,0.3-0.3,0.5c6.1,6.5,14.1,11.2,21.9,15.4c4.4,2.4,9,4.7,13.7,6.6C136.3,195.7,136.6,195.2,136.2,195"/>
	<path class="st0" d="M57.3,149.5c13.6,10.8,27.7,21.1,42.1,30.8c10.9,7.3,22.2,14.6,34.4,19.5c0.4,0.1,0.6-0.4,0.2-0.6
		c-11-4.4-21.1-10.9-31-17.3c-10.3-6.7-20.3-13.8-30.1-21.2c-5.2-3.8-10.3-7.7-15.3-11.8C57.3,148.8,57,149.3,57.3,149.5"/>
	<path class="st0" d="M150.8,202.2c-2.6-2.6-5.8-5.4-9.4-6.6c-2.9-0.9-6,2.5-5,5.3c0.3,0.9,1.5,1.4,2.2,1.9c1.4,1,2.8,2,4.2,3.1
		c2.1,1.5,4.1,3.4,6.1,5c0.1,0.1,2.2-2.9,1.8-3.2c-3.8-3.2-7.7-6.1-11.7-9c-0.7-0.5-0.9-0.7-1.1-1.5c0-1.3-0.4-0.7-1.2,1.6
		c0.5-0.4,1.4-0.3,1.9-0.3c1,0,1.9,0.5,2.8,0.9c2.8,1.4,5.3,3.6,7.5,5.8C149,205.4,151.2,202.6,150.8,202.2"/>
	<path class="st0" d="M167.5,252.9c-1.7-3.7-5.5-6.6-9-8.4c-4.2-2.1-8.9-2.9-13.6-2.9c-3.2,0-6.4,0.4-9.6,1
		c-3.7,0.7-7.1,2.1-10.7,3.1c-5.5,1.5-11.1,3.1-16.6,4.6c-0.4,0.1-0.3,0.7,0.1,0.6c3.4-1,6.9-1.9,10.3-2.9c4.5-1.2,8.8-2.8,13.3-4
		c9.9-2.7,21.8-3.3,30.3,3.4c1.9,1.5,3.9,3.5,4.9,5.7C167.1,253.5,167.7,253.3,167.5,252.9"/>
	<path class="st0" d="M40.9,208.9c0.9,2.1,2.3,4.2,3.6,6.1c3.4,4.9,7.5,9.2,12.1,12.9c16.2,13.1,37.4,17,57.8,15.5
		c8.2-0.6,16.3-2.2,24.3-4.2c0.4-0.1,0.3-0.7-0.1-0.6c-23.8,6.1-50.5,7.4-72.6-5c-9.8-5.5-18.6-13.7-23.9-23.7
		c-0.2-0.4-0.4-0.8-0.6-1.2C41.3,208.3,40.8,208.5,40.9,208.9"/>
	<path class="st0" d="M162.5,241.8c-1.1-1.6-3.5-2.6-5.2-3.3c-7.3-3.3-15.7-4.5-23.6-5.4c-7.6-0.8-15.2-1.2-22.8-1.3
		c-3.4,0-6.6,0.2-9.9-0.6c-8.4-2.1-16.6-5.4-24.3-9.5c-13.1-7-24.6-16.7-33.3-28.8c-0.2-0.3-0.7,0.1-0.5,0.4
		c13.6,18.9,34.4,32.4,56.8,38.2c2.1,0.6,3.7,0.8,5.9,0.8c8.2,0,16.3,0.2,24.4,1c8.7,0.8,17.8,1.9,26,5.3c1.9,0.8,4.6,1.8,5.8,3.6
		C162.3,242.6,162.8,242.2,162.5,241.8"/>
	<path class="st0" d="M54.8,183.8C65.3,194,77.4,203,89.9,210.5c10.6,6.4,22,11.9,34,15.2c5.9,1.6,12,2.7,18.1,2.9
		c3,0.1,5.9,0,8.9-0.3c1.5-0.2,2.9-0.4,4.3-0.7c1-0.2,2.9-0.3,3.8-0.9c0.7-0.5,1.4-1.1,2.2-1.6c0.4-0.3,1.6-0.8,1.8-1.4
		c0.1-0.3,0.6-1.8,0.3-2.1c-0.4-0.4-1.1-1.5-1.6-1.5c-0.7-0.1-1.7,0.4-2.4,0.5c-0.8,0.2-1,0.2-1.8,0c-1.9-0.3-3.9-0.6-5.8-0.9
		c-0.4-0.1-0.4,0.5-0.1,0.6c1.9,0.3,3.7,0.6,5.6,0.9c1.5,0.2,2.8-0.2,4.3-0.5c0.2,0-0.3-0.3,0,0c0.2,0.2,0.4,0.4,0.6,0.6
		c0.2,0.2,0.4,0.4,0.6,0.6c0.2,0.2,0.1-0.2,0,0.1c-0.1,0.5-0.2,1-0.3,1.5c0-0.2-0.5,0.3-0.7,0.4c-0.9,0.6-1.8,1.3-2.7,1.9
		c-0.9,0.7-2.4,0.8-3.5,1c-12.4,2.6-25.3,0.5-37.2-3.5c-20.9-7-39.8-19.8-56.5-34.1c-2.3-1.9-4.5-3.9-6.6-5.9
		C55,183.1,54.5,183.5,54.8,183.8"/>
	<path class="st0" d="M165.7,298.5c1.8-3.3,0.1-3.3-2.8-3c-17.4,1.6-34.8,4.7-52.1,7.3c-0.9,0.1-1.3,3.1-1.8,3.2
		c16-2.5,32-5,48.1-6.9c2.1-0.3,4.3-0.5,6.4-0.6c2.7-0.1,1.6-0.4,1.1,0L165.7,298.5z"/>
	<path class="st0" d="M116.6,87.9c-0.2-5.5-4.8-9.5-9.4-11.6c-9.4-4.4-22.8-2.6-31.9,1.3c-3.6,1.5-6.3,4.8-8.8,7.6
		c-0.9,1-2.1,0.9-3.5,1.1c-3.3,0.5-6.5,1.3-9.7,2.3c-7.8,2.3-16.7,5.8-23.8,9.9c-7.7,4.4-16.6,12.3-19.8,20.9
		c-3,8-4.4,17.2-5.7,25.5c-0.6,4.2-0.7,8.5-1.1,12.7c-0.3,2.8-0.6,5.7,0.4,8.4c2.5,7,3.2,14.7,4.4,22.1c1,6.3,0.5,15.6,4.4,20.9
		c5.5,7.6,12.8,15.8,21.2,20c0.3,0.2,2-3.1,1.8-3.2c-8.1-4.1-15.4-12-20.7-19.3c-4-5.5-3.6-13.8-4.7-20.4
		c-1.2-7.3-1.8-15.3-4.3-22.3C3,157,5,147.3,6.1,140.4c0.9-5.6,2.1-11.2,3.5-16.7c1.5-6.2,3-9.2,7.7-14.1
		c5.9-6.2,14.2-11.2,22.6-13.3c3.3-0.8,6.6-2.9,9.9-4.1c3-1.1,6.1-1.8,9.2-2.5c5.3-1.1,4.8-0.6,8.7-4.6c7.3-7.4,18.9-8.8,28.9-7.9
		c7.3,0.6,17.8,4.8,18.1,13.6C114.7,90.4,116.6,88.8,116.6,87.9"/>
</g>
</svg>
