<?xml version="1.0" encoding="utf-8"?>
<!-- Generator: Adobe Illustrator 19.0.1, SVG Export Plug-In . SVG Version: 6.00 Build 0)  -->
<svg version="1.1" id="Слой_1" xmlns="http://www.w3.org/2000/svg" xmlns:xlink="http://www.w3.org/1999/xlink" x="0px" y="0px"
	 viewBox="0 0 129 537" style="enable-background:new 0 0 129 537;" xml:space="preserve">
<style type="text/css">
	.st0{clip-path:url(#SVGID_2_);fill:#616C90;}
</style>
<g>
	<defs>
		<rect id="SVGID_1_" x="2" y="9" width="129.1" height="520"/>
	</defs>
	<clipPath id="SVGID_2_">
		<use xlink:href="#SVGID_1_"  style="overflow:visible;"/>
	</clipPath>
	<path class="st0" d="M38,71.6c5.4-5.5,11.2-11.1,15.4-17.6c2.6-4,3.6-8.5,5.2-13c2.8-7.9,7.4-15.2,13.6-20.8
		c6.1-5.5,17.7-10.7,26-7.2c15.6,6.6,26.6,23.8,24.7,40.8c-0.5,4.2-3,6.8-4.7,10.5c-0.4,1-0.6,2.1-0.9,3.1c-0.2,0.8-0.5,1.6-0.7,2.5
		c-0.4,0.9-0.1,0.4,0.9-1.5c-0.9,0.7-2,1.2-3.1,1.6c-5,2.1-4.8,7.1-5.8,12.1c-0.5,2.7-1.1,5.3-1.6,8c0.6-1,1.2-1.9,1.7-2.9
		c-1.1,0.1-2.2,0.3-3.3,0.3c-1.2,0-1.9-1.7-3.2-0.6c-1.2,1-1.4,2.8-2.1,4.1c0.4-0.6,0.8-1.2,1.2-1.8c-1,0.3-2.7,0.5-3.3,1.4
		c-0.3,0.5-0.6,0.9-0.9,1.4c-0.3,0.5-1.2,1.7-0.7,1.2c-1.6,1.6-3.3-0.4-4.8,1.9c-0.8,1.3-1.3,2.7-1.7,4.2c-0.9,3.1-8.4,6.5-11.1,3.2
		c-5.3-6.6-9.5-14.5-10.8-22.9c-0.2,0.5-0.5,1.1-0.7,1.6c3.3-5.8,8.2-10.9,13.2-15.3c0.7-0.6,1.2-2.7,1.6-2.9
		c-1.9,1.2-4.2,1.6-5.4-0.6c-0.6-1.2-1-2.4-1.4-3.7c-0.4-1.3-1.4-7.2-0.1-8.5c3.9-3.9,9.6-6.3,11.7,0.5c-0.2-0.5,2-2.1,1.7-3
		c-2.3-7.5-10.3-3.7-13.1,1.5c-2.2,4.1-3,8-2,12.5c0.8,3.7,3,6.9,7,4.3c0.5-1,1.1-2,1.6-2.9C76.2,68.1,69.7,74.6,66.4,82
		c-1.6,3.5,3.3,11.7,5,14.7c1.1,2,4.2,9,6.8,9.4c6.4,1.1,10-1.6,12.6-7.3c0.5-1.1,0.9-2.2,1.2-3.4c-0.7,2.6,2.7,0.8,3.5,0
		c1.3-1.3,2-3.2,2.8-4.8c-0.5,0.8-1.1,1.7-1.6,2.5c3.5-1.2,4.5-2.5,5.6-6.1c-0.6,0.9-1.1,1.8-1.7,2.7c1.8-0.6,4.2,0.6,6.5,0.3
		c0.6-0.1,1.6-2.4,1.7-2.9c0.6-3,1.2-6.1,1.8-9.1c0.4-1.8,0.7-3.7,1.1-5.5c0.1-0.4,0.2-0.9,0.3-1.3c-1.9,2.5-1.6,3.1,0.8,1.6
		c0.5-0.2,0.9-0.4,1.4-0.6c2-1.1,2.8-2.1,3.8-4.2c0.4-0.8,0.6-1.7,0.9-2.6c0.3-0.9,0.5-1.9,0.8-2.8c0.5-1.9-2,3.1,0.5-0.1
		c11.1-14.4,2.2-35.6-10-46.1c-4.9-4.2-9.5-6.9-15.9-7.1C85,9,76.5,13.9,70.5,20.5C63,28.9,58.4,38.9,55,49.5
		c-2.4,7.4-9.9,13.7-15.3,19.1C38.9,69.4,38.5,71.2,38,71.6"/>
	<path class="st0" d="M108.1,149.3c-2.7,3.3-3.6,7.3-3.6,11.4c0.1,6.4-1.3,12.8-4.7,18.3c-3.8,6.2-7.9,11.9-12.5,17.5
		c-4.8,5.9-12.2,1.7-17.8-0.7c-6.2-2.7-10.9-10-15.3-15c-6.5-7.2-11.5-15.8-15.9-24.3c-5.4-10.3-10-21.1-13.5-32.2
		c0.2,0.5-2,2.1-1.7,3c3.7,11.5,8.6,22.8,14.2,33.5c4.5,8.6,9.8,16.8,16.2,24.1c4.6,5.2,9.2,11.9,15.8,14.5
		c4.3,1.7,11.7,5.9,15.7,1.1c3.8-4.6,7.5-9.2,10.8-14.2c2.6-4,5.5-8.1,7.5-12.5c1.7-3.8,2.5-7.9,2.9-11.9c0.3-2.4-0.7-8.2,0.7-9.9
		C107.2,151.4,108.3,149,108.1,149.3"/>
	<path class="st0" d="M92.7,134.4c-2,2.7-3.8,6.1-3.2,9.6c0-0.1,0.9-1.3,1-1.4c0.2-0.4,0.8-1.1,0.7-1.6c-0.2-1.1-0.2-2.1,0-3.1
		c0.1-0.5,0.3-1,0.5-1.4c-0.4,0.9-0.2,0.4-0.4,0.7c0.5-0.6,0.9-1.3,1.2-2C92.6,134.9,93.1,133.8,92.7,134.4"/>
	<path class="st0" d="M92.7,137.3c-1.2,1.7-2.3,3.6-3,5.5c-0.6,1.7-1.3,3.8-2.6,5.2c-0.7,0.7-1.2,2.5-1.6,2.9
		c1.5-1.5,2.5-3.5,3.4-5.3c0.5-1,1-1.9,1.5-2.9c0.4-0.9,0.9-2.6,1.3-3.1c0.5-0.7,0.9-1.4,1.2-2.1C93.2,136.9,93.1,136.8,92.7,137.3"
		/>
	<path class="st0" d="M87.6,141.7c0.3,1,0.8,2,1.6,2.6c0.1,0.1,2-2.8,1.7-3c-0.8-0.6-1.3-1.7-1.6-2.6c0-0.1-0.4,0.4-0.4,0.4
		c-0.2,0.3-0.5,0.7-0.7,1c-0.2,0.4-0.4,0.7-0.6,1.1C87.7,141.3,87.6,141.6,87.6,141.7"/>
	<path class="st0" d="M109.4,155c-0.8,0.8-2,1.2-3.2,1.2c-0.3,0-0.9,1.2-1,1.4c0,0.1-0.8,1.6-0.7,1.6c1.2,0,2.4-0.5,3.3-1.3
		c0.5-0.5,0.8-1.2,1.2-1.8c0.2-0.3,0.3-0.6,0.5-0.9C109.4,155.3,109.5,154.8,109.4,155"/>
	<path class="st0" d="M106.8,159.7C106.9,159.7,106.9,159.8,106.8,159.7c0.5-0.7,0.9-1.4,1.3-2.2c0,0,0,0,0,0
		c0.2-0.2,0.3-0.4,0.5-0.6c0.1,0-0.2-0.1-0.2-0.1c-0.4-0.2-0.7-0.4-1-0.6c-0.2-0.1-2,2.9-1.7,3c0.4,0.2,0.8,0.5,1.2,0.6
		c0.4,0.1,0.6-0.4,0.7-0.6c0.3-0.5,0.6-1,0.9-1.5c0.1-0.2,0.4-0.6,0.3-0.8c0-0.1-0.1-0.1-0.1-0.1c-0.1-0.1-1,1.3-1,1.4
		C107.5,158.2,106.7,159.5,106.8,159.7"/>
	<path class="st0" d="M88.2,137.9c0.2-3.1,5.1-3.6,7.8-4.2c1.5-0.4,4.6,0.2,6.3,0.4c1.4,0.1,3,3.4,4.7,3.9c4.2,1.3,2.5,5.3,4.3,8.5
		c1.1,2,0.3,4.2,1,6.1c1.3,3.2-3.3,5.5-5.8,6.4c-0.9,0.3-1.1,2.8-1.7,3c4.3-1.6,9.5-6.2,9.5-11.2c0-2.4-0.3-5.6-1.6-7.8
		c-1.5-2.7,0.2-6.4-3.2-7.8c-1.8-0.7-4.7-4.3-6.3-4.1c-3.5,0.5-6.1-0.3-9.5,0.8c-4.4,1.3-6.8,4.2-7.1,8.9
		C86.5,140.2,88.1,138.8,88.2,137.9"/>
	<path class="st0" d="M61.9,100.5c2.2,2.9,4.2,6,6,9.2c2.9,5,6.1,10.9,6.2,16.8c0,0.4,0.6,0.4,0.6,0.1c-0.1-5.9-3.2-11.7-6.1-16.8
		c-1.9-3.3-4-6.6-6.2-9.6C62.1,99.8,61.7,100.2,61.9,100.5"/>
	<path class="st0" d="M55.5,108c4.9,4.2,9.2,9.2,13.5,14c6,6.6,11.4,13.1,11,22.5c0-0.5,1.7-1.9,1.7-2.8c0.4-8.6-3.9-14.5-9.3-20.7
		c-4.7-5.5-9.8-11.2-15.2-16C57.2,105,55.2,107.7,55.5,108"/>
	<path class="st0" d="M60.5,134.5c5.2,3.6,12.3,9.9,18.8,10.6c1.5,0.2,1.3-1.2,2.4,0.6c1,1.7,1.4,2,3.1,2.8c1.5,0.7,4.4,5.7,5.1,7.2
		c-0.2-0.4,2.1-2.2,1.7-3c-1.2-2.6-3.5-4.4-4.7-7c-0.4-0.8-2.4-1.1-3.1-2.2c-1-1.6-1-2.1-2.8-1.3c-2.2,0.9-8.4-3.9-10.2-5
		c-2.9-1.8-5.8-3.7-8.6-5.6C62.1,131.4,60.2,134.3,60.5,134.5"/>
	<path class="st0" d="M15.6,115.7c1.9,10.8,5.6,25.8,15.4,32c0.2,0.1,2-2.8,1.7-3c-9.8-6.3-13.5-21.2-15.4-32
		C17.4,113.4,15.4,114.7,15.6,115.7"/>
	<path class="st0" d="M23.8,146.5c0.6,0.1,1.4,0.8,1.9,1.2c1.1,0.7,2.3,1.5,3.4,2.2c1.6,1,3.7,2.8,5.7,3c0.4,0,0.4-0.5,0.1-0.6
		c-0.9-0.1-1.8-0.8-2.6-1.2c-1.2-0.7-2.4-1.5-3.6-2.2c-1.1-0.7-2.1-1.4-3.2-2.1c-0.5-0.3-1-0.8-1.6-0.9
		C23.5,145.9,23.5,146.5,23.8,146.5"/>
	<path class="st0" d="M88.6,146.1c2.6-0.4,5.3,0,7.7,0.9c6.3,2.5,8.2,9.4,8.3,15.6c0-0.4,1.8-1.9,1.7-2.8
		c-0.2-6.2-1.9-12.7-7.9-15.5c-2.4-1.2-5.5-1.6-8.2-1.1C89.4,143.2,89.1,146,88.6,146.1"/>
	<path class="st0" d="M39.1,164.2c7.8,7.3,18.3,12.1,28.1,16.1c0.4,0.2,1.8-3,1.7-3c-9.8-3.9-20.2-8.8-28.1-16.1
		C40.8,161.2,38.7,163.8,39.1,164.2"/>
	<path class="st0" d="M91.6,192.2c0,15.3,0.2,30.6,0.7,45.9c0.3,9.2,0.6,18.6,1.7,27.7c0.7,6,2.3,13,1.6,19
		c-2.5,20.5-5.9,45.9-25.4,57.6c-10.1,6-21.8,3.5-31.6-1.6c-8-4.1-15-10.1-21.5-16.3c-3.8-3.6-4.3-12.1-5.4-16.9
		c-2.9-13-3-24.7-2-37.8c1-12.4,2.4-24.9,2.5-37.3c0,0.4-1.7,1.9-1.7,2.8c-0.1,16.1-2.1,32.4-3.4,48.5c-0.7,9,1,18,2.9,26.8
		c1,4.5,2.2,9.1,3.5,13.5c1.3,4.4,6.2,7.4,9.6,10.2c12.4,10.4,29.9,19.8,45.6,11c10.1-5.7,16.5-17.4,20.8-27.7
		c2.8-6.7,4.9-13.7,6.3-20.8c1.7-9,1.5-17.8,0.9-26.8c-1-14.7-2.4-29.2-2.8-44c-0.3-12.2-0.5-24.4-0.5-36.6
		C93.4,189.8,91.6,191.2,91.6,192.2"/>
	<path class="st0" d="M17.1,241.6c-3.7-6.4-8-13.5-8.3-21c-0.3-7.9-0.6-15.7-1-23.6c-0.5-10.5-1-20.9-1.8-31.3
		c-0.5-7-2.1-14.4-2.2-21.4c-0.1-15.7,1-32.3,5.5-47.4c1.5-4.9,3.4-9.7,7.9-12.4c2.9-1.7,4.9-3.2,7-5.8c1.2-1.6,2.6-3,3.5-4.8
		c0.3-0.6,0.3-1.8,0.8-2.2c0.9-0.8,3.2-0.7,4.3-0.7c8.6,0.2,13.6,6.4,19.5,11.5c4.4,3.8,9.5,7.2,13,11.9
		c5.7,7.5,10.8,15.6,14.9,24.1c4.4,9,8.5,20.4,4.6,30.3c-0.1,0.3,1.4-1.9,1.6-2.5c4-10.2-0.1-21.4-4.5-30.8
		c-4.4-9.3-10.2-18.1-16.6-26.2c-2.3-2.9-6.1-5.2-8.8-7.6c-3.8-3.3-7.1-7.2-11.2-10.1c-4.6-3.2-13.6-6.3-17.3-0.4
		c-0.5,0.8-1,1.7-1.3,2.6c-0.2,0.6-0.3,1-0.5,1.6c-0.5,2.1,2.6-3.6,0.7-1.2c-2,2.4-3.7,4.7-6.4,6.3c-5.5,3.3-8.5,7.6-11.1,13.5
		c-6.8,15.4-7.4,34.2-7.6,50.8c-0.1,5.7,1.2,11.4,1.7,17c1,11.5,1.5,22.9,2.1,34.4c0.4,8.9,0.8,17.8,1.2,26.7
		c0.3,7.9,4.4,15,8.3,21.8C15.2,244.3,17.5,242.2,17.1,241.6"/>
	<path class="st0" d="M92.4,306.5c-1.6,13.9-3.7,27.8-2.7,41.8c1.7,23.1,2,46.4,0.4,69.6c-0.5,6.7-1.2,13.4-2.1,20.1
		c-0.5,3.2-1,6.4-1.6,9.6c-0.3,1.6-0.6,3.1-1,4.6c0.3-1.3,2-1.8,0.1-0.5c-4.8,3.2-10.4,5.2-16.1,5.9c-5.5,0.7-10.9-2.1-16.5-0.3
		c-7.5,2.4-15.9,3.5-23.6,1.7c-2.6-0.6-9.5-3.5-9.6-6.8c-0.1-2.5-0.2-5-0.3-7.4c-0.5-11.8-1-23.6-2-35.4c-0.3-3.1-1.5-6.7-1.5-9.7
		c0-4,0.2-8,0.3-12c0.3-6.7,0.8-13.4,1.6-20.1c0.4-2.9,0.9-5.8,1.6-8.6c0.4-1.4,1.4-2.9,1.3-4.4c-1-10.1-1.2-21.6-4.8-31.2
		c0.2,0.5-2,2.2-1.7,3c3.1,8.4,3.4,18.4,4.4,27.2c0.7,6.5-2,12.8-2.7,19.3c-1.1,9.1-1.4,18.4-1.6,27.6c-0.1,4.9,1.3,9.9,1.7,14.8
		c0.8,9.5,1.2,19,1.6,28.6c0.3,5.9-1.1,11.2,3.7,15.2c7.1,6,18.9,4.2,27.1,2.1c9.7-2.4,19,0.8,28.5-2.8c3.4-1.3,7.7-3,9.5-6.3
		c1.4-2.6,1.6-6,2.1-8.8c0.9-4.8,1.6-9.7,2.2-14.6c2.3-19.3,2.6-38.8,2.1-58.2c-0.3-10.6-0.8-21.2-1.8-31.8
		c-0.6-6,0.9-12.7,1.5-18.6c0.5-5.4,1.1-10.8,1.8-16.2C94.1,304.1,92.5,305.5,92.4,306.5"/>
	<path class="st0" d="M93.1,302.9c0.8,16.4,1.1,32.9,1.1,49.4c0.1,24.4,0.9,50.8-5.2,74.6c0.2-0.6,1.5-1.9,1.7-2.8
		c6-23.5,5.2-49.3,5.2-73.3c0-16.9-0.3-33.8-1.1-50.7C94.9,300.5,93.1,302,93.1,302.9"/>
	<path class="st0" d="M46.6,461.3c-0.1,5.8-0.5,12.3,2.5,17.4c2,3.4,4,6.8,5.7,10.4c1,2.1,3.6,2.8,5.6,3.8
		c7.2,3.7,14.4,7.5,21.8,10.6c3.5,1.5,6.1,3.6,9.1,5.6c1.5,1,3,1.9,4.4,2.9c1.3,0.8-0.5,1.1-1.9,1.4c-0.4,0.1-2,2.6-1.7,3
		c0.3,0.4,0.5,0.8,0.7,1.3c0.4-0.1,0.8-0.2,1.1-0.3c-0.9,0.9-1.9,1.2-3,0.7c-0.4-0.1-1.8,2.5-1.7,2.9c0.1,1.3-1.9,0.4-3.2,0.1
		c-0.1,0-0.9,0.8-0.7,0.6c-2,1.7-4.1,0.5-5.8-0.7c0,0,0,0-0.1,0c-1.8,1.9-4,1.7-6.3,1c-0.2-0.1-0.9,1.3-1,1.4
		c1.1-1.9,0.4-0.7-0.8-0.2c-1.2,0.4-2.5,0.3-3.8,0.3c-5.4-0.4-11.1-3.3-15.8-5.9c-6.2-3.5-12.6-6.2-18.9-9.3
		c-3.7-1.8-7.8-4.4-9.1-8.6c-1-3.4,1-6.3,1.6-9.4c1.4-6.7,1.9-14.4,1.1-21.2c0,0.4-1.8,2-1.7,2.8c0.5,4.6-0.1,9.4-0.3,14
		c-0.2,3.1-0.3,5.9-1.6,8.8c-4.1,8.8,3.5,14.5,10.8,17.8c8.1,3.6,15.7,8.2,23.8,11.6c4.4,1.8,11.8,4.7,14.9-0.5
		c-0.3,0.5-0.7,0.9-1,1.4c2.9,0.9,5.9-1.4,7.9,0.1c0.9,0.7,2.7,0.6,3.7,0c1.6-1,2.9-0.5,4.8-1c1.8-0.5,3.4-4.3,3.3-5.9
		c-0.6,1-1.2,1.9-1.7,2.9c3.9,0.8,6.7-4.7,4.7-7.7c-0.6,1-1.2,2-1.7,3c2.5-0.4,3.6-1.9,4.9-4.1c1.7-3-0.1-3.7-2.6-5.3
		c-3.5-2.3-6.5-4.7-10.5-6.5c-4.1-1.8-8.1-3.7-12.1-5.7c-4.3-2.2-8.6-4.4-12.9-6.6c-2.9-1.5-3.3-4-4.8-6.8c-1.6-3-4.1-6.1-4.9-9.4
		c-1.1-4.3-0.9-9.2-0.8-13.6C48.4,459,46.6,460.4,46.6,461.3"/>
	<path class="st0" d="M22.7,460c0.8,6.7,2,13.4,3.8,20c0.3,1.2,1.9,4,1.6,5.1c-0.4,1.1-0.6,2.2-0.8,3.3c-0.7,3.7-0.3,7.5,2.4,10.2
		c0,0,2.1-2.6,1.7-3c-3-3.1-3-7.1-2.2-11.1c0.6-3.3,0-4.2-1-7.6c-1.9-6.5-3-13.3-3.8-20C24.6,457.7,22.6,459,22.7,460"/>
	<path class="st0" d="M85.6,450.7c2.5,0.6,5,1.8,7.5,1.1c2.1-0.6,4.9-2.6,5.1-5c0.1-1.3,0.6-2.4-0.3-3.4c-0.8-0.9-1.5-1.9-2.1-2.9
		c-0.2-0.3-1.6-0.6-1.9-0.7c-0.5-0.2-0.9-0.6-1.3-0.9c-1.1-0.8-2.1-1.1-3.4-1.6c-0.4-0.2-1.8,3-1.7,3c2.3,0.8,4.2,2.3,6.5,3.1
		c0.6,0.2,1.3,2,1.7,2.4c0.4,0.4,1.1,0.9,1,1.5c-0.1,0.8-0.2,1.6-0.2,2.5c0.6-1,1.1-1.9,1.7-2.9c-1,0.8-3.3,2.8-4.8,2.4
		c-2-0.5-4-1-6-1.5C86.8,447.6,85.7,450.7,85.6,450.7"/>
	<path class="st0" d="M71.3,96.3C71.3,96.3,71.3,96.3,71.3,96.3c0.4-0.7,0.8-1.4,1.2-2.1c0.1-0.1,0.1-0.2,0.1-0.1
		c0,0-0.3,0.3-0.4,0.3c-0.6,0.5-1.3,0.8-2,1.1c-0.4,0.2-0.8,1-1,1.4c-0.2,0.4-0.4,0.7-0.6,1.1c0-0.1-0.2,0.5-0.1,0.5
		c1-0.4,2-0.9,2.7-1.7c0.4-0.5,0.7-1,1-1.5c0.3-0.5,0.6-1,0.7-1.5c0.2-0.6-0.4,0.3-0.5,0.4C72,94.9,71.5,95.6,71.3,96.3"/>
	<path class="st0" d="M100.9,88.2c-1.5-0.8-3.1-1.6-4.6-2.5c-0.3-0.2-0.9-0.6-1.3-0.7c-0.5,0-1.2,0.4-1.6,0.6
		c-1.7,0.7-3.5,1.3-5.2,2c0.3-0.1,0.4,0.2,0.1-0.2c-0.2-0.3-0.4-0.5-0.6-0.8c-5-8.3-1-19,3.6-26.5c0.4-0.7,0.9-1.4,1.4-2.2
		c0.3-0.5,0.6-0.9,0.9-1.3c0.2-0.3,0.6-1.1,0.9-1.3c0.4-0.2,0.8-0.4,1.2-0.6c1.8-0.9,3.6-1.8,5.4-2.7c0.6-0.3,1.7-0.5,1.9-1.3
		c0.5-1.8,0.9-3.6,1.4-5.3c0.2-0.7,0.3-1.3,0.5-2c0.1-0.2-0.5,0,0.1,0c1.3,0.1,2.7,0.4,4,0.8c5.8,1.6,10.7,5.2,14.2,10
		c0.2,0.3,0.7-0.1,0.4-0.4c-4.3-5.8-11.4-10.7-18.9-11c-0.1,0-0.3,0.1-0.3,0.2c-0.4,1.6-0.8,3.2-1.3,4.9c-0.2,0.9-0.4,1.7-0.7,2.6
		c-0.1,0.3-0.2,0.4,0,0.3c-0.2,0.1-0.4,0.2-0.6,0.3c-1.9,0.9-3.8,1.8-5.7,2.8c-0.6,0.3-1.3,0.6-1.9,0.9c-0.1,0-0.2,0.1-0.3,0.2
		c-0.8,1-1.5,2.1-2.2,3.1c-5.2,7.7-9.6,18.4-5.4,27.5c0.4,0.9,0.9,1.8,1.5,2.5c0.1,0.1,0.2,0.1,0.3,0.1c2.2-0.8,4.4-1.7,6.6-2.5
		c0.1,0-0.4-0.1-0.1,0l0.6,0.3c0.7,0.4,1.3,0.7,2,1.1c1,0.5,2,1.1,3,1.6C100.9,88.8,101.2,88.4,100.9,88.2"/>
</g>
</svg>
